<svg xmlns="http://www.w3.org/2000/svg" xmlns:xlink="http://www.w3.org/1999/xlink" width="204" zoomAndPan="magnify" viewBox="0 0 153 56.999997" height="76" preserveAspectRatio="xMidYMid meet" version="1.0"><defs><g/><clipPath id="16fc4b77ff"><path d="M 3.300781 8.542969 L 31.050781 8.542969 L 31.050781 48.292969 L 3.300781 48.292969 Z M 3.300781 8.542969 " clip-rule="nonzero"/></clipPath></defs><rect x="-15.3" width="183.6" fill="#ffffff" y="-5.7" height="68.399996" fill-opacity="1"/><rect x="-15.3" width="183.6" fill="#ffffff" y="-5.7" height="68.399996" fill-opacity="1"/><rect x="-15.3" width="183.6" fill="#38193d" y="-5.7" height="68.399996" fill-opacity="1"/><g fill="#f5e8da" fill-opacity="1"><g transform="translate(34.284742, 23.24767)"><g><path d="M 3.25 -3.796875 L 5.515625 -6.90625 L 1.78125 -6.90625 L 1.78125 -7.296875 L 6 -7.296875 L 6 -6.90625 L 4.328125 -4.625 C 4.703125 -4.550781 5.035156 -4.398438 5.328125 -4.171875 C 5.628906 -3.953125 5.863281 -3.675781 6.03125 -3.34375 C 6.207031 -3.007812 6.296875 -2.648438 6.296875 -2.265625 C 6.296875 -1.828125 6.1875 -1.421875 5.96875 -1.046875 C 5.75 -0.679688 5.457031 -0.390625 5.09375 -0.171875 C 4.726562 0.046875 4.328125 0.15625 3.890625 0.15625 C 3.453125 0.15625 3.050781 0.046875 2.6875 -0.171875 C 2.320312 -0.390625 2.03125 -0.679688 1.8125 -1.046875 C 1.59375 -1.421875 1.484375 -1.828125 1.484375 -2.265625 L 1.859375 -2.265625 C 1.859375 -1.898438 1.945312 -1.5625 2.125 -1.25 C 2.3125 -0.9375 2.5625 -0.6875 2.875 -0.5 C 3.1875 -0.320312 3.523438 -0.234375 3.890625 -0.234375 C 4.253906 -0.234375 4.59375 -0.320312 4.90625 -0.5 C 5.21875 -0.6875 5.460938 -0.9375 5.640625 -1.25 C 5.828125 -1.5625 5.921875 -1.898438 5.921875 -2.265625 C 5.921875 -2.609375 5.835938 -2.925781 5.671875 -3.21875 C 5.503906 -3.507812 5.28125 -3.75 5 -3.9375 C 4.71875 -4.132812 4.40625 -4.242188 4.0625 -4.265625 L 3.5625 -3.578125 Z M 3.25 -3.796875 "/></g></g></g><g fill="#f5e8da" fill-opacity="1"><g transform="translate(42.063439, 23.24767)"><g><path d="M 6.359375 -2.3125 C 6.359375 -1.863281 6.25 -1.445312 6.03125 -1.0625 C 5.8125 -0.6875 5.507812 -0.390625 5.125 -0.171875 C 4.75 0.046875 4.335938 0.15625 3.890625 0.15625 C 3.441406 0.15625 3.023438 0.046875 2.640625 -0.171875 C 2.265625 -0.390625 1.96875 -0.6875 1.75 -1.0625 C 1.53125 -1.445312 1.421875 -1.863281 1.421875 -2.3125 L 1.421875 -5 C 1.421875 -5.445312 1.53125 -5.859375 1.75 -6.234375 C 1.96875 -6.609375 2.265625 -6.90625 2.640625 -7.125 C 3.023438 -7.351562 3.441406 -7.46875 3.890625 -7.46875 C 4.335938 -7.46875 4.75 -7.351562 5.125 -7.125 C 5.507812 -6.90625 5.8125 -6.609375 6.03125 -6.234375 C 6.25 -5.859375 6.359375 -5.445312 6.359375 -5 Z M 1.796875 -2.3125 C 1.796875 -2.070312 1.84375 -1.828125 1.9375 -1.578125 L 5.640625 -6.109375 C 5.453125 -6.398438 5.203125 -6.632812 4.890625 -6.8125 C 4.585938 -6.988281 4.253906 -7.078125 3.890625 -7.078125 C 3.515625 -7.078125 3.164062 -6.984375 2.84375 -6.796875 C 2.519531 -6.609375 2.265625 -6.351562 2.078125 -6.03125 C 1.890625 -5.71875 1.796875 -5.375 1.796875 -5 Z M 5.984375 -5 C 5.984375 -5.238281 5.9375 -5.484375 5.84375 -5.734375 L 2.140625 -1.203125 C 2.328125 -0.898438 2.570312 -0.660156 2.875 -0.484375 C 3.1875 -0.304688 3.523438 -0.21875 3.890625 -0.21875 C 4.265625 -0.21875 4.613281 -0.3125 4.9375 -0.5 C 5.257812 -0.6875 5.515625 -0.941406 5.703125 -1.265625 C 5.890625 -1.585938 5.984375 -1.9375 5.984375 -2.3125 Z M 5.984375 -5 "/></g></g></g><g fill="#f5e8da" fill-opacity="1"><g transform="translate(49.842137, 23.24767)"><g/></g></g><g fill="#f5e8da" fill-opacity="1"><g transform="translate(57.620834, 23.24767)"><g><path d="M 0.9375 -7.328125 L 1.359375 -7.328125 L 3.90625 -2.8125 L 6.453125 -7.328125 L 6.84375 -7.328125 L 6.84375 -0.015625 L 0.9375 -0.015625 Z M 1.328125 -0.390625 L 6.453125 -0.390625 L 6.453125 -6.546875 L 4.09375 -2.375 L 3.71875 -2.375 L 1.328125 -6.609375 Z M 1.328125 -0.390625 "/></g></g></g><g fill="#f5e8da" fill-opacity="1"><g transform="translate(65.399531, 23.24767)"><g><path d="M 1.53125 -5.46875 L 1.53125 -7.3125 L 6.25 -7.3125 L 6.25 -5.46875 L 4.078125 -5.46875 L 4.078125 -1.84375 L 6.25 -1.84375 L 6.25 0 L 1.53125 0 L 1.53125 -1.84375 L 3.703125 -1.84375 L 3.703125 -5.46875 Z M 1.53125 -5.46875 "/></g></g></g><g fill="#f5e8da" fill-opacity="1"><g transform="translate(73.178228, 23.24767)"><g><path d="M 1.046875 -0.015625 L 1.046875 -7.328125 L 1.453125 -7.328125 L 6.5625 -2.359375 L 6.5625 -7.328125 L 6.953125 -7.328125 L 6.953125 -0.015625 Z M 1.046875 -0.015625 "/></g></g></g><g fill="#f5e8da" fill-opacity="1"><g transform="translate(80.956926, 23.24767)"><g><path d="M 3.890625 0.15625 C 3.359375 0.15625 2.863281 0.0234375 2.40625 -0.234375 C 1.957031 -0.503906 1.597656 -0.863281 1.328125 -1.3125 C 1.066406 -1.769531 0.9375 -2.265625 0.9375 -2.796875 L 0.9375 -7.3125 L 6.84375 -7.3125 L 6.84375 -2.796875 C 6.84375 -2.265625 6.707031 -1.769531 6.4375 -1.3125 C 6.175781 -0.863281 5.816406 -0.503906 5.359375 -0.234375 C 4.910156 0.0234375 4.421875 0.15625 3.890625 0.15625 Z M 3.890625 0.15625 "/></g></g></g><g fill="#f5e8da" fill-opacity="1"><g transform="translate(88.735623, 23.24767)"><g><path d="M 3.703125 0 L 3.703125 -5.46875 L 0.9375 -5.46875 L 0.9375 -7.3125 L 6.84375 -7.3125 L 6.84375 -5.46875 L 4.078125 -5.46875 L 4.078125 0 Z M 3.703125 0 "/></g></g></g><g fill="#f5e8da" fill-opacity="1"><g transform="translate(96.51432, 23.24767)"><g><path d="M 0.84375 -4.46875 C 0.84375 -5.019531 0.976562 -5.53125 1.25 -6 C 1.519531 -6.46875 1.890625 -6.835938 2.359375 -7.109375 C 2.828125 -7.378906 3.335938 -7.515625 3.890625 -7.515625 C 4.441406 -7.515625 4.953125 -7.378906 5.421875 -7.109375 C 5.890625 -6.835938 6.257812 -6.46875 6.53125 -6 C 6.800781 -5.53125 6.9375 -5.019531 6.9375 -4.46875 L 6.9375 -2.84375 C 6.9375 -2.300781 6.800781 -1.796875 6.53125 -1.328125 C 6.257812 -0.859375 5.890625 -0.484375 5.421875 -0.203125 C 4.953125 0.0664062 4.441406 0.203125 3.890625 0.203125 C 3.335938 0.203125 2.828125 0.0664062 2.359375 -0.203125 C 1.890625 -0.484375 1.519531 -0.859375 1.25 -1.328125 C 0.976562 -1.796875 0.84375 -2.300781 0.84375 -2.84375 Z M 2.75 -2.84375 C 2.75 -2.507812 2.851562 -2.222656 3.0625 -1.984375 C 3.28125 -1.742188 3.554688 -1.625 3.890625 -1.625 C 4.222656 -1.625 4.492188 -1.742188 4.703125 -1.984375 C 4.910156 -2.222656 5.015625 -2.507812 5.015625 -2.84375 L 5.015625 -4.484375 C 5.015625 -4.828125 4.910156 -5.113281 4.703125 -5.34375 C 4.492188 -5.570312 4.222656 -5.6875 3.890625 -5.6875 C 3.554688 -5.6875 3.28125 -5.570312 3.0625 -5.34375 C 2.851562 -5.113281 2.75 -4.828125 2.75 -4.484375 Z M 2.75 -2.84375 "/></g></g></g><g fill="#f5e8da" fill-opacity="1"><g transform="translate(104.293017, 23.24767)"><g><path d="M 3.9375 0.1875 C 2.925781 0.1875 2.144531 -0.0507812 1.59375 -0.53125 C 1.039062 -1.007812 0.769531 -1.726562 0.78125 -2.6875 L 2.5 -2.6875 C 2.488281 -2.289062 2.601562 -1.988281 2.84375 -1.78125 C 3.09375 -1.570312 3.4375 -1.46875 3.875 -1.46875 C 4.238281 -1.46875 4.523438 -1.523438 4.734375 -1.640625 C 4.953125 -1.753906 5.0625 -1.9375 5.0625 -2.1875 C 5.0625 -2.394531 4.953125 -2.539062 4.734375 -2.625 C 4.523438 -2.71875 4.3125 -2.78125 4.09375 -2.8125 C 3.882812 -2.851562 3.757812 -2.878906 3.71875 -2.890625 C 3.175781 -2.992188 2.707031 -3.117188 2.3125 -3.265625 C 1.914062 -3.421875 1.582031 -3.648438 1.3125 -3.953125 C 1.050781 -4.265625 0.921875 -4.675781 0.921875 -5.1875 C 0.921875 -5.6875 1.050781 -6.113281 1.3125 -6.46875 C 1.582031 -6.820312 1.941406 -7.085938 2.390625 -7.265625 C 2.835938 -7.441406 3.320312 -7.53125 3.84375 -7.53125 C 4.488281 -7.53125 5.039062 -7.410156 5.5 -7.171875 C 5.96875 -6.929688 6.335938 -6.570312 6.609375 -6.09375 C 6.734375 -5.851562 6.8125 -5.625 6.84375 -5.40625 C 6.875 -5.195312 6.890625 -4.992188 6.890625 -4.796875 L 5.171875 -4.796875 C 5.171875 -5.171875 5.066406 -5.445312 4.859375 -5.625 C 4.660156 -5.8125 4.347656 -5.90625 3.921875 -5.90625 C 3.578125 -5.90625 3.3125 -5.84375 3.125 -5.71875 C 2.9375 -5.601562 2.84375 -5.441406 2.84375 -5.234375 C 2.84375 -5.015625 2.96875 -4.847656 3.21875 -4.734375 C 3.46875 -4.628906 3.785156 -4.535156 4.171875 -4.453125 C 4.804688 -4.328125 5.300781 -4.207031 5.65625 -4.09375 C 6.007812 -3.976562 6.316406 -3.769531 6.578125 -3.46875 C 6.835938 -3.175781 6.96875 -2.765625 6.96875 -2.234375 C 6.96875 -1.734375 6.828125 -1.300781 6.546875 -0.9375 C 6.265625 -0.570312 5.894531 -0.289062 5.4375 -0.09375 C 4.976562 0.09375 4.476562 0.1875 3.9375 0.1875 Z M 3.9375 0.1875 "/></g></g></g><g fill="#f5e8da" fill-opacity="1"><g transform="translate(112.071714, 23.24767)"><g/></g></g><g fill="#f5e8da" fill-opacity="1"><g transform="translate(119.850412, 23.24767)"><g><path d="M 1.46875 0 L 1.46875 -7.3125 L 4.515625 -7.3125 C 5.035156 -7.3125 5.476562 -7.21875 5.84375 -7.03125 C 6.269531 -6.8125 6.609375 -6.5 6.859375 -6.09375 C 7.117188 -5.695312 7.25 -5.257812 7.25 -4.78125 C 7.25 -4.289062 7.125 -3.84375 6.875 -3.4375 C 6.625 -3.03125 6.285156 -2.71875 5.859375 -2.5 C 5.492188 -2.3125 5.046875 -2.21875 4.515625 -2.21875 L 3.375 -2.21875 L 3.375 0 Z M 1.46875 0 "/></g></g></g><g fill="#f5e8da" fill-opacity="1"><g transform="translate(127.629109, 23.24767)"><g><path d="M 7.34375 0 L 0.4375 0 L 3.890625 -7.484375 Z M 1.046875 -0.390625 L 6.734375 -0.390625 L 3.890625 -6.546875 Z M 1.046875 -0.390625 "/></g></g></g><g fill="#f5e8da" fill-opacity="1"><g transform="translate(135.407806, 23.24767)"><g><path d="M 6.921875 0 L 1.296875 0 L 1.296875 -7.3125 L 4.140625 -7.3125 C 4.753906 -7.3125 5.253906 -7.207031 5.640625 -7 C 6.015625 -6.78125 6.304688 -6.488281 6.515625 -6.125 C 6.722656 -5.757812 6.828125 -5.359375 6.828125 -4.921875 C 6.828125 -4.367188 6.660156 -3.878906 6.328125 -3.453125 C 5.992188 -3.023438 5.570312 -2.738281 5.0625 -2.59375 Z M 1.953125 -6.9375 L 4.8125 -2.9375 C 5.28125 -3.03125 5.671875 -3.265625 5.984375 -3.640625 C 6.296875 -4.015625 6.453125 -4.441406 6.453125 -4.921875 C 6.453125 -5.304688 6.351562 -5.65625 6.15625 -5.96875 C 5.96875 -6.289062 5.703125 -6.535156 5.359375 -6.703125 C 5.054688 -6.859375 4.65625 -6.9375 4.15625 -6.9375 Z M 1.6875 -6.671875 L 1.6875 -2.90625 L 4.390625 -2.90625 Z M 1.6875 -0.390625 L 6.1875 -0.390625 L 4.640625 -2.53125 L 4.328125 -2.515625 L 1.6875 -2.515625 Z M 1.6875 -0.390625 "/></g></g></g><g fill="#f5e8da" fill-opacity="1"><g transform="translate(143.186503, 23.24767)"><g><path d="M 7.34375 0 L 0.4375 0 L 3.890625 -7.484375 Z M 1.046875 -0.390625 L 6.734375 -0.390625 L 3.890625 -6.546875 Z M 1.046875 -0.390625 "/></g></g></g><g fill="#f5e8da" fill-opacity="1"><g transform="translate(34.296461, 37.497669)"><g><path d="M 0.84375 -4.46875 C 0.84375 -5.019531 0.976562 -5.53125 1.25 -6 C 1.519531 -6.46875 1.890625 -6.835938 2.359375 -7.109375 C 2.828125 -7.378906 3.335938 -7.515625 3.890625 -7.515625 C 4.441406 -7.515625 4.953125 -7.378906 5.421875 -7.109375 C 5.890625 -6.835938 6.257812 -6.46875 6.53125 -6 C 6.800781 -5.53125 6.9375 -5.019531 6.9375 -4.46875 L 6.9375 -2.84375 C 6.9375 -2.300781 6.800781 -1.796875 6.53125 -1.328125 C 6.257812 -0.859375 5.890625 -0.484375 5.421875 -0.203125 C 4.953125 0.0664062 4.441406 0.203125 3.890625 0.203125 C 3.335938 0.203125 2.828125 0.0664062 2.359375 -0.203125 C 1.890625 -0.484375 1.519531 -0.859375 1.25 -1.328125 C 0.976562 -1.796875 0.84375 -2.300781 0.84375 -2.84375 Z M 2.75 -2.84375 C 2.75 -2.507812 2.851562 -2.222656 3.0625 -1.984375 C 3.28125 -1.742188 3.554688 -1.625 3.890625 -1.625 C 4.222656 -1.625 4.492188 -1.742188 4.703125 -1.984375 C 4.910156 -2.222656 5.015625 -2.507812 5.015625 -2.84375 L 5.015625 -4.484375 C 5.015625 -4.828125 4.910156 -5.113281 4.703125 -5.34375 C 4.492188 -5.570312 4.222656 -5.6875 3.890625 -5.6875 C 3.554688 -5.6875 3.28125 -5.570312 3.0625 -5.34375 C 2.851562 -5.113281 2.75 -4.828125 2.75 -4.484375 Z M 2.75 -2.84375 "/></g></g></g><g fill="#f5e8da" fill-opacity="1"><g transform="translate(42.075158, 37.497669)"><g/></g></g><g fill="#f5e8da" fill-opacity="1"><g transform="translate(49.853855, 37.497669)"><g><path d="M 6.796875 -7.3125 L 6.796875 -6.9375 L 1.75 -6.9375 L 1.75 -4.578125 L 5.796875 -4.578125 L 5.796875 -2.734375 L 1.75 -2.734375 L 1.75 0 L 1.359375 0 L 1.359375 -7.3125 Z M 6.796875 -7.3125 "/></g></g></g><g fill="#f5e8da" fill-opacity="1"><g transform="translate(57.632553, 37.497669)"><g><path d="M 1.53125 -5.46875 L 1.53125 -7.3125 L 6.25 -7.3125 L 6.25 -5.46875 L 4.078125 -5.46875 L 4.078125 -1.84375 L 6.25 -1.84375 L 6.25 0 L 1.53125 0 L 1.53125 -1.84375 L 3.703125 -1.84375 L 3.703125 -5.46875 Z M 1.53125 -5.46875 "/></g></g></g><g fill="#f5e8da" fill-opacity="1"><g transform="translate(65.41125, 37.497669)"><g><path d="M 0.9375 -7.328125 L 1.359375 -7.328125 L 3.90625 -2.8125 L 6.453125 -7.328125 L 6.84375 -7.328125 L 6.84375 -0.015625 L 0.9375 -0.015625 Z M 1.328125 -0.390625 L 6.453125 -0.390625 L 6.453125 -6.546875 L 4.09375 -2.375 L 3.71875 -2.375 L 1.328125 -6.609375 Z M 1.328125 -0.390625 "/></g></g></g><g fill="#f5e8da" fill-opacity="1"><g transform="translate(73.189947, 37.497669)"><g/></g></g><g fill="#f5e8da" fill-opacity="1"><g transform="translate(80.968644, 37.497669)"><g><path d="M 1.265625 0 L 1.265625 -7.3125 L 3.984375 -7.3125 C 4.515625 -7.3125 5.003906 -7.175781 5.453125 -6.90625 C 5.910156 -6.644531 6.269531 -6.285156 6.53125 -5.828125 C 6.800781 -5.378906 6.9375 -4.890625 6.9375 -4.359375 L 6.9375 -2.953125 C 6.9375 -2.421875 6.800781 -1.925781 6.53125 -1.46875 C 6.269531 -1.019531 5.910156 -0.660156 5.453125 -0.390625 C 5.003906 -0.128906 4.515625 0 3.984375 0 Z M 1.265625 0 "/></g></g></g><g fill="#f5e8da" fill-opacity="1"><g transform="translate(88.747342, 37.497669)"><g><path d="M 0.84375 -4.46875 C 0.84375 -5.019531 0.976562 -5.53125 1.25 -6 C 1.519531 -6.46875 1.890625 -6.835938 2.359375 -7.109375 C 2.828125 -7.378906 3.335938 -7.515625 3.890625 -7.515625 C 4.441406 -7.515625 4.953125 -7.378906 5.421875 -7.109375 C 5.890625 -6.835938 6.257812 -6.46875 6.53125 -6 C 6.800781 -5.53125 6.9375 -5.019531 6.9375 -4.46875 L 6.9375 -2.84375 C 6.9375 -2.300781 6.800781 -1.796875 6.53125 -1.328125 C 6.257812 -0.859375 5.890625 -0.484375 5.421875 -0.203125 C 4.953125 0.0664062 4.441406 0.203125 3.890625 0.203125 C 3.335938 0.203125 2.828125 0.0664062 2.359375 -0.203125 C 1.890625 -0.484375 1.519531 -0.859375 1.25 -1.328125 C 0.976562 -1.796875 0.84375 -2.300781 0.84375 -2.84375 Z M 2.75 -2.84375 C 2.75 -2.507812 2.851562 -2.222656 3.0625 -1.984375 C 3.28125 -1.742188 3.554688 -1.625 3.890625 -1.625 C 4.222656 -1.625 4.492188 -1.742188 4.703125 -1.984375 C 4.910156 -2.222656 5.015625 -2.507812 5.015625 -2.84375 L 5.015625 -4.484375 C 5.015625 -4.828125 4.910156 -5.113281 4.703125 -5.34375 C 4.492188 -5.570312 4.222656 -5.6875 3.890625 -5.6875 C 3.554688 -5.6875 3.28125 -5.570312 3.0625 -5.34375 C 2.851562 -5.113281 2.75 -4.828125 2.75 -4.484375 Z M 2.75 -2.84375 "/></g></g></g><g fill="#f5e8da" fill-opacity="1"><g transform="translate(96.526039, 37.497669)"><g/></g></g><g fill="#f5e8da" fill-opacity="1"><g transform="translate(104.304736, 37.497669)"><g><path d="M 0.9375 -7.328125 L 1.359375 -7.328125 L 3.90625 -2.8125 L 6.453125 -7.328125 L 6.84375 -7.328125 L 6.84375 -0.015625 L 0.9375 -0.015625 Z M 1.328125 -0.390625 L 6.453125 -0.390625 L 6.453125 -6.546875 L 4.09375 -2.375 L 3.71875 -2.375 L 1.328125 -6.609375 Z M 1.328125 -0.390625 "/></g></g></g><g fill="#f5e8da" fill-opacity="1"><g transform="translate(112.083433, 37.497669)"><g><path d="M 3.890625 0.15625 C 3.359375 0.15625 2.863281 0.0234375 2.40625 -0.234375 C 1.957031 -0.503906 1.597656 -0.863281 1.328125 -1.3125 C 1.066406 -1.769531 0.9375 -2.265625 0.9375 -2.796875 L 0.9375 -7.3125 L 6.84375 -7.3125 L 6.84375 -2.796875 C 6.84375 -2.265625 6.707031 -1.769531 6.4375 -1.3125 C 6.175781 -0.863281 5.816406 -0.503906 5.359375 -0.234375 C 4.910156 0.0234375 4.421875 0.15625 3.890625 0.15625 Z M 3.890625 0.15625 "/></g></g></g><g fill="#f5e8da" fill-opacity="1"><g transform="translate(119.86213, 37.497669)"><g><path d="M 1.046875 -0.015625 L 1.046875 -7.328125 L 1.453125 -7.328125 L 6.5625 -2.359375 L 6.5625 -7.328125 L 6.953125 -7.328125 L 6.953125 -0.015625 Z M 1.046875 -0.015625 "/></g></g></g><g fill="#f5e8da" fill-opacity="1"><g transform="translate(127.640828, 37.497669)"><g><path d="M 1.265625 0 L 1.265625 -7.3125 L 3.984375 -7.3125 C 4.515625 -7.3125 5.003906 -7.175781 5.453125 -6.90625 C 5.910156 -6.644531 6.269531 -6.285156 6.53125 -5.828125 C 6.800781 -5.378906 6.9375 -4.890625 6.9375 -4.359375 L 6.9375 -2.953125 C 6.9375 -2.421875 6.800781 -1.925781 6.53125 -1.46875 C 6.269531 -1.019531 5.910156 -0.660156 5.453125 -0.390625 C 5.003906 -0.128906 4.515625 0 3.984375 0 Z M 1.265625 0 "/></g></g></g><g fill="#f5e8da" fill-opacity="1"><g transform="translate(135.419525, 37.497669)"><g><path d="M 0.84375 -4.46875 C 0.84375 -5.019531 0.976562 -5.53125 1.25 -6 C 1.519531 -6.46875 1.890625 -6.835938 2.359375 -7.109375 C 2.828125 -7.378906 3.335938 -7.515625 3.890625 -7.515625 C 4.441406 -7.515625 4.953125 -7.378906 5.421875 -7.109375 C 5.890625 -6.835938 6.257812 -6.46875 6.53125 -6 C 6.800781 -5.53125 6.9375 -5.019531 6.9375 -4.46875 L 6.9375 -2.84375 C 6.9375 -2.300781 6.800781 -1.796875 6.53125 -1.328125 C 6.257812 -0.859375 5.890625 -0.484375 5.421875 -0.203125 C 4.953125 0.0664062 4.441406 0.203125 3.890625 0.203125 C 3.335938 0.203125 2.828125 0.0664062 2.359375 -0.203125 C 1.890625 -0.484375 1.519531 -0.859375 1.25 -1.328125 C 0.976562 -1.796875 0.84375 -2.300781 0.84375 -2.84375 Z M 2.75 -2.84375 C 2.75 -2.507812 2.851562 -2.222656 3.0625 -1.984375 C 3.28125 -1.742188 3.554688 -1.625 3.890625 -1.625 C 4.222656 -1.625 4.492188 -1.742188 4.703125 -1.984375 C 4.910156 -2.222656 5.015625 -2.507812 5.015625 -2.84375 L 5.015625 -4.484375 C 5.015625 -4.828125 4.910156 -5.113281 4.703125 -5.34375 C 4.492188 -5.570312 4.222656 -5.6875 3.890625 -5.6875 C 3.554688 -5.6875 3.28125 -5.570312 3.0625 -5.34375 C 2.851562 -5.113281 2.75 -4.828125 2.75 -4.484375 Z M 2.75 -2.84375 "/></g></g></g><g fill="#f5e8da" fill-opacity="1"><g transform="translate(143.187076, 37.497669)"><g/></g></g><path fill="#f5e8da" d="M 17.773438 30.617188 C 17.773438 30.78125 17.714844 30.917969 17.597656 31.035156 C 17.480469 31.148438 17.339844 31.207031 17.175781 31.207031 C 17.011719 31.207031 16.871094 31.148438 16.753906 31.035156 C 16.636719 30.917969 16.578125 30.78125 16.578125 30.617188 C 16.578125 30.453125 16.636719 30.316406 16.753906 30.199219 C 16.871094 30.082031 17.011719 30.027344 17.175781 30.027344 C 17.339844 30.027344 17.480469 30.082031 17.597656 30.199219 C 17.714844 30.316406 17.773438 30.453125 17.773438 30.617188 Z M 17.773438 30.617188 " fill-opacity="1" fill-rule="nonzero"/><path fill="#f5e8da" d="M 17.773438 32.953125 C 17.773438 33.117188 17.714844 33.253906 17.597656 33.371094 C 17.480469 33.484375 17.339844 33.542969 17.175781 33.542969 C 17.011719 33.542969 16.871094 33.484375 16.753906 33.371094 C 16.636719 33.253906 16.578125 33.117188 16.578125 32.953125 C 16.578125 32.789062 16.636719 32.648438 16.753906 32.535156 C 16.871094 32.417969 17.011719 32.363281 17.175781 32.363281 C 17.339844 32.363281 17.480469 32.417969 17.597656 32.535156 C 17.714844 32.648438 17.773438 32.789062 17.773438 32.953125 Z M 17.773438 32.953125 " fill-opacity="1" fill-rule="nonzero"/><g clip-path="url(#16fc4b77ff)"><path fill="#f5e8da" d="M 21.363281 27.027344 L 23.941406 24.699219 L 25.179688 23.585938 C 27.414062 21.589844 28.523438 18.886719 28.566406 15.308594 L 28.566406 12.300781 L 30.4375 12.300781 C 30.605469 12.304688 30.75 12.25 30.871094 12.132812 C 30.988281 12.015625 31.050781 11.875 31.050781 11.710938 L 31.050781 9.152344 C 31.050781 8.988281 30.992188 8.851562 30.875 8.734375 C 30.757812 8.621094 30.617188 8.5625 30.453125 8.5625 L 3.90625 8.5625 C 3.742188 8.5625 3.601562 8.621094 3.484375 8.734375 C 3.367188 8.851562 3.308594 8.988281 3.308594 9.152344 L 3.308594 11.710938 C 3.308594 11.875 3.367188 12.011719 3.484375 12.128906 C 3.601562 12.242188 3.742188 12.300781 3.90625 12.300781 L 5.777344 12.300781 L 5.777344 15.296875 C 5.820312 18.867188 6.933594 21.574219 9.171875 23.5625 L 10.601562 24.859375 L 12.992188 27.015625 C 13.519531 27.40625 13.804688 27.929688 13.855469 28.578125 C 13.789062 29.25 13.484375 29.785156 12.933594 30.183594 L 9.160156 33.59375 C 6.925781 35.585938 5.816406 38.289062 5.769531 41.871094 L 5.769531 44.480469 L 3.90625 44.480469 C 3.738281 44.480469 3.597656 44.539062 3.480469 44.65625 C 3.363281 44.777344 3.304688 44.917969 3.308594 45.085938 L 3.308594 47.640625 C 3.308594 47.804688 3.367188 47.945312 3.484375 48.058594 C 3.601562 48.175781 3.742188 48.234375 3.90625 48.234375 L 30.4375 48.234375 C 30.609375 48.238281 30.753906 48.179688 30.875 48.058594 C 30.996094 47.941406 31.054688 47.796875 31.050781 47.628906 L 31.050781 45.085938 C 31.050781 44.921875 30.992188 44.78125 30.875 44.667969 C 30.757812 44.550781 30.617188 44.492188 30.453125 44.492188 L 28.566406 44.492188 L 28.566406 41.859375 C 28.523438 38.289062 27.414062 35.585938 25.179688 33.59375 L 21.402344 30.175781 C 20.855469 29.785156 20.554688 29.253906 20.488281 28.589844 C 20.546875 27.9375 20.835938 27.417969 21.363281 27.027344 Z M 19.296875 28.59375 C 19.320312 29.078125 19.449219 29.535156 19.675781 29.964844 C 19.902344 30.394531 20.210938 30.757812 20.597656 31.058594 L 24.363281 34.46875 C 26.371094 36.257812 27.320312 38.613281 27.359375 41.871094 L 27.359375 44.480469 L 6.972656 44.480469 L 6.972656 41.875 C 7.015625 38.613281 7.964844 36.257812 9.972656 34.46875 L 13.746094 31.0625 C 14.136719 30.761719 14.445312 30.394531 14.675781 29.960938 C 14.90625 29.527344 15.03125 29.066406 15.058594 28.578125 C 15.007812 27.585938 14.585938 26.78125 13.789062 26.171875 L 11.402344 24.015625 L 9.96875 22.722656 C 7.964844 20.933594 7.015625 18.578125 6.972656 15.324219 L 6.972656 12.300781 L 27.371094 12.300781 L 27.371094 15.296875 C 27.335938 18.5625 26.382812 20.914062 24.378906 22.703125 C 23.960938 23.070312 23.550781 23.445312 23.136719 23.824219 L 20.542969 26.171875 C 19.761719 26.792969 19.34375 27.601562 19.296875 28.59375 Z M 19.296875 28.59375 " fill-opacity="1" fill-rule="nonzero"/></g><path fill="#f5e8da" d="M 25.035156 20.027344 C 25.183594 19.773438 25.15625 19.539062 24.949219 19.328125 C 24.859375 19.230469 24.75 19.171875 24.621094 19.148438 C 24.488281 19.128906 24.367188 19.148438 24.25 19.207031 C 21.894531 20.394531 21.011719 20.839844 17.355469 19.679688 C 16.183594 19.304688 14.984375 19.15625 13.757812 19.238281 C 12.527344 19.320312 11.359375 19.625 10.25 20.152344 C 10.167969 20.191406 10.097656 20.246094 10.039062 20.316406 C 9.984375 20.386719 9.945312 20.464844 9.925781 20.550781 C 9.902344 20.640625 9.902344 20.726562 9.921875 20.816406 C 9.941406 20.902344 9.980469 20.980469 10.035156 21.050781 C 10.265625 21.320312 15.460938 26.253906 15.507812 26.253906 C 15.902344 26.703125 16.125 27.222656 16.175781 27.816406 C 16.210938 28.066406 16.324219 28.273438 16.523438 28.433594 C 16.71875 28.589844 16.945312 28.660156 17.199219 28.640625 C 17.441406 28.664062 17.65625 28.597656 17.839844 28.445312 C 18.027344 28.292969 18.132812 28.09375 18.152344 27.855469 C 18.25 27.074219 18.601562 26.425781 19.203125 25.914062 C 19.285156 25.84375 19.621094 25.523438 20.074219 25.09375 C 21.191406 24.035156 23.054688 22.257812 23.566406 21.8125 C 24.152344 21.296875 24.644531 20.699219 25.035156 20.027344 Z M 25.035156 20.027344 " fill-opacity="1" fill-rule="nonzero"/><path fill="#f5e8da" d="M 8.949219 42.589844 C 8.945312 42.753906 9.003906 42.898438 9.125 43.019531 C 9.242188 43.136719 9.386719 43.195312 9.558594 43.191406 L 24.796875 43.191406 C 24.960938 43.191406 25.101562 43.136719 25.21875 43.019531 C 25.335938 42.90625 25.394531 42.765625 25.394531 42.601562 C 25.382812 42.074219 25.316406 41.554688 25.203125 41.042969 C 25.089844 40.527344 24.925781 40.03125 24.714844 39.546875 C 24.5 39.066406 24.242188 38.605469 23.941406 38.171875 C 23.640625 37.742188 23.296875 37.339844 22.917969 36.972656 C 22.539062 36.605469 22.125 36.277344 21.679688 35.988281 C 21.234375 35.699219 20.765625 35.457031 20.273438 35.257812 C 19.78125 35.058594 19.273438 34.910156 18.753906 34.808594 C 18.230469 34.707031 17.703125 34.65625 17.171875 34.65625 C 16.640625 34.65625 16.113281 34.707031 15.59375 34.808594 C 15.070312 34.910156 14.5625 35.058594 14.070312 35.257812 C 13.578125 35.457031 13.109375 35.699219 12.664062 35.988281 C 12.21875 36.277344 11.808594 36.605469 11.425781 36.972656 C 11.046875 37.339844 10.707031 37.742188 10.402344 38.171875 C 10.101562 38.605469 9.84375 39.066406 9.632812 39.546875 C 9.417969 40.03125 9.257812 40.527344 9.140625 41.042969 C 9.027344 41.554688 8.964844 42.074219 8.949219 42.601562 Z M 8.949219 42.589844 " fill-opacity="1" fill-rule="nonzero"/></svg>