<svg xmlns="http://www.w3.org/2000/svg" xmlns:xlink="http://www.w3.org/1999/xlink" width="100" zoomAndPan="magnify" viewBox="0 0 75 52.499999" height="70" preserveAspectRatio="xMidYMid meet" version="1.0"><defs><clipPath id="d10ce420f4"><path d="M 17.949219 5.949219 L 57.324219 5.949219 L 57.324219 46.066406 L 17.949219 46.066406 Z M 17.949219 5.949219 " clip-rule="nonzero"/></clipPath></defs><g clip-path="url(#d10ce420f4)"><path fill="#f5e8da" d="M 17.941406 42.988281 L 17.941406 39.929688 L 20.601562 37.257812 C 22.0625 35.789062 24.140625 33.695312 25.214844 32.605469 C 26.292969 31.515625 27.242188 30.625 27.324219 30.625 C 27.488281 30.625 29.316406 31.714844 34.226562 34.738281 C 34.359375 34.820312 34.355469 34.867188 34.210938 35.070312 C 34.066406 35.277344 30.242188 39.195312 24.949219 44.554688 L 23.476562 46.050781 L 17.941406 46.050781 Z M 33.144531 43.757812 C 32.113281 43.628906 30.878906 43.070312 30.335938 42.488281 C 29.949219 42.070312 29.988281 41.476562 30.429688 41.109375 C 30.835938 40.769531 31.003906 40.789062 31.867188 41.308594 C 32.6875 41.796875 33.609375 41.976562 34.4375 41.808594 C 35.90625 41.503906 36.421875 41 37.597656 38.691406 C 38.480469 36.960938 39.570312 35.183594 40.34375 34.210938 C 40.558594 33.941406 41.503906 32.9375 42.445312 31.980469 C 44.320312 30.078125 44.667969 29.632812 45.285156 28.308594 C 45.898438 26.996094 46.160156 25.789062 46.160156 24.285156 C 46.160156 21.261719 45.230469 19.003906 43.152344 16.992188 C 41.765625 15.648438 39.875 14.65625 38.105469 14.335938 C 36.671875 14.078125 34.519531 14.214844 33.074219 14.652344 C 30.566406 15.417969 28.296875 17.441406 27.105469 19.980469 C 26.890625 20.433594 26.363281 22.203125 26.363281 22.46875 C 26.363281 22.570312 26.296875 22.742188 26.214844 22.851562 C 26.074219 23.046875 26.03125 23.035156 25.269531 22.628906 C 24.832031 22.394531 24.417969 22.117188 24.351562 22.015625 C 24.03125 21.503906 25.335938 18.28125 26.457031 16.8125 C 27.808594 15.046875 29.703125 13.609375 31.671875 12.859375 C 33.402344 12.203125 34.296875 12.035156 36.042969 12.039062 C 38.246094 12.042969 39.976562 12.460938 41.769531 13.417969 C 44.96875 15.128906 47.03125 17.734375 48 21.28125 C 48.25 22.199219 48.28125 22.515625 48.28125 24.160156 C 48.28125 25.722656 48.242188 26.144531 48.039062 26.902344 C 47.253906 29.8125 46.363281 31.246094 43.84375 33.652344 C 41.628906 35.769531 40.207031 37.683594 39.394531 39.640625 C 38.9375 40.742188 38.625 41.265625 38.03125 41.921875 C 36.753906 43.324219 34.980469 43.988281 33.144531 43.757812 Z M 41.972656 29.105469 C 41.691406 28.925781 41.457031 28.703125 41.457031 28.609375 C 41.457031 28.515625 41.582031 28.277344 41.730469 28.082031 C 42.390625 27.222656 42.984375 25.457031 42.988281 24.34375 C 42.992188 23.539062 42.699219 22.339844 42.285156 21.445312 C 41.566406 19.898438 40.046875 18.550781 38.371094 17.980469 C 37.683594 17.746094 37.320312 17.691406 36.449219 17.6875 C 35.203125 17.683594 34.589844 17.808594 33.527344 18.292969 C 32.300781 18.847656 31.339844 19.777344 30.558594 21.148438 C 30.117188 21.925781 30.078125 21.929688 29.179688 21.367188 C 28.558594 20.976562 28.539062 20.832031 28.996094 19.980469 C 30.21875 17.707031 32.5625 16.15625 35.386719 15.753906 C 37.035156 15.523438 39.324219 16.070312 40.875 17.070312 C 42.582031 18.171875 43.777344 19.773438 44.429688 21.828125 C 44.644531 22.515625 44.683594 22.867188 44.683594 24.160156 C 44.683594 25.453125 44.644531 25.800781 44.429688 26.492188 C 43.949219 28.007812 43.085938 29.429688 42.640625 29.429688 C 42.554688 29.429688 42.253906 29.28125 41.972656 29.105469 Z M 49.21875 19.296875 C 48.296875 16.992188 47.027344 15.257812 44.960938 13.480469 L 44.582031 13.15625 L 45.449219 12.25 C 45.925781 11.75 47.5 10.132812 48.945312 8.652344 L 51.574219 5.964844 L 57.316406 5.964844 L 57.316406 11.886719 L 53.40625 15.769531 C 51.257812 17.902344 49.464844 19.652344 49.429688 19.652344 C 49.390625 19.652344 49.296875 19.492188 49.21875 19.296875 Z M 49.21875 19.296875 " fill-opacity="1" fill-rule="nonzero"/></g></svg>