<svg xmlns="http://www.w3.org/2000/svg" xmlns:xlink="http://www.w3.org/1999/xlink" width="100" zoomAndPan="magnify" viewBox="0 0 75 52.499999" height="70" preserveAspectRatio="xMidYMid meet" version="1.0"><defs><clipPath id="0894c305d5"><path d="M 16.589844 3 L 58.195312 3 L 58.195312 46.773438 L 16.589844 46.773438 Z M 16.589844 3 " clip-rule="nonzero"/></clipPath></defs><g clip-path="url(#0894c305d5)"><path fill="#f5e8da" d="M 30.003906 7.425781 C 31.058594 6.847656 32.195312 6.765625 33.136719 8.203125 C 34.117188 9.691406 34.242188 11.277344 33.058594 12.46875 C 32.542969 12.988281 30.78125 13.367188 30.164062 13.125 C 29.410156 12.832031 28.0625 11.300781 28.015625 10.285156 C 27.949219 8.929688 28.863281 7.734375 30.003906 7.425781 Z M 16.964844 38.519531 C 16.964844 38.519531 57.820312 38.519531 57.820312 38.519531 C 58.027344 38.519531 58.195312 38.6875 58.195312 38.898438 C 58.195312 39.105469 58.027344 39.277344 57.820312 39.277344 L 48.539062 39.277344 C 47.046875 40.535156 45.269531 41.359375 43.371094 41.8125 C 43.609375 43.015625 43.707031 43.984375 43.398438 44.0625 C 43.058594 44.148438 42.585938 43.21875 42.128906 42.054688 C 41.433594 42.160156 40.726562 42.21875 40.019531 42.238281 C 39.136719 44.578125 38.203125 46.765625 37.789062 46.65625 C 37.402344 46.554688 37.832031 44.441406 38.394531 42.207031 C 35.515625 42.023438 32.652344 41.183594 30.277344 39.875 C 29.929688 39.683594 29.589844 39.484375 29.257812 39.277344 L 16.964844 39.277344 C 16.757812 39.277344 16.589844 39.105469 16.589844 38.898438 C 16.589844 38.6875 16.757812 38.519531 16.964844 38.519531 Z M 47.753906 39.277344 L 42.761719 39.277344 C 42.9375 39.933594 43.117188 40.648438 43.265625 41.324219 C 44.894531 40.9375 46.425781 40.269531 47.753906 39.277344 Z M 42.328125 39.277344 L 41.601562 39.277344 C 42.015625 40.449219 42.433594 41.625 42.851562 42.796875 C 42.925781 42.984375 43.078125 43.546875 43.230469 43.503906 C 43.378906 43.457031 43.214844 42.929688 43.167969 42.703125 C 42.886719 41.558594 42.609375 40.417969 42.328125 39.277344 Z M 41.164062 39.277344 L 41.089844 39.277344 C 40.828125 40.023438 40.523438 40.878906 40.207031 41.730469 C 40.792969 41.710938 41.375 41.660156 41.945312 41.578125 C 41.65625 40.792969 41.378906 39.957031 41.164062 39.277344 Z M 40.511719 39.277344 L 39.71875 39.277344 C 39.3125 40.855469 38.914062 42.433594 38.503906 44.007812 C 38.441406 44.277344 38.316406 44.765625 38.292969 45.058594 C 38.445312 44.804688 38.613281 44.375 38.734375 44.082031 C 39.328125 42.480469 39.921875 40.878906 40.511719 39.277344 Z M 38.902344 39.277344 L 37.355469 39.277344 L 37.148438 39.5625 C 36.941406 39.871094 36.605469 40.429688 36.792969 40.742188 C 37.25 41.519531 38.132812 40.304688 38.503906 39.808594 C 38.636719 39.632812 38.769531 39.453125 38.902344 39.277344 Z M 36.910156 39.277344 L 34.105469 39.277344 C 33.804688 39.277344 33.5 39.277344 33.199219 39.277344 L 30.191406 39.277344 C 30.28125 39.328125 30.371094 39.378906 30.460938 39.429688 C 32.804688 40.722656 35.65625 41.550781 38.519531 41.714844 C 38.703125 41 38.898438 40.292969 39.078125 39.644531 C 38.980469 39.769531 38.882812 39.898438 38.789062 40.027344 C 38.195312 40.820312 37.082031 42.109375 36.445312 41.03125 C 36.160156 40.550781 36.523438 39.847656 36.859375 39.351562 C 36.863281 39.34375 36.878906 39.320312 36.910156 39.277344 Z M 57.820312 30.253906 C 57.820312 30.253906 16.964844 30.253906 16.964844 30.253906 C 16.757812 30.253906 16.589844 30.082031 16.589844 29.875 C 16.589844 29.664062 16.757812 29.492188 16.964844 29.492188 L 20.519531 29.492188 C 17.914062 23.925781 17.742188 17.386719 21.339844 11.566406 C 25.984375 4.039062 34.460938 2.300781 41.996094 6.152344 C 45.292969 8.277344 47.277344 11.832031 45.003906 15.605469 C 43.585938 17.957031 38.664062 18.84375 40.191406 23.113281 C 40.703125 24.539062 41.664062 25.363281 42.816406 25.953125 C 43.617188 23.136719 44.457031 20.316406 45.371094 17.472656 C 45.902344 16.03125 45.988281 15.765625 46.628906 14.710938 C 46.472656 10.96875 46.808594 10.140625 49.070312 6.789062 C 49.367188 6.351562 51.054688 3.554688 51.105469 3.527344 C 52.007812 3.097656 51.34375 4.652344 51.289062 4.875 C 50.953125 6.261719 50.859375 7.144531 50.824219 8.546875 C 50.757812 11.40625 50.464844 12.972656 49.03125 15.488281 C 48.789062 17.703125 47.230469 22.429688 45.582031 27.027344 C 45.660156 27.054688 45.742188 27.082031 45.820312 27.109375 C 47.464844 24.871094 48.769531 23.101562 49.085938 22.683594 C 49.4375 20.992188 49.164062 20.453125 50.425781 19.019531 C 50.808594 18.382812 52.703125 15.921875 52.839844 15.75 C 52.988281 15.566406 53.160156 15.453125 53.363281 15.4375 C 53.742188 15.414062 56.199219 17.417969 56.46875 17.652344 C 56.609375 17.773438 56.675781 17.933594 56.636719 18.160156 C 56.578125 18.554688 54.273438 21.519531 54.058594 21.769531 C 53.855469 22.003906 53.59375 22.371094 53.382812 22.636719 C 52.867188 23.269531 51.53125 23.800781 50.953125 24.042969 C 50.949219 24.050781 50.945312 24.054688 50.9375 24.0625 C 49.957031 25.378906 48.964844 26.6875 47.964844 27.996094 C 48.453125 28.25 48.910156 28.550781 49.324219 28.917969 C 49.511719 29.105469 49.65625 29.28125 49.761719 29.449219 L 49.757812 29.492188 L 57.820312 29.492188 C 58.027344 29.492188 58.195312 29.664062 58.195312 29.875 C 58.195312 30.082031 58.027344 30.253906 57.820312 30.253906 Z M 21.015625 29.492188 L 27.5 29.492188 C 28.640625 28.753906 29.746094 28.71875 30.59375 29.492188 L 37.886719 29.492188 C 37.277344 27.601562 36.691406 25.691406 36.121094 23.746094 C 35.851562 22.644531 35.789062 22.445312 35.75 21.539062 C 34.09375 19.320312 33.960938 18.679688 33.960938 15.691406 C 33.960938 15.304688 33.839844 12.894531 33.859375 12.859375 C 34.238281 12.21875 34.472656 13.445312 34.535156 13.601562 C 34.90625 14.585938 35.214844 15.164062 35.777344 16.03125 C 36.925781 17.804688 37.394531 18.878906 37.558594 21.011719 C 38.332031 22.464844 39.359375 26.003906 40.277344 29.492188 L 41.828125 29.492188 C 42.109375 28.46875 42.394531 27.441406 42.683594 26.417969 C 38.796875 24.140625 38.046875 19.777344 42.648438 17.167969 C 46.421875 15.03125 46.382812 9.894531 42.757812 7.207031 C 36.011719 2.207031 26.152344 4.660156 21.707031 11.859375 C 18.164062 17.601562 18.390625 24.039062 21.015625 29.492188 Z M 38.253906 29.492188 L 39.875 29.492188 C 39.296875 27.304688 38.6875 25.117188 38.164062 23.546875 C 37.675781 24.0625 37.292969 24.203125 36.597656 24.007812 C 36.960938 25.417969 37.5625 27.371094 38.253906 29.492188 Z M 42.304688 29.492188 L 44.15625 29.492188 L 44.335938 28.992188 C 45.566406 25.628906 46.8125 22.238281 47.785156 18.796875 C 46.851562 19.007812 46.328125 18.875 45.695312 18.128906 C 44.988281 20.117188 44.121094 23.007812 43.230469 26.15625 C 42.917969 27.265625 42.609375 28.378906 42.304688 29.492188 Z M 44.6875 29.492188 L 46.367188 29.492188 C 47.753906 27.6875 49.136719 25.871094 50.503906 24.046875 C 49.941406 23.726562 49.679688 23.542969 49.222656 23.078125 C 47.765625 25.070312 46.308594 27.058594 44.847656 29.046875 C 44.796875 29.199219 44.742188 29.347656 44.6875 29.492188 Z M 46.820312 29.492188 L 49.257812 29.492188 C 48.789062 29.03125 48.246094 28.679688 47.660156 28.394531 C 47.382812 28.761719 47.101562 29.128906 46.820312 29.492188 Z M 45.398438 27.539062 L 45.292969 27.828125 L 45.484375 27.570312 Z M 49.433594 22.625 C 49.636719 22.761719 49.867188 23.078125 50.070312 23.230469 C 50.390625 23.472656 50.53125 23.539062 50.867188 23.726562 C 51.582031 23.332031 52.109375 23.144531 52.839844 22.730469 C 53.148438 22.488281 53.390625 22.132812 53.636719 21.785156 L 53.636719 21.78125 L 53.640625 21.773438 C 52.796875 21.453125 51.246094 20.078125 50.53125 19.394531 C 49.316406 21.046875 49.890625 20.574219 49.433594 22.625 Z M 46.878906 15.394531 C 47.230469 15.636719 47.898438 16.003906 48.402344 15.976562 C 48.394531 16.023438 48.386719 16.074219 48.382812 16.121094 C 48.335938 16.59375 48.195312 17.265625 47.980469 18.078125 C 47.09375 18.273438 46.558594 18.144531 45.949219 17.433594 C 46.238281 16.683594 46.488281 16.113281 46.699219 15.769531 C 46.765625 15.664062 46.828125 15.53125 46.878906 15.394531 Z M 36.1875 21.851562 C 36.507812 21.851562 37.074219 21.796875 37.371094 21.566406 C 37.386719 21.601562 37.402344 21.632812 37.417969 21.664062 C 37.589844 21.972656 37.78125 22.441406 37.984375 23.027344 C 37.519531 23.515625 37.132812 23.65625 36.464844 23.480469 C 36.328125 22.90625 36.246094 22.449219 36.230469 22.152344 C 36.230469 22.058594 36.214844 21.953125 36.1875 21.851562 Z M 24.40625 22.359375 C 25.039062 22.285156 25.675781 22.511719 26.25 23.222656 C 27.488281 24.757812 27.589844 27.453125 25.558594 27.910156 C 23.925781 28.273438 23.4375 28.546875 22.160156 27.0625 C 21.132812 25.867188 20.761719 24.855469 21.808594 23.476562 C 22.515625 22.542969 23.476562 22.179688 24.40625 22.359375 Z M 22.824219 14.445312 C 24.566406 12.292969 27.324219 13.769531 27.859375 16.613281 C 28.089844 17.867188 27.101562 19.257812 25.945312 19.515625 C 24.3125 19.875 23.828125 20.15625 22.546875 18.667969 C 21.515625 17.472656 21.148438 16.460938 22.195312 15.085938 C 22.386719 14.828125 22.601562 14.613281 22.824219 14.445312 Z M 37.761719 9.660156 C 38.46875 8.890625 39.167969 8.351562 40.230469 8.53125 C 42.46875 8.917969 43.640625 13.035156 41.890625 14.203125 C 41.242188 14.632812 39.726562 14.6875 38.988281 14.25 C 38.378906 13.882812 37.171875 12.675781 37.136719 11.769531 C 37.113281 11.1875 37.304688 10.636719 37.632812 10.191406 C 37.609375 10.003906 37.648438 9.8125 37.761719 9.660156 Z M 37.761719 9.660156 " fill-opacity="1" fill-rule="evenodd"/></g></svg>