<svg xmlns="http://www.w3.org/2000/svg" xmlns:xlink="http://www.w3.org/1999/xlink" width="204" zoomAndPan="magnify" viewBox="0 0 153 56.999997" height="76" preserveAspectRatio="xMidYMid meet" version="1.0"><defs><clipPath id="dfe54374e7"><path d="M 59.820312 15.902344 L 82.503906 15.902344 L 82.503906 39.164062 L 59.820312 39.164062 Z M 59.820312 15.902344 " clip-rule="nonzero"/></clipPath><clipPath id="53938a1b71"><path d="M 57.757812 33 L 63 33 L 63 38 L 57.757812 38 Z M 57.757812 33 " clip-rule="nonzero"/></clipPath><clipPath id="6b34d84ce1"><path d="M 61.191406 36.800781 L 65.738281 36.800781 L 65.738281 41.367188 L 61.191406 41.367188 Z M 61.191406 36.800781 " clip-rule="nonzero"/></clipPath></defs><g clip-path="url(#dfe54374e7)"><path fill="#f5e8da" d="M 71.03125 32.628906 C 72.023438 32.109375 73.078125 31.457031 74.136719 30.714844 C 74.558594 33.082031 73.90625 35.609375 72.183594 37.472656 C 72.160156 35.777344 71.761719 34.121094 71.03125 32.628906 Z M 67.222656 33.5 C 66.328125 34.417969 64.910156 34.605469 64.191406 34.636719 C 64.222656 33.90625 64.40625 32.457031 65.304688 31.535156 C 65.707031 31.125 66.128906 30.800781 66.527344 30.5625 L 68.175781 32.246094 C 67.941406 32.660156 67.625 33.089844 67.222656 33.5 Z M 61.421875 26.464844 C 63.242188 24.699219 65.714844 24.03125 68.027344 24.460938 C 67.300781 25.546875 66.664062 26.628906 66.15625 27.640625 C 64.695312 26.890625 63.082031 26.484375 61.421875 26.464844 Z M 81.382812 17.054688 C 81.523438 17.703125 81.796875 19.527344 81.066406 21.710938 L 76.828125 17.375 C 78.953125 16.632812 80.746094 16.910156 81.382812 17.054688 Z M 69.703125 32.199219 C 69.652344 32.222656 69.597656 32.246094 69.542969 32.269531 L 69.335938 32.058594 L 66.507812 29.164062 C 66.53125 29.109375 66.554688 29.054688 66.578125 29 C 66.703125 28.710938 66.839844 28.417969 66.988281 28.117188 C 67.523438 27.035156 68.21875 25.875 69.011719 24.714844 C 69.199219 24.441406 69.394531 24.164062 69.59375 23.890625 C 70.601562 22.5 71.730469 21.140625 72.890625 19.957031 C 73.804688 19.019531 74.808594 18.285156 75.871094 17.773438 L 80.675781 22.691406 C 80.175781 23.777344 79.457031 24.800781 78.542969 25.738281 C 77.382812 26.925781 76.054688 28.082031 74.699219 29.113281 C 74.429688 29.316406 74.160156 29.515625 73.890625 29.707031 C 72.757812 30.519531 71.621094 31.230469 70.566406 31.777344 C 70.273438 31.929688 69.984375 32.070312 69.703125 32.199219 Z M 74.984375 30.101562 C 76.480469 28.988281 77.949219 27.722656 79.214844 26.425781 C 80.300781 25.316406 81.128906 24.089844 81.683594 22.777344 C 83.101562 19.410156 82.261719 16.621094 82.226562 16.503906 C 82.179688 16.355469 82.0625 16.234375 81.917969 16.1875 C 81.800781 16.152344 79.074219 15.292969 75.785156 16.742188 C 74.503906 17.308594 73.300781 18.160156 72.21875 19.269531 C 70.949219 20.566406 69.714844 22.066406 68.628906 23.59375 C 65.835938 22.925781 62.773438 23.699219 60.601562 25.921875 C 60.371094 26.15625 60.148438 26.417969 59.933594 26.695312 C 59.816406 26.847656 59.796875 27.054688 59.886719 27.226562 C 59.980469 27.398438 60.160156 27.496094 60.351562 27.480469 C 62.238281 27.300781 64.097656 27.671875 65.746094 28.519531 C 65.660156 28.714844 65.578125 28.90625 65.503906 29.09375 C 65.433594 29.277344 65.472656 29.484375 65.609375 29.621094 L 65.832031 29.851562 C 65.429688 30.117188 65.023438 30.449219 64.632812 30.847656 C 63.089844 32.425781 63.234375 35.046875 63.242188 35.15625 C 63.25 35.28125 63.300781 35.390625 63.378906 35.46875 C 63.457031 35.550781 63.566406 35.605469 63.6875 35.613281 C 63.792969 35.617188 66.355469 35.765625 67.898438 34.1875 C 68.285156 33.789062 68.613281 33.375 68.871094 32.960938 L 69.097656 33.1875 C 69.230469 33.328125 69.433594 33.371094 69.609375 33.296875 C 69.792969 33.222656 69.980469 33.136719 70.171875 33.050781 C 71 34.734375 71.363281 36.640625 71.1875 38.570312 C 71.175781 38.714844 71.226562 38.859375 71.328125 38.957031 C 71.359375 38.992188 71.394531 39.019531 71.4375 39.042969 C 71.601562 39.132812 71.808594 39.117188 71.957031 38.996094 C 72.230469 38.777344 72.480469 38.546875 72.710938 38.3125 C 74.882812 36.089844 75.640625 32.957031 74.984375 30.101562 " fill-opacity="1" fill-rule="nonzero"/></g><path fill="#f5e8da" d="M 73.789062 24.820312 C 73.21875 24.238281 73.21875 23.292969 73.789062 22.710938 C 74.359375 22.128906 75.285156 22.128906 75.851562 22.710938 C 76.421875 23.292969 76.421875 24.238281 75.851562 24.820312 C 75.285156 25.402344 74.359375 25.402344 73.789062 24.820312 Z M 76.523438 22.019531 C 75.585938 21.058594 74.054688 21.058594 73.117188 22.019531 C 72.175781 22.984375 72.175781 24.546875 73.117188 25.507812 C 74.054688 26.46875 75.585938 26.46875 76.523438 25.507812 C 77.464844 24.546875 77.464844 22.984375 76.523438 22.019531 " fill-opacity="1" fill-rule="nonzero"/><path fill="#f5e8da" d="M 62.351562 36.523438 C 62.164062 36.332031 61.863281 36.332031 61.679688 36.523438 L 58.179688 40.101562 C 57.996094 40.289062 57.996094 40.597656 58.179688 40.789062 C 58.367188 40.980469 58.667969 40.980469 58.851562 40.789062 L 62.351562 37.210938 C 62.539062 37.019531 62.539062 36.710938 62.351562 36.523438 " fill-opacity="1" fill-rule="nonzero"/><path fill="#f5e8da" d="M 63.5625 28.949219 C 63.378906 28.761719 63.074219 28.761719 62.890625 28.949219 L 59.390625 32.527344 C 59.207031 32.71875 59.207031 33.027344 59.390625 33.21875 C 59.578125 33.40625 59.878906 33.40625 60.0625 33.21875 L 63.5625 29.636719 C 63.75 29.449219 63.75 29.140625 63.5625 28.949219 " fill-opacity="1" fill-rule="nonzero"/><g clip-path="url(#53938a1b71)"><path fill="#f5e8da" d="M 62.109375 33.429688 C 61.925781 33.238281 61.625 33.238281 61.4375 33.429688 L 57.9375 37.007812 C 57.753906 37.199219 57.753906 37.507812 57.9375 37.695312 C 58.125 37.886719 58.425781 37.886719 58.613281 37.695312 L 62.109375 34.117188 C 62.296875 33.925781 62.296875 33.621094 62.109375 33.429688 " fill-opacity="1" fill-rule="nonzero"/></g><path fill="#f5e8da" d="M 69.9375 35.472656 C 69.75 35.28125 69.449219 35.28125 69.265625 35.472656 L 65.765625 39.050781 C 65.578125 39.242188 65.578125 39.550781 65.765625 39.738281 C 65.953125 39.929688 66.253906 39.929688 66.4375 39.738281 L 69.9375 36.160156 C 70.121094 35.96875 70.121094 35.660156 69.9375 35.472656 " fill-opacity="1" fill-rule="nonzero"/><g clip-path="url(#6b34d84ce1)"><path fill="#f5e8da" d="M 65.558594 36.957031 C 65.375 36.765625 65.070312 36.765625 64.886719 36.957031 L 61.386719 40.535156 C 61.203125 40.726562 61.203125 41.035156 61.386719 41.226562 C 61.574219 41.414062 61.875 41.414062 62.058594 41.226562 L 65.558594 37.644531 C 65.746094 37.457031 65.746094 37.148438 65.558594 36.957031 " fill-opacity="1" fill-rule="nonzero"/></g></svg>