<svg xmlns="http://www.w3.org/2000/svg" xmlns:xlink="http://www.w3.org/1999/xlink" width="40" zoomAndPan="magnify" viewBox="0 0 30 30.000001" height="40" preserveAspectRatio="xMidYMid meet" version="1.0"><defs><clipPath id="6e5b12d455"><path d="M 5.324219 2.921875 L 26.613281 2.921875 L 26.613281 24.101562 L 5.324219 24.101562 Z M 5.324219 2.921875 " clip-rule="nonzero"/></clipPath><clipPath id="b9abc307c0"><path d="M 3.386719 21 L 8 21 L 8 26 L 3.386719 26 Z M 3.386719 21 " clip-rule="nonzero"/></clipPath><clipPath id="83a1d1777d"><path d="M 3.386719 18 L 8 18 L 8 23 L 3.386719 23 Z M 3.386719 18 " clip-rule="nonzero"/></clipPath><clipPath id="f98afba1e0"><path d="M 6.609375 21.949219 L 10.878906 21.949219 L 10.878906 26.109375 L 6.609375 26.109375 Z M 6.609375 21.949219 " clip-rule="nonzero"/></clipPath></defs><g clip-path="url(#6e5b12d455)"><path fill="#f5e8da" d="M 15.84375 18.152344 C 16.773438 17.679688 17.765625 17.082031 18.761719 16.40625 C 19.15625 18.5625 18.542969 20.867188 16.925781 22.5625 C 16.90625 21.015625 16.53125 19.511719 15.84375 18.152344 Z M 12.269531 18.945312 C 11.429688 19.78125 10.101562 19.949219 9.425781 19.980469 C 9.457031 19.3125 9.625 17.996094 10.472656 17.15625 C 10.847656 16.78125 11.242188 16.488281 11.621094 16.269531 L 13.164062 17.804688 C 12.945312 18.179688 12.648438 18.570312 12.269531 18.945312 Z M 6.828125 12.539062 C 8.535156 10.929688 10.855469 10.324219 13.027344 10.714844 C 12.34375 11.703125 11.746094 12.6875 11.269531 13.609375 C 9.898438 12.929688 8.382812 12.558594 6.828125 12.539062 Z M 25.558594 3.96875 C 25.691406 4.558594 25.949219 6.222656 25.261719 8.210938 L 21.285156 4.261719 C 23.28125 3.585938 24.960938 3.839844 25.558594 3.96875 Z M 14.597656 17.757812 C 14.546875 17.78125 14.5 17.804688 14.449219 17.824219 L 14.253906 17.632812 L 11.597656 14.996094 C 11.621094 14.945312 11.640625 14.894531 11.664062 14.847656 C 11.78125 14.585938 11.910156 14.316406 12.050781 14.042969 C 12.554688 13.058594 13.203125 12.003906 13.949219 10.945312 C 14.125 10.695312 14.308594 10.445312 14.496094 10.195312 C 15.441406 8.929688 16.503906 7.691406 17.589844 6.613281 C 18.449219 5.761719 19.386719 5.09375 20.386719 4.625 L 24.898438 9.101562 C 24.425781 10.09375 23.75 11.023438 22.894531 11.875 C 21.804688 12.957031 20.558594 14.011719 19.285156 14.949219 C 19.035156 15.136719 18.78125 15.316406 18.527344 15.492188 C 17.464844 16.230469 16.398438 16.875 15.410156 17.375 C 15.132812 17.515625 14.863281 17.644531 14.597656 17.757812 Z M 19.554688 15.851562 C 20.957031 14.839844 22.335938 13.683594 23.523438 12.503906 C 24.542969 11.496094 25.320312 10.375 25.839844 9.179688 C 27.171875 6.117188 26.382812 3.574219 26.351562 3.46875 C 26.304688 3.332031 26.199219 3.226562 26.058594 3.179688 C 25.953125 3.148438 23.394531 2.363281 20.304688 3.6875 C 19.101562 4.203125 17.976562 4.976562 16.960938 5.984375 C 15.769531 7.167969 14.609375 8.535156 13.589844 9.925781 C 10.96875 9.316406 8.097656 10.019531 6.054688 12.046875 C 5.84375 12.257812 5.632812 12.496094 5.429688 12.746094 C 5.320312 12.886719 5.304688 13.078125 5.386719 13.234375 C 5.472656 13.390625 5.644531 13.480469 5.820312 13.464844 C 7.589844 13.300781 9.339844 13.636719 10.882812 14.410156 C 10.800781 14.585938 10.726562 14.761719 10.65625 14.933594 C 10.589844 15.097656 10.628906 15.285156 10.757812 15.414062 L 10.964844 15.621094 C 10.585938 15.863281 10.207031 16.167969 9.839844 16.53125 C 8.394531 17.96875 8.527344 20.351562 8.535156 20.453125 C 8.539062 20.566406 8.589844 20.664062 8.664062 20.738281 C 8.738281 20.8125 8.839844 20.859375 8.953125 20.867188 C 9.054688 20.875 11.457031 21.007812 12.902344 19.570312 C 13.269531 19.207031 13.574219 18.832031 13.820312 18.453125 L 14.027344 18.660156 C 14.15625 18.789062 14.34375 18.824219 14.511719 18.757812 C 14.683594 18.691406 14.859375 18.617188 15.039062 18.535156 C 15.816406 20.070312 16.15625 21.804688 15.992188 23.558594 C 15.980469 23.695312 16.027344 23.824219 16.121094 23.914062 C 16.152344 23.945312 16.1875 23.96875 16.222656 23.992188 C 16.382812 24.074219 16.574219 24.058594 16.714844 23.949219 C 16.96875 23.75 17.207031 23.539062 17.421875 23.328125 C 19.460938 21.304688 20.171875 18.453125 19.554688 15.851562 " fill-opacity="1" fill-rule="nonzero"/></g><path fill="#f5e8da" d="M 18.433594 11.039062 C 17.898438 10.511719 17.898438 9.648438 18.433594 9.117188 C 18.964844 8.589844 19.835938 8.589844 20.367188 9.117188 C 20.902344 9.648438 20.902344 10.511719 20.367188 11.039062 C 19.835938 11.570312 18.964844 11.570312 18.433594 11.039062 Z M 21 8.492188 C 20.117188 7.617188 18.683594 7.617188 17.800781 8.492188 C 16.917969 9.367188 16.917969 10.792969 17.800781 11.667969 C 18.683594 12.542969 20.117188 12.542969 21 11.667969 C 21.882812 10.792969 21.882812 9.367188 21 8.492188 " fill-opacity="1" fill-rule="nonzero"/><g clip-path="url(#b9abc307c0)"><path fill="#f5e8da" d="M 7.699219 21.695312 C 7.523438 21.523438 7.242188 21.523438 7.066406 21.695312 L 3.785156 24.957031 C 3.609375 25.128906 3.609375 25.410156 3.785156 25.582031 C 3.960938 25.753906 4.242188 25.753906 4.417969 25.582031 L 7.699219 22.324219 C 7.875 22.148438 7.875 21.871094 7.699219 21.695312 " fill-opacity="1" fill-rule="nonzero"/></g><path fill="#f5e8da" d="M 8.835938 14.800781 C 8.660156 14.628906 8.378906 14.628906 8.203125 14.800781 L 4.921875 18.0625 C 4.746094 18.234375 4.746094 18.515625 4.921875 18.6875 C 5.097656 18.859375 5.378906 18.859375 5.554688 18.6875 L 8.835938 15.429688 C 9.011719 15.253906 9.011719 14.976562 8.835938 14.800781 " fill-opacity="1" fill-rule="nonzero"/><g clip-path="url(#83a1d1777d)"><path fill="#f5e8da" d="M 7.472656 18.878906 C 7.296875 18.707031 7.015625 18.707031 6.839844 18.878906 L 3.558594 22.140625 C 3.382812 22.3125 3.382812 22.59375 3.558594 22.765625 C 3.734375 22.9375 4.015625 22.9375 4.191406 22.765625 L 7.472656 19.507812 C 7.648438 19.332031 7.648438 19.054688 7.472656 18.878906 " fill-opacity="1" fill-rule="nonzero"/></g><path fill="#f5e8da" d="M 14.816406 20.738281 C 14.644531 20.566406 14.359375 20.566406 14.1875 20.738281 L 10.902344 24 C 10.730469 24.171875 10.730469 24.453125 10.902344 24.625 C 11.078125 24.796875 11.359375 24.796875 11.535156 24.625 L 14.816406 21.367188 C 14.992188 21.195312 14.992188 20.914062 14.816406 20.738281 " fill-opacity="1" fill-rule="nonzero"/><g clip-path="url(#f98afba1e0)"><path fill="#f5e8da" d="M 10.707031 22.09375 C 10.535156 21.917969 10.25 21.917969 10.078125 22.09375 L 6.792969 25.351562 C 6.621094 25.523438 6.621094 25.804688 6.792969 25.980469 C 6.96875 26.152344 7.25 26.152344 7.425781 25.980469 L 10.707031 22.71875 C 10.882812 22.546875 10.882812 22.265625 10.707031 22.09375 " fill-opacity="1" fill-rule="nonzero"/></g></svg>