<svg xmlns="http://www.w3.org/2000/svg" xmlns:xlink="http://www.w3.org/1999/xlink" width="100" zoomAndPan="magnify" viewBox="0 0 75 52.499999" height="70" preserveAspectRatio="xMidYMid meet" version="1.0"><defs><clipPath id="6055bfe3ea"><path d="M 51 7.800781 L 55 7.800781 L 55 10 L 51 10 Z M 51 7.800781 " clip-rule="nonzero"/></clipPath><clipPath id="20c560d6e2"><path d="M 56 32 L 59.535156 32 L 59.535156 35 L 56 35 Z M 56 32 " clip-rule="nonzero"/></clipPath><clipPath id="60051961be"><path d="M 15.703125 14 L 19 14 L 19 17 L 15.703125 17 Z M 15.703125 14 " clip-rule="nonzero"/></clipPath><clipPath id="27e2af87ff"><path d="M 21 41 L 24 41 L 24 44.203125 L 21 44.203125 Z M 21 41 " clip-rule="nonzero"/></clipPath></defs><path fill="#f5e8da" d="M 33.355469 27.34375 C 32.976562 27.34375 32.621094 27.164062 32.429688 26.878906 C 32.3125 26.703125 32.210938 26.421875 32.300781 26.023438 C 32.15625 26.027344 32.023438 26.035156 31.902344 26.039062 C 31.378906 26.066406 30.988281 26.082031 30.316406 26.074219 C 30.175781 26.070312 30.109375 26 30.113281 25.859375 C 30.125 25.480469 30.167969 25.140625 30.207031 24.8125 C 30.234375 24.5625 30.265625 24.324219 30.28125 24.066406 C 30.277344 24.066406 30.273438 24.066406 30.269531 24.066406 C 29.738281 24.050781 28.640625 24.019531 28.617188 22.84375 C 28.601562 22.480469 28.71875 22.167969 28.96875 21.902344 C 29.308594 21.558594 29.851562 21.449219 30.34375 21.628906 C 30.511719 20.855469 30.511719 20.085938 30.351562 19.3125 C 30.34375 19.292969 30.335938 19.273438 30.335938 19.253906 C 30.328125 19.1875 30.347656 19.128906 30.394531 19.078125 C 30.476562 18.996094 30.566406 18.988281 30.664062 19.054688 C 30.761719 19.070312 30.992188 19.089844 31.199219 19.105469 C 31.625 19.136719 32.160156 19.179688 32.523438 19.257812 C 32.59375 19.273438 32.644531 19.3125 32.671875 19.378906 C 32.699219 19.441406 32.695312 19.503906 32.660156 19.566406 C 32.507812 19.816406 32.46875 20.3125 32.660156 20.644531 C 32.824219 20.933594 33.121094 21.050781 33.558594 20.988281 C 33.957031 20.933594 34.023438 20.453125 34.074219 19.824219 C 34.082031 19.695312 34.09375 19.574219 34.105469 19.46875 C 34.125 19.339844 34.203125 19.28125 34.335938 19.292969 C 34.636719 19.324219 34.960938 19.347656 35.308594 19.371094 C 35.792969 19.402344 36.296875 19.433594 36.753906 19.5 C 36.878906 19.515625 36.9375 19.585938 36.933594 19.710938 C 36.921875 19.949219 36.917969 20.1875 36.914062 20.425781 C 36.898438 21.023438 36.886719 21.644531 36.800781 22.246094 C 36.789062 22.304688 36.761719 22.351562 36.714844 22.386719 C 36.664062 22.421875 36.609375 22.429688 36.550781 22.417969 C 36.203125 22.347656 35.726562 22.5 35.53125 22.75 C 35.4375 22.859375 35.410156 22.980469 35.445312 23.117188 C 35.550781 23.554688 35.90625 23.785156 36.5625 23.84375 C 36.65625 23.851562 36.71875 23.902344 36.742188 23.996094 C 36.917969 24.636719 36.765625 25.558594 36.714844 25.824219 C 36.695312 25.925781 36.636719 25.980469 36.535156 25.992188 C 35.941406 26.070312 35.34375 26.113281 34.746094 26.117188 C 34.605469 26.117188 34.472656 26.113281 34.347656 26.109375 C 34.417969 26.511719 34.3125 26.78125 34.191406 26.945312 C 34.011719 27.199219 33.707031 27.34375 33.355469 27.34375 Z M 32.589844 25.597656 C 32.664062 25.597656 32.71875 25.628906 32.761719 25.691406 C 32.800781 25.753906 32.808594 25.816406 32.78125 25.886719 C 32.648438 26.195312 32.648438 26.457031 32.777344 26.648438 C 32.890625 26.824219 33.113281 26.929688 33.355469 26.929688 C 33.570312 26.929688 33.753906 26.847656 33.855469 26.703125 C 33.980469 26.527344 33.988281 26.265625 33.878906 25.945312 C 33.855469 25.875 33.867188 25.808594 33.914062 25.75 C 33.960938 25.691406 34.023438 25.664062 34.097656 25.675781 C 34.621094 25.734375 35.457031 25.703125 36.332031 25.601562 C 36.402344 25.179688 36.441406 24.632812 36.375 24.234375 C 35.632812 24.136719 35.183594 23.792969 35.042969 23.214844 C 34.972656 22.949219 35.027344 22.707031 35.203125 22.496094 C 35.457031 22.175781 35.945312 21.96875 36.414062 21.988281 C 36.476562 21.472656 36.488281 20.9375 36.5 20.417969 C 36.503906 20.238281 36.507812 20.058594 36.511719 19.882812 C 36.117188 19.835938 35.695312 19.808594 35.28125 19.78125 C 35.007812 19.761719 34.746094 19.746094 34.496094 19.722656 C 34.492188 19.765625 34.488281 19.8125 34.484375 19.855469 C 34.441406 20.429688 34.375 21.289062 33.617188 21.398438 C 33.019531 21.480469 32.546875 21.28125 32.300781 20.847656 C 32.085938 20.46875 32.078125 19.980469 32.1875 19.617188 C 31.875 19.570312 31.488281 19.539062 31.167969 19.515625 C 31.015625 19.503906 30.898438 19.492188 30.808594 19.484375 C 30.9375 20.324219 30.898438 21.152344 30.6875 21.972656 C 30.671875 22.039062 30.632812 22.085938 30.566406 22.109375 C 30.503906 22.136719 30.445312 22.132812 30.386719 22.101562 C 29.996094 21.878906 29.535156 21.921875 29.265625 22.191406 C 29.105469 22.355469 29.027344 22.578125 29.03125 22.835938 C 29.046875 23.558594 29.605469 23.636719 30.28125 23.65625 C 30.371094 23.65625 30.453125 23.660156 30.519531 23.667969 C 30.652344 23.679688 30.714844 23.75 30.707031 23.878906 C 30.691406 24.230469 30.65625 24.550781 30.617188 24.863281 C 30.585938 25.117188 30.554688 25.382812 30.535156 25.664062 C 31.074219 25.664062 31.425781 25.652344 31.882812 25.628906 C 32.085938 25.621094 32.3125 25.609375 32.582031 25.597656 Z M 32.589844 25.597656 " fill-opacity="1" fill-rule="nonzero"/><path fill="#f5e8da" d="M 42.679688 26.328125 L 42.671875 26.328125 C 42.183594 26.308594 41.273438 26.265625 40.65625 26.179688 C 40.511719 26.160156 40.453125 26.078125 40.480469 25.9375 C 40.546875 25.582031 40.445312 25.289062 40.203125 25.113281 C 39.929688 24.925781 39.648438 24.90625 39.355469 25.054688 C 39.1875 25.148438 38.992188 25.351562 39.023438 25.785156 C 39.027344 25.84375 39.007812 25.898438 38.964844 25.941406 C 38.921875 25.984375 38.867188 26.003906 38.808594 26.003906 C 38.367188 25.988281 36.960938 25.976562 36.609375 25.980469 C 36.476562 25.976562 36.410156 25.910156 36.398438 25.777344 C 36.398438 25.640625 36.464844 25.570312 36.605469 25.570312 C 36.914062 25.566406 38.03125 25.574219 38.609375 25.585938 C 38.640625 25.191406 38.832031 24.875 39.152344 24.695312 C 39.359375 24.585938 39.578125 24.539062 39.808594 24.554688 C 40.042969 24.570312 40.253906 24.644531 40.445312 24.777344 C 40.765625 25.007812 40.933594 25.371094 40.914062 25.796875 C 41.414062 25.855469 42.042969 25.890625 42.484375 25.910156 C 42.492188 25.761719 42.503906 25.617188 42.519531 25.46875 C 42.546875 25.121094 42.578125 24.761719 42.570312 24.402344 C 42.050781 24.265625 41.460938 24.066406 41.519531 23.308594 C 41.539062 22.972656 41.675781 22.695312 41.933594 22.476562 C 42.183594 22.265625 42.539062 22.152344 42.921875 22.152344 C 42.964844 21.683594 43.007812 20.777344 43.023438 20.378906 C 42.433594 20.328125 41.59375 20.28125 41.359375 20.335938 C 41.277344 20.351562 41.207031 20.328125 41.152344 20.261719 C 41.097656 20.195312 41.089844 20.121094 41.128906 20.046875 C 41.289062 19.710938 41.398438 19.25 41.015625 18.964844 C 40.644531 18.683594 39.953125 18.691406 39.625 18.980469 C 39.417969 19.164062 39.414062 19.425781 39.605469 19.753906 C 39.644531 19.828125 39.644531 19.898438 39.601562 19.964844 C 39.558594 20.035156 39.496094 20.070312 39.414062 20.066406 C 38.894531 20.035156 36.675781 19.964844 36.652344 19.960938 C 36.519531 19.957031 36.453125 19.886719 36.453125 19.753906 C 36.457031 19.617188 36.527344 19.550781 36.660156 19.550781 L 36.667969 19.550781 C 36.746094 19.554688 38.308594 19.605469 39.101562 19.636719 C 38.941406 19.117188 39.210938 18.800781 39.351562 18.675781 C 39.824219 18.257812 40.738281 18.238281 41.265625 18.632812 C 41.460938 18.777344 41.839844 19.171875 41.625 19.902344 C 42.207031 19.890625 43.132812 19.976562 43.261719 19.988281 C 43.390625 20 43.453125 20.074219 43.449219 20.203125 C 43.445312 20.273438 43.375 21.933594 43.3125 22.394531 C 43.292969 22.523438 43.214844 22.582031 43.085938 22.570312 C 42.738281 22.535156 42.40625 22.621094 42.199219 22.792969 C 42.03125 22.9375 41.941406 23.117188 41.933594 23.339844 C 41.898438 23.761719 42.167969 23.875 42.78125 24.03125 L 42.824219 24.042969 C 42.925781 24.066406 42.976562 24.128906 42.980469 24.230469 C 43 24.664062 42.964844 25.09375 42.929688 25.503906 C 42.914062 25.714844 42.894531 25.921875 42.886719 26.132812 C 42.878906 26.265625 42.808594 26.328125 42.679688 26.328125 Z M 42.679688 26.328125 " fill-opacity="1" fill-rule="nonzero"/><path fill="#f5e8da" d="M 41.523438 32.0625 C 41.097656 32.058594 40.675781 32.027344 40.257812 31.96875 C 40.121094 31.953125 40.0625 31.875 40.078125 31.738281 C 40.097656 31.601562 40.175781 31.542969 40.3125 31.5625 C 41.171875 31.675781 41.710938 31.660156 42.113281 31.621094 C 42.148438 31.125 42.171875 29.949219 42.132812 29.738281 C 42.117188 29.65625 42.140625 29.589844 42.203125 29.539062 C 42.265625 29.488281 42.335938 29.476562 42.414062 29.507812 C 42.90625 29.703125 43.300781 29.667969 43.527344 29.402344 C 43.730469 29.167969 43.753906 28.792969 43.582031 28.507812 C 43.386719 28.179688 42.980469 28.054688 42.46875 28.164062 C 42.394531 28.183594 42.332031 28.164062 42.277344 28.109375 C 42.226562 28.058594 42.207031 27.992188 42.222656 27.921875 C 42.269531 27.707031 42.300781 27.355469 42.332031 27.015625 C 42.363281 26.632812 42.394531 26.273438 42.453125 26.085938 C 42.492188 25.953125 42.578125 25.90625 42.707031 25.945312 C 42.839844 25.984375 42.886719 26.070312 42.847656 26.203125 C 42.804688 26.351562 42.773438 26.707031 42.742188 27.050781 C 42.722656 27.28125 42.703125 27.519531 42.675781 27.71875 C 43.230469 27.679688 43.691406 27.886719 43.9375 28.296875 C 44.199219 28.734375 44.160156 29.300781 43.84375 29.671875 C 43.699219 29.839844 43.304688 30.175781 42.5625 29.988281 C 42.578125 30.566406 42.539062 31.605469 42.511719 31.832031 C 42.5 31.9375 42.441406 32 42.332031 32.011719 C 42.0625 32.046875 41.792969 32.0625 41.523438 32.0625 Z M 41.523438 32.0625 " fill-opacity="1" fill-rule="nonzero"/><path fill="#f5e8da" d="M 38.390625 31.832031 C 38.382812 31.832031 38.375 31.832031 38.367188 31.832031 C 37.167969 31.695312 36.183594 31.554688 35.667969 31.441406 C 35.535156 31.410156 35.480469 31.328125 35.511719 31.195312 C 35.542969 31.0625 35.625 31.007812 35.757812 31.039062 C 36.261719 31.148438 37.226562 31.289062 38.414062 31.421875 C 38.542969 31.433594 38.605469 31.507812 38.597656 31.636719 C 38.589844 31.765625 38.519531 31.832031 38.390625 31.832031 Z M 38.390625 31.832031 " fill-opacity="1" fill-rule="nonzero"/><path fill="#f5e8da" d="M 33.421875 32.875 C 32.867188 32.875 32.289062 32.582031 32.210938 31.992188 C 32.191406 31.828125 32.234375 31.65625 32.269531 31.507812 C 32.3125 31.339844 32.328125 31.246094 32.308594 31.210938 C 32.21875 31.207031 32.007812 31.222656 31.898438 31.226562 C 31.804688 31.234375 31.722656 31.238281 31.6875 31.238281 L 31.476562 31.238281 C 30.984375 31.238281 30.429688 31.238281 29.949219 31.050781 C 29.863281 31.019531 29.816406 30.953125 29.816406 30.863281 C 29.804688 29.253906 30.066406 26.28125 30.121094 25.703125 C 30.132812 25.5625 30.207031 25.503906 30.34375 25.515625 C 30.484375 25.527344 30.546875 25.601562 30.53125 25.738281 C 30.394531 27.269531 30.234375 29.453125 30.230469 30.714844 C 30.609375 30.828125 31.050781 30.824219 31.476562 30.828125 L 31.691406 30.828125 C 31.722656 30.824219 31.792969 30.824219 31.871094 30.816406 C 32.273438 30.792969 32.402344 30.792969 32.492188 30.839844 C 32.820312 31.015625 32.730469 31.371094 32.671875 31.609375 C 32.640625 31.730469 32.609375 31.851562 32.621094 31.941406 C 32.679688 32.375 33.210938 32.488281 33.527344 32.457031 C 34.113281 32.402344 34.171875 32.03125 34.195312 31.433594 C 34.199219 31.328125 34.203125 31.226562 34.214844 31.132812 C 34.222656 31.039062 34.273438 30.980469 34.367188 30.957031 C 34.710938 30.867188 35.050781 30.929688 35.378906 30.992188 C 35.492188 31.011719 35.601562 31.03125 35.707031 31.046875 C 35.75 30.773438 35.796875 30.503906 35.84375 30.234375 C 35.90625 29.867188 35.96875 29.5 36.019531 29.132812 C 36.03125 29.054688 36.074219 29 36.148438 28.96875 C 36.222656 28.941406 36.292969 28.949219 36.355469 29 C 36.539062 29.148438 36.949219 29.273438 37.257812 29.21875 C 37.738281 29.132812 37.820312 28.773438 37.832031 28.621094 C 37.878906 28.007812 37.539062 27.816406 37.242188 27.765625 C 37.074219 27.734375 36.902344 27.765625 36.765625 27.785156 C 36.609375 27.8125 36.472656 27.835938 36.363281 27.746094 C 36.304688 27.699219 36.273438 27.632812 36.273438 27.554688 C 36.261719 27.054688 36.304688 26.011719 36.328125 25.730469 C 36.339844 25.589844 36.414062 25.527344 36.554688 25.542969 C 36.691406 25.554688 36.753906 25.628906 36.742188 25.765625 C 36.71875 26.007812 36.683594 26.867188 36.683594 27.382812 C 36.6875 27.382812 36.691406 27.382812 36.699219 27.382812 C 36.855469 27.355469 37.078125 27.316406 37.316406 27.359375 C 37.953125 27.472656 38.300781 27.957031 38.246094 28.65625 C 38.203125 29.160156 37.855469 29.53125 37.328125 29.625 C 37.007812 29.679688 36.65625 29.609375 36.382812 29.492188 C 36.34375 29.761719 36.296875 30.03125 36.25 30.300781 C 36.195312 30.632812 36.136719 30.964844 36.089844 31.296875 C 36.066406 31.417969 35.996094 31.476562 35.875 31.472656 C 35.683594 31.460938 35.492188 31.4375 35.304688 31.398438 C 35.0625 31.351562 34.828125 31.308594 34.613281 31.332031 C 34.613281 31.367188 34.609375 31.410156 34.609375 31.449219 C 34.585938 31.976562 34.554688 32.773438 33.566406 32.867188 C 33.519531 32.871094 33.46875 32.875 33.421875 32.875 Z M 33.421875 32.875 " fill-opacity="1" fill-rule="nonzero"/><path fill="#f5e8da" d="M 40.257812 32.011719 C 40.25 32.011719 40.246094 32.011719 40.238281 32.011719 C 40.101562 32 40.039062 31.925781 40.050781 31.789062 L 40.058594 31.730469 C 40.085938 31.429688 40.117188 31.085938 39.851562 30.84375 C 39.660156 30.667969 39.320312 30.5 39.09375 30.519531 C 38.800781 30.542969 38.617188 30.628906 38.550781 30.777344 C 38.453125 30.980469 38.433594 31.347656 38.5 31.402344 C 38.617188 31.472656 38.644531 31.566406 38.574219 31.683594 C 38.503906 31.804688 38.410156 31.828125 38.292969 31.761719 C 37.898438 31.539062 38.070312 30.824219 38.171875 30.601562 C 38.308594 30.3125 38.605469 30.148438 39.058594 30.109375 C 39.441406 30.074219 39.878906 30.308594 40.132812 30.539062 C 40.550781 30.921875 40.5 31.429688 40.46875 31.765625 L 40.464844 31.824219 C 40.453125 31.949219 40.382812 32.011719 40.257812 32.011719 Z M 40.257812 32.011719 " fill-opacity="1" fill-rule="nonzero"/><path fill="#f5e8da" d="M 44.035156 11.859375 L 43.785156 11.632812 C 43.832031 11.582031 43.890625 11.511719 43.957031 11.433594 C 44.210938 11.121094 44.597656 10.648438 44.996094 10.484375 C 45.46875 10.292969 46.03125 10.339844 46.519531 10.414062 L 47.074219 10.496094 C 47.867188 10.617188 48.851562 10.765625 49.488281 10.839844 C 50.03125 10.898438 50.46875 10.742188 51.03125 10.445312 L 51.1875 10.742188 C 50.582031 11.058594 50.078125 11.242188 49.449219 11.171875 C 48.808594 11.097656 47.820312 10.949219 47.023438 10.828125 L 46.46875 10.746094 C 46.027344 10.679688 45.523438 10.632812 45.125 10.796875 C 44.808594 10.925781 44.453125 11.359375 44.214844 11.644531 C 44.144531 11.730469 44.085938 11.804688 44.035156 11.859375 Z M 44.035156 11.859375 " fill-opacity="1" fill-rule="nonzero"/><path fill="#f5e8da" d="M 44.164062 20.390625 L 44.113281 20.367188 C 43.652344 20.125 43.523438 19.792969 43.496094 19.558594 C 43.4375 19.054688 43.785156 18.511719 44.152344 18.191406 C 44.3125 18.054688 44.648438 17.753906 45.007812 17.429688 C 45.652344 16.851562 46.113281 16.441406 46.308594 16.28125 C 46.199219 14.527344 45.144531 14.253906 44.6875 14.21875 C 44.492188 14.210938 42.59375 14.472656 42.257812 14.566406 C 42.1875 14.726562 41.996094 15.277344 41.84375 15.730469 C 41.578125 16.507812 41.394531 17.027344 41.308594 17.183594 C 41.09375 17.558594 40.582031 17.785156 40.199219 17.835938 C 39.894531 17.878906 39.644531 17.816406 39.5 17.667969 C 39.433594 17.601562 39.4375 17.503906 39.449219 17.382812 C 39.5 16.90625 40.199219 13.570312 40.578125 13.3125 C 41.882812 12.433594 43.992188 11.542969 44.609375 11.292969 L 44.738281 11.601562 C 44.128906 11.851562 42.046875 12.730469 40.769531 13.589844 C 40.539062 13.835938 39.792969 16.9375 39.78125 17.464844 C 39.859375 17.511719 39.992188 17.527344 40.152344 17.503906 C 40.515625 17.457031 40.886719 17.25 41.015625 17.019531 C 41.09375 16.878906 41.332031 16.183594 41.523438 15.621094 C 41.941406 14.402344 41.96875 14.351562 42.042969 14.296875 C 42.242188 14.15625 44.582031 13.875 44.703125 13.886719 C 45.144531 13.917969 46.558594 14.195312 46.652344 16.351562 L 46.65625 16.445312 L 46.578125 16.5 C 46.472656 16.570312 45.757812 17.210938 45.234375 17.679688 C 44.871094 18.007812 44.535156 18.308594 44.375 18.445312 C 44.082031 18.699219 43.789062 19.140625 43.832031 19.523438 C 43.855469 19.730469 43.984375 19.902344 44.214844 20.039062 C 44.785156 19.832031 48.410156 17.554688 49.183594 16.972656 C 49.507812 16.730469 50.242188 16.058594 50.78125 15.570312 C 51.007812 15.363281 51.203125 15.183594 51.332031 15.070312 C 51.804688 14.652344 53.097656 13.910156 53.167969 13.878906 L 53.292969 14.191406 C 53.214844 14.230469 51.988281 14.9375 51.554688 15.320312 C 51.429688 15.429688 51.234375 15.609375 51.007812 15.816406 C 50.433594 16.335938 49.722656 16.988281 49.386719 17.238281 C 48.800781 17.679688 44.710938 20.308594 44.21875 20.382812 Z M 44.164062 20.390625 " fill-opacity="1" fill-rule="nonzero"/><path fill="#f5e8da" d="M 44.339844 18.367188 C 44.152344 18.339844 43.582031 18.050781 43.464844 17.933594 C 43.40625 17.875 43.28125 17.648438 42.882812 16.90625 C 42.667969 16.507812 42.449219 16.097656 42.351562 15.945312 C 42.214844 15.730469 42.398438 15.25 42.828125 14.316406 L 42.898438 14.171875 L 43.203125 14.308594 L 43.136719 14.457031 C 42.988281 14.773438 42.601562 15.605469 42.644531 15.78125 C 42.738281 15.929688 42.953125 16.328125 43.179688 16.75 C 43.378906 17.121094 43.652344 17.632812 43.707031 17.703125 C 43.777344 17.765625 44.273438 18.019531 44.382812 18.035156 Z M 44.339844 18.367188 " fill-opacity="1" fill-rule="nonzero"/><path fill="#f5e8da" d="M 45.285156 17.523438 C 45.257812 17.507812 45.1875 17.480469 45.109375 17.449219 C 44.910156 17.367188 44.753906 17.304688 44.675781 17.25 L 44.636719 17.222656 L 44.617188 17.179688 C 44.585938 17.109375 44.546875 17.03125 44.507812 16.945312 C 44.335938 16.585938 44.105469 16.089844 44.023438 15.738281 L 44.007812 15.683594 L 44.03125 15.628906 C 44.269531 15.117188 44.515625 14.636719 44.777344 14.132812 L 44.828125 14.035156 L 45.128906 14.1875 L 45.078125 14.285156 C 44.828125 14.769531 44.589844 15.230469 44.363281 15.714844 C 44.449219 16.03125 44.65625 16.476562 44.8125 16.804688 C 44.84375 16.871094 44.875 16.933594 44.902344 16.992188 C 44.980469 17.035156 45.128906 17.09375 45.234375 17.136719 C 45.332031 17.175781 45.414062 17.210938 45.445312 17.226562 Z M 45.285156 17.523438 " fill-opacity="1" fill-rule="nonzero"/><path fill="#f5e8da" d="M 46.308594 16.046875 C 46.234375 16.019531 46.175781 16.003906 46.109375 15.988281 C 45.894531 15.929688 45.6875 15.855469 45.488281 15.757812 L 45.359375 15.695312 L 45.394531 15.5625 C 45.417969 15.480469 45.453125 15.386719 45.488281 15.277344 C 45.570312 15.066406 45.632812 14.847656 45.679688 14.625 L 46.011719 14.6875 C 45.960938 14.925781 45.894531 15.160156 45.808594 15.386719 C 45.792969 15.433594 45.777344 15.472656 45.765625 15.511719 C 45.90625 15.574219 46.050781 15.625 46.199219 15.664062 C 46.269531 15.683594 46.339844 15.703125 46.421875 15.730469 Z M 46.308594 16.046875 " fill-opacity="1" fill-rule="nonzero"/><path fill="#f5e8da" d="M 45.792969 17.183594 C 45.679688 17.171875 44.800781 17.042969 44.566406 16.925781 L 44.722656 16.628906 C 44.871094 16.703125 45.664062 16.835938 45.820312 16.847656 Z M 45.792969 17.183594 " fill-opacity="1" fill-rule="nonzero"/><path fill="#f5e8da" d="M 53.089844 15.300781 C 52.839844 15.300781 52.519531 15.105469 52.152344 14.722656 L 52.394531 14.492188 C 52.796875 14.910156 53.054688 15 53.128906 14.957031 C 53.300781 14.859375 53.207031 13.949219 52.402344 12.476562 C 51.65625 11.113281 50.878906 10.511719 50.605469 10.597656 C 50.578125 10.605469 50.53125 10.703125 50.554688 10.953125 L 50.21875 10.984375 C 50.171875 10.492188 50.347656 10.328125 50.503906 10.277344 C 51.140625 10.074219 52.0625 11.152344 52.699219 12.316406 C 53.328125 13.46875 53.863281 14.929688 53.292969 15.25 C 53.230469 15.285156 53.160156 15.300781 53.089844 15.300781 Z M 53.089844 15.300781 " fill-opacity="1" fill-rule="nonzero"/><path fill="#f5e8da" d="M 54.566406 15.285156 C 54.335938 15.285156 54.042969 15.097656 53.679688 14.726562 L 53.921875 14.492188 C 54.355469 14.933594 54.554688 14.960938 54.585938 14.945312 C 54.621094 14.925781 54.707031 14.71875 54.507812 14.046875 C 54.335938 13.453125 54.007812 12.71875 53.585938 11.976562 C 53.164062 11.234375 52.699219 10.578125 52.277344 10.125 C 51.800781 9.609375 51.574219 9.574219 51.542969 9.59375 C 51.523438 9.605469 51.472656 9.695312 51.5 9.953125 L 51.167969 9.988281 C 51.128906 9.632812 51.199219 9.402344 51.375 9.304688 C 51.640625 9.15625 52.015625 9.347656 52.523438 9.894531 C 52.960938 10.367188 53.441406 11.046875 53.878906 11.8125 C 54.3125 12.574219 54.652344 13.335938 54.832031 13.953125 C 55.042969 14.667969 55.015625 15.085938 54.753906 15.234375 C 54.695312 15.269531 54.632812 15.285156 54.566406 15.285156 Z M 54.566406 15.285156 " fill-opacity="1" fill-rule="nonzero"/><path fill="#f5e8da" d="M 50.472656 10.292969 L 51.890625 9.519531 L 52.050781 9.8125 L 50.636719 10.585938 Z M 50.472656 10.292969 " fill-opacity="1" fill-rule="nonzero"/><path fill="#f5e8da" d="M 53.125 14.960938 L 54.597656 14.085938 L 54.769531 14.375 L 53.296875 15.25 Z M 53.125 14.960938 " fill-opacity="1" fill-rule="nonzero"/><g clip-path="url(#6055bfe3ea)"><path fill="#f5e8da" d="M 51.460938 9.265625 L 54.125 7.800781 L 54.289062 8.09375 L 51.625 9.558594 Z M 51.460938 9.265625 " fill-opacity="1" fill-rule="nonzero"/></g><path fill="#f5e8da" d="M 54.550781 14.992188 L 57.214844 13.527344 L 57.378906 13.820312 L 54.714844 15.285156 Z M 54.550781 14.992188 " fill-opacity="1" fill-rule="nonzero"/><path fill="#f5e8da" d="M 53.851562 14.15625 C 53.667969 14.15625 53.5 13.984375 53.457031 13.75 C 53.433594 13.636719 53.441406 13.53125 53.480469 13.425781 C 53.523438 13.308594 53.605469 13.238281 53.730469 13.210938 L 53.785156 13.203125 C 53.96875 13.203125 54.136719 13.378906 54.179688 13.613281 C 54.230469 13.878906 54.109375 14.117188 53.90625 14.152344 Z M 53.792969 13.554688 C 53.78125 13.597656 53.777344 13.640625 53.785156 13.6875 C 53.792969 13.734375 53.8125 13.777344 53.84375 13.8125 C 53.855469 13.765625 53.855469 13.722656 53.847656 13.675781 C 53.839844 13.628906 53.824219 13.589844 53.792969 13.554688 Z M 53.792969 13.554688 " fill-opacity="1" fill-rule="nonzero"/><path fill="#f5e8da" d="M 55.472656 33.0625 C 54.882812 32.714844 54.464844 32.382812 54.195312 31.8125 C 53.921875 31.230469 53.535156 30.308594 53.222656 29.570312 L 53.007812 29.0625 C 52.832031 28.652344 52.609375 28.199219 52.261719 27.949219 C 51.984375 27.746094 51.425781 27.671875 51.058594 27.621094 C 50.949219 27.605469 50.851562 27.59375 50.78125 27.578125 L 50.84375 27.25 C 50.910156 27.261719 51 27.273438 51.105469 27.289062 C 51.507812 27.34375 52.113281 27.425781 52.460938 27.679688 C 52.871094 27.976562 53.125 28.480469 53.316406 28.933594 L 53.53125 29.4375 C 53.84375 30.175781 54.230469 31.09375 54.5 31.671875 C 54.734375 32.167969 55.097656 32.453125 55.644531 32.777344 Z M 55.472656 33.0625 " fill-opacity="1" fill-rule="nonzero"/><path fill="#f5e8da" d="M 53.617188 36.648438 C 53.539062 36.601562 52.292969 35.933594 51.738281 35.765625 C 51.578125 35.714844 51.324219 35.644531 51.035156 35.5625 C 50.285156 35.347656 49.355469 35.082031 48.960938 34.925781 C 48.277344 34.660156 43.886719 32.566406 43.566406 32.183594 L 43.527344 32.140625 L 43.527344 32.085938 C 43.492188 31.570312 43.707031 31.289062 43.894531 31.144531 C 44.296875 30.832031 44.945312 30.839844 45.410156 30.988281 C 45.609375 31.050781 46.035156 31.175781 46.5 31.3125 C 47.335938 31.558594 47.933594 31.734375 48.175781 31.816406 C 49.621094 30.808594 49.304688 29.769531 49.097656 29.367188 C 49.003906 29.191406 47.792969 27.726562 47.527344 27.484375 C 47.359375 27.507812 46.785156 27.636719 46.316406 27.742188 C 45.511719 27.921875 44.96875 28.039062 44.792969 28.046875 C 44.351562 28.066406 43.894531 27.746094 43.648438 27.445312 C 43.457031 27.207031 43.378906 26.96875 43.429688 26.765625 C 43.453125 26.675781 43.539062 26.628906 43.648438 26.574219 C 44.085938 26.367188 47.308594 25.222656 47.726562 25.40625 C 49.164062 26.054688 51.027344 27.378906 51.566406 27.769531 L 51.367188 28.039062 C 50.835938 27.65625 48.996094 26.347656 47.589844 25.714844 C 47.257812 25.648438 44.210938 26.632812 43.75 26.894531 C 43.753906 26.988281 43.808594 27.109375 43.910156 27.234375 C 44.140625 27.515625 44.507812 27.726562 44.777344 27.710938 C 44.9375 27.707031 45.660156 27.542969 46.242188 27.414062 C 47.503906 27.132812 47.566406 27.128906 47.648438 27.164062 C 47.871094 27.253906 49.332031 29.089844 49.390625 29.203125 C 49.59375 29.597656 50.09375 30.9375 48.292969 32.144531 L 48.214844 32.195312 L 48.128906 32.15625 C 48.011719 32.105469 47.082031 31.832031 46.40625 31.632812 C 45.9375 31.496094 45.507812 31.371094 45.308594 31.304688 C 44.9375 31.1875 44.402344 31.171875 44.101562 31.40625 C 43.9375 31.535156 43.855469 31.738281 43.859375 32 C 44.332031 32.378906 48.179688 34.261719 49.082031 34.617188 C 49.460938 34.765625 50.425781 35.039062 51.128906 35.238281 C 51.421875 35.324219 51.675781 35.394531 51.835938 35.445312 C 52.445312 35.628906 53.753906 36.335938 53.816406 36.378906 Z M 53.617188 36.648438 " fill-opacity="1" fill-rule="nonzero"/><path fill="#f5e8da" d="M 45.359375 31.234375 C 45.28125 31.0625 45.234375 30.429688 45.273438 30.265625 C 45.292969 30.183594 45.417969 29.960938 45.847656 29.238281 C 46.078125 28.847656 46.316406 28.445312 46.398438 28.285156 C 46.511719 28.054688 47.019531 27.960938 48.042969 27.839844 L 48.203125 27.820312 L 48.246094 28.152344 L 48.082031 28.171875 C 47.734375 28.214844 46.816406 28.320312 46.691406 28.445312 C 46.613281 28.605469 46.382812 28.996094 46.136719 29.410156 C 45.921875 29.773438 45.628906 30.269531 45.597656 30.351562 C 45.578125 30.445312 45.621094 30.996094 45.667969 31.097656 Z M 45.359375 31.234375 " fill-opacity="1" fill-rule="nonzero"/><path fill="#f5e8da" d="M 46.574219 31.59375 C 46.574219 31.5625 46.5625 31.492188 46.546875 31.40625 C 46.515625 31.25 46.496094 31.09375 46.492188 30.933594 L 46.492188 30.886719 L 46.519531 30.847656 C 46.5625 30.789062 46.609375 30.714844 46.660156 30.640625 C 46.882812 30.304688 47.1875 29.847656 47.445312 29.59375 L 47.488281 29.554688 L 47.542969 29.546875 C 48.105469 29.480469 48.640625 29.4375 49.210938 29.398438 L 49.328125 29.386719 L 49.351562 29.722656 L 49.234375 29.730469 C 48.691406 29.769531 48.175781 29.808594 47.644531 29.871094 C 47.417969 30.109375 47.144531 30.519531 46.941406 30.824219 C 46.902344 30.882812 46.863281 30.941406 46.828125 30.992188 C 46.835938 31.082031 46.863281 31.242188 46.878906 31.351562 C 46.898438 31.457031 46.910156 31.542969 46.914062 31.582031 Z M 46.574219 31.59375 " fill-opacity="1" fill-rule="nonzero"/><path fill="#f5e8da" d="M 48.375 31.695312 C 48.359375 31.617188 48.339844 31.558594 48.324219 31.496094 C 48.257812 31.28125 48.214844 31.066406 48.195312 30.847656 L 48.179688 30.707031 L 48.316406 30.667969 C 48.394531 30.644531 48.496094 30.621094 48.605469 30.597656 C 48.832031 30.554688 49.050781 30.496094 49.265625 30.421875 L 49.386719 30.734375 C 49.152344 30.816406 48.917969 30.878906 48.679688 30.925781 C 48.632812 30.933594 48.589844 30.945312 48.550781 30.953125 C 48.570312 31.105469 48.601562 31.253906 48.648438 31.402344 C 48.667969 31.472656 48.6875 31.539062 48.707031 31.625 Z M 48.375 31.695312 " fill-opacity="1" fill-rule="nonzero"/><path fill="#f5e8da" d="M 47.132812 31.851562 C 47.082031 31.753906 46.734375 30.933594 46.714844 30.675781 L 47.050781 30.652344 C 47.0625 30.816406 47.363281 31.558594 47.433594 31.699219 Z M 47.132812 31.851562 " fill-opacity="1" fill-rule="nonzero"/><path fill="#f5e8da" d="M 52.902344 37.25 C 52.832031 37.253906 52.765625 37.234375 52.707031 37.203125 C 52.433594 37.054688 52.382812 36.621094 52.558594 35.957031 L 52.886719 36.042969 C 52.738281 36.605469 52.792969 36.867188 52.867188 36.910156 C 53.042969 37.007812 53.777344 36.449219 54.621094 34.996094 C 55.398438 33.652344 55.511719 32.679688 55.292969 32.492188 C 55.269531 32.476562 55.164062 32.488281 54.960938 32.636719 L 54.761719 32.367188 C 55.15625 32.070312 55.386719 32.132812 55.511719 32.238281 C 56.019531 32.671875 55.578125 34.019531 54.910156 35.164062 C 54.433594 35.988281 53.527344 37.25 52.902344 37.25 Z M 52.902344 37.25 " fill-opacity="1" fill-rule="nonzero"/><path fill="#f5e8da" d="M 53.65625 38.476562 C 53.59375 38.476562 53.535156 38.460938 53.480469 38.433594 C 53.226562 38.292969 53.1875 37.910156 53.359375 37.257812 L 53.683594 37.339844 C 53.527344 37.9375 53.613281 38.121094 53.644531 38.140625 C 53.804688 38.222656 54.675781 37.511719 55.664062 35.738281 C 56.652344 33.964844 56.796875 32.851562 56.640625 32.761719 C 56.621094 32.753906 56.519531 32.757812 56.3125 32.917969 L 56.109375 32.652344 C 56.390625 32.433594 56.625 32.371094 56.804688 32.46875 C 57.449219 32.828125 56.535156 34.871094 55.960938 35.902344 C 55.433594 36.84375 54.335938 38.476562 53.65625 38.476562 Z M 53.65625 38.476562 " fill-opacity="1" fill-rule="nonzero"/><path fill="#f5e8da" d="M 55.320312 32.511719 L 55.488281 32.222656 L 56.886719 33.019531 L 56.71875 33.308594 Z M 55.320312 32.511719 " fill-opacity="1" fill-rule="nonzero"/><path fill="#f5e8da" d="M 52.710938 37.203125 L 52.867188 36.90625 L 54.386719 37.703125 L 54.226562 38 Z M 52.710938 37.203125 " fill-opacity="1" fill-rule="nonzero"/><g clip-path="url(#20c560d6e2)"><path fill="#f5e8da" d="M 56.714844 32.816406 L 56.882812 32.523438 L 59.53125 34.019531 L 59.363281 34.3125 Z M 56.714844 32.816406 " fill-opacity="1" fill-rule="nonzero"/></g><path fill="#f5e8da" d="M 53.417969 38.425781 L 53.582031 38.132812 L 56.230469 39.628906 L 56.0625 39.921875 Z M 53.417969 38.425781 " fill-opacity="1" fill-rule="nonzero"/><path fill="#f5e8da" d="M 54.210938 37.25 C 54.113281 37.253906 54.03125 37.21875 53.964844 37.148438 C 53.882812 37.050781 53.863281 36.945312 53.902344 36.824219 C 53.9375 36.71875 53.996094 36.628906 54.078125 36.554688 C 54.273438 36.382812 54.550781 36.359375 54.683594 36.507812 C 54.765625 36.601562 54.785156 36.710938 54.746094 36.828125 C 54.714844 36.9375 54.65625 37.027344 54.570312 37.101562 C 54.46875 37.195312 54.351562 37.246094 54.210938 37.25 Z M 54.421875 36.742188 C 54.375 36.753906 54.335938 36.773438 54.304688 36.804688 C 54.269531 36.835938 54.242188 36.871094 54.226562 36.914062 C 54.320312 36.890625 54.386719 36.832031 54.421875 36.742188 Z M 54.421875 36.742188 " fill-opacity="1" fill-rule="nonzero"/><path fill="#f5e8da" d="M 29.027344 12.902344 C 28.976562 12.847656 28.914062 12.773438 28.84375 12.6875 C 28.605469 12.40625 28.246094 11.976562 27.925781 11.851562 C 27.527344 11.691406 27.023438 11.742188 26.582031 11.8125 L 26.03125 11.902344 C 25.234375 12.03125 24.246094 12.191406 23.605469 12.273438 C 22.976562 12.351562 22.472656 12.175781 21.863281 11.863281 L 22.015625 11.566406 C 22.582031 11.855469 23.019531 12.007812 23.566406 11.941406 C 24.199219 11.863281 25.183594 11.699219 25.976562 11.574219 L 26.527344 11.484375 C 27.015625 11.40625 27.578125 11.351562 28.050781 11.539062 C 28.449219 11.699219 28.84375 12.164062 29.101562 12.472656 C 29.167969 12.554688 29.226562 12.625 29.273438 12.671875 Z M 29.027344 12.902344 " fill-opacity="1" fill-rule="nonzero"/><path fill="#f5e8da" d="M 28.992188 21.433594 L 28.9375 21.425781 C 28.441406 21.359375 24.324219 18.773438 23.734375 18.339844 C 23.394531 18.089844 22.675781 17.449219 22.097656 16.929688 C 21.871094 16.730469 21.671875 16.554688 21.546875 16.441406 C 21.109375 16.066406 19.875 15.371094 19.789062 15.328125 L 19.917969 15.019531 C 19.992188 15.046875 21.289062 15.777344 21.765625 16.191406 C 21.894531 16.300781 22.09375 16.476562 22.320312 16.683594 C 22.863281 17.167969 23.609375 17.832031 23.933594 18.070312 C 24.714844 18.644531 28.363281 20.882812 28.9375 21.082031 C 29.167969 20.945312 29.292969 20.769531 29.316406 20.5625 C 29.355469 20.179688 29.054688 19.742188 28.761719 19.492188 C 28.597656 19.355469 28.257812 19.058594 27.890625 18.734375 C 27.363281 18.273438 26.644531 17.640625 26.535156 17.566406 L 26.460938 17.515625 L 26.460938 17.421875 C 26.53125 15.265625 27.941406 14.976562 28.371094 14.9375 C 28.511719 14.925781 30.847656 15.179688 31.046875 15.316406 C 31.121094 15.371094 31.148438 15.421875 31.578125 16.636719 C 31.777344 17.195312 32.023438 17.890625 32.105469 18.027344 C 32.238281 18.257812 32.609375 18.460938 32.972656 18.503906 C 33.132812 18.523438 33.265625 18.507812 33.34375 18.460938 C 33.324219 17.933594 32.542969 14.839844 32.304688 14.589844 C 31.027344 13.75 28.933594 12.894531 28.324219 12.652344 L 28.449219 12.34375 C 29.066406 12.585938 31.1875 13.453125 32.5 14.320312 C 32.882812 14.574219 33.621094 17.898438 33.671875 18.375 C 33.6875 18.496094 33.691406 18.59375 33.625 18.664062 C 33.480469 18.8125 33.234375 18.875 32.929688 18.839844 C 32.546875 18.792969 32.03125 18.570312 31.8125 18.195312 C 31.722656 18.042969 31.535156 17.523438 31.261719 16.746094 C 31.101562 16.292969 30.902344 15.734375 30.832031 15.585938 C 30.550781 15.503906 28.609375 15.246094 28.417969 15.269531 C 27.945312 15.308594 26.890625 15.59375 26.800781 17.347656 C 27 17.503906 27.464844 17.914062 28.113281 18.484375 C 28.480469 18.804688 28.816406 19.101562 28.976562 19.238281 C 29.351562 19.550781 29.703125 20.09375 29.652344 20.597656 C 29.625 20.832031 29.5 21.164062 29.042969 21.410156 Z M 28.992188 21.433594 " fill-opacity="1" fill-rule="nonzero"/><path fill="#f5e8da" d="M 28.792969 19.410156 L 28.746094 19.078125 C 28.855469 19.0625 29.351562 18.804688 29.425781 18.734375 C 29.472656 18.671875 29.742188 18.160156 29.9375 17.785156 C 30.160156 17.359375 30.367188 16.960938 30.46875 16.792969 C 30.503906 16.632812 30.105469 15.804688 29.957031 15.492188 L 29.886719 15.34375 L 30.191406 15.199219 L 30.261719 15.347656 C 30.703125 16.273438 30.890625 16.753906 30.757812 16.96875 C 30.660156 17.125 30.445312 17.539062 30.234375 17.941406 C 29.847656 18.683594 29.722656 18.910156 29.664062 18.96875 C 29.546875 19.089844 28.980469 19.386719 28.792969 19.410156 Z M 28.792969 19.410156 " fill-opacity="1" fill-rule="nonzero"/><path fill="#f5e8da" d="M 27.839844 18.578125 L 27.675781 18.285156 C 27.707031 18.269531 27.789062 18.234375 27.886719 18.191406 C 27.992188 18.148438 28.140625 18.085938 28.21875 18.046875 C 28.246094 17.988281 28.273438 17.921875 28.304688 17.855469 C 28.457031 17.523438 28.660156 17.078125 28.742188 16.761719 C 28.507812 16.277344 28.265625 15.816406 28.007812 15.328125 L 27.960938 15.242188 L 28.257812 15.085938 L 28.304688 15.171875 C 28.574219 15.679688 28.828125 16.160156 29.070312 16.671875 L 29.09375 16.722656 L 29.082031 16.78125 C 29.003906 17.132812 28.777344 17.628906 28.613281 17.992188 C 28.574219 18.078125 28.535156 18.160156 28.507812 18.226562 L 28.488281 18.273438 L 28.449219 18.296875 C 28.308594 18.378906 28.164062 18.445312 28.015625 18.503906 C 27.9375 18.535156 27.867188 18.5625 27.839844 18.578125 Z M 27.839844 18.578125 " fill-opacity="1" fill-rule="nonzero"/><path fill="#f5e8da" d="M 26.796875 17.113281 L 26.683594 16.800781 C 26.765625 16.769531 26.835938 16.75 26.90625 16.730469 C 27.054688 16.691406 27.199219 16.636719 27.339844 16.574219 C 27.324219 16.535156 27.3125 16.496094 27.296875 16.453125 C 27.207031 16.226562 27.136719 15.992188 27.082031 15.753906 L 27.410156 15.6875 C 27.460938 15.910156 27.527344 16.125 27.613281 16.339844 C 27.652344 16.445312 27.683594 16.539062 27.707031 16.621094 L 27.746094 16.753906 L 27.617188 16.816406 C 27.417969 16.914062 27.210938 16.992188 26.996094 17.050781 C 26.933594 17.070312 26.871094 17.085938 26.796875 17.113281 Z M 26.796875 17.113281 " fill-opacity="1" fill-rule="nonzero"/><path fill="#f5e8da" d="M 27.328125 18.246094 L 27.296875 17.910156 C 27.453125 17.898438 28.246094 17.753906 28.390625 17.675781 L 28.550781 17.972656 C 28.324219 18.09375 27.4375 18.234375 27.328125 18.246094 Z M 27.328125 18.246094 " fill-opacity="1" fill-rule="nonzero"/><path fill="#f5e8da" d="M 20.007812 16.441406 C 19.9375 16.441406 19.871094 16.425781 19.808594 16.394531 C 19.234375 16.078125 19.753906 14.613281 20.371094 13.453125 C 20.992188 12.285156 21.90625 11.195312 22.542969 11.390625 C 22.699219 11.441406 22.875 11.601562 22.832031 12.09375 L 22.496094 12.066406 C 22.519531 11.816406 22.46875 11.71875 22.441406 11.710938 C 22.164062 11.621094 21.398438 12.238281 20.667969 13.609375 C 19.878906 15.089844 19.796875 16.003906 19.96875 16.097656 C 20.042969 16.140625 20.300781 16.046875 20.699219 15.625 L 20.945312 15.855469 C 20.578125 16.242188 20.257812 16.441406 20.007812 16.441406 Z M 20.007812 16.441406 " fill-opacity="1" fill-rule="nonzero"/><path fill="#f5e8da" d="M 18.53125 16.441406 C 18.464844 16.441406 18.40625 16.425781 18.347656 16.394531 C 17.699219 16.039062 18.613281 13.992188 19.183594 12.960938 C 19.613281 12.191406 20.085938 11.507812 20.519531 11.03125 C 21.019531 10.476562 21.394531 10.28125 21.660156 10.425781 C 21.839844 10.523438 21.910156 10.753906 21.875 11.109375 L 21.539062 11.074219 C 21.566406 10.816406 21.515625 10.730469 21.496094 10.71875 C 21.464844 10.703125 21.238281 10.734375 20.769531 11.253906 C 20.351562 11.710938 19.894531 12.375 19.480469 13.121094 C 18.496094 14.898438 18.355469 16.015625 18.511719 16.101562 C 18.542969 16.117188 18.746094 16.089844 19.167969 15.640625 L 19.414062 15.871094 C 19.050781 16.253906 18.761719 16.441406 18.53125 16.441406 Z M 18.53125 16.441406 " fill-opacity="1" fill-rule="nonzero"/><path fill="#f5e8da" d="M 20.988281 10.941406 L 21.148438 10.648438 L 22.574219 11.402344 L 22.414062 11.699219 Z M 20.988281 10.941406 " fill-opacity="1" fill-rule="nonzero"/><path fill="#f5e8da" d="M 18.320312 15.535156 L 18.488281 15.242188 L 19.972656 16.101562 L 19.804688 16.390625 Z M 18.320312 15.535156 " fill-opacity="1" fill-rule="nonzero"/><path fill="#f5e8da" d="M 18.734375 9.246094 L 18.894531 8.953125 L 21.574219 10.386719 L 21.414062 10.683594 Z M 18.734375 9.246094 " fill-opacity="1" fill-rule="nonzero"/><g clip-path="url(#60051961be)"><path fill="#f5e8da" d="M 15.707031 15.007812 L 15.867188 14.714844 L 18.546875 16.148438 L 18.386719 16.445312 Z M 15.707031 15.007812 " fill-opacity="1" fill-rule="nonzero"/></g><path fill="#f5e8da" d="M 19.234375 15.304688 L 19.183594 15.300781 C 19.097656 15.285156 19.027344 15.242188 18.976562 15.167969 C 18.898438 15.042969 18.875 14.910156 18.902344 14.765625 C 18.945312 14.527344 19.109375 14.351562 19.296875 14.351562 L 19.347656 14.355469 C 19.472656 14.382812 19.554688 14.453125 19.597656 14.570312 C 19.640625 14.675781 19.648438 14.78125 19.628906 14.890625 C 19.585938 15.132812 19.421875 15.304688 19.234375 15.304688 Z M 19.289062 14.703125 C 19.257812 14.738281 19.242188 14.777344 19.234375 14.824219 C 19.226562 14.871094 19.230469 14.914062 19.242188 14.957031 C 19.300781 14.878906 19.316406 14.792969 19.289062 14.703125 Z M 19.289062 14.703125 " fill-opacity="1" fill-rule="nonzero"/><path fill="#f5e8da" d="M 20.148438 37.507812 L 19.894531 37.285156 C 20.3125 36.808594 20.566406 36.421875 20.628906 35.878906 C 20.703125 35.246094 20.785156 34.253906 20.847656 33.457031 L 20.890625 32.910156 C 20.929688 32.421875 21.011719 31.867188 21.308594 31.453125 C 21.558594 31.105469 22.109375 30.835938 22.472656 30.660156 C 22.566406 30.613281 22.648438 30.574219 22.707031 30.542969 L 22.871094 30.835938 C 22.808594 30.871094 22.722656 30.914062 22.621094 30.960938 C 22.289062 31.125 21.785156 31.367188 21.582031 31.648438 C 21.332031 31.996094 21.261719 32.492188 21.226562 32.9375 L 21.183594 33.484375 C 21.117188 34.285156 21.039062 35.28125 20.964844 35.917969 C 20.890625 36.546875 20.597656 36.992188 20.148438 37.507812 Z M 20.148438 37.507812 " fill-opacity="1" fill-rule="nonzero"/><path fill="#f5e8da" d="M 23.035156 40.335938 L 22.765625 40.136719 C 22.8125 40.074219 23.832031 38.996094 24.351562 38.632812 C 24.488281 38.535156 24.707031 38.386719 24.960938 38.214844 C 25.5625 37.804688 26.390625 37.246094 26.703125 36.988281 C 27.449219 36.371094 30.507812 33.382812 30.839844 32.875 C 30.761719 32.621094 30.621094 32.457031 30.421875 32.386719 C 30.0625 32.257812 29.558594 32.441406 29.246094 32.667969 C 29.074219 32.789062 28.703125 33.046875 28.300781 33.324219 C 27.722656 33.722656 26.929688 34.269531 26.835938 34.355469 L 26.765625 34.417969 L 26.675781 34.390625 C 24.585938 33.808594 24.636719 32.378906 24.703125 31.953125 C 24.722656 31.816406 25.53125 29.621094 25.714844 29.460938 C 25.78125 29.402344 25.84375 29.386719 27.132812 29.261719 C 27.722656 29.203125 28.460938 29.132812 28.613281 29.089844 C 28.867188 29.015625 29.160156 28.703125 29.285156 28.363281 C 29.34375 28.214844 29.359375 28.082031 29.332031 27.992188 C 28.8125 27.886719 25.605469 27.902344 25.304688 28.074219 C 24.179688 29.105469 22.84375 30.925781 22.460938 31.457031 L 22.1875 31.261719 C 22.574219 30.722656 23.925781 28.882812 25.085938 27.820312 C 25.425781 27.511719 28.851562 27.59375 29.328125 27.65625 C 29.449219 27.671875 29.546875 27.691406 29.597656 27.769531 C 29.707031 27.945312 29.710938 28.199219 29.601562 28.484375 C 29.464844 28.84375 29.125 29.289062 28.707031 29.410156 C 28.539062 29.460938 27.984375 29.515625 27.164062 29.59375 C 26.679688 29.644531 26.085938 29.699219 25.925781 29.734375 C 25.777344 29.984375 25.070312 31.808594 25.039062 31.992188 C 24.964844 32.453125 24.992188 33.539062 26.683594 34.046875 C 26.882812 33.894531 27.394531 33.539062 28.109375 33.050781 C 28.507812 32.773438 28.875 32.519531 29.046875 32.394531 C 29.441406 32.109375 30.058594 31.902344 30.535156 32.070312 C 30.761719 32.152344 31.054688 32.351562 31.183594 32.851562 L 31.199219 32.90625 L 31.175781 32.957031 C 30.992188 33.417969 27.484375 36.777344 26.917969 37.246094 C 26.59375 37.511719 25.792969 38.054688 25.148438 38.492188 C 24.898438 38.664062 24.679688 38.808594 24.542969 38.90625 C 24.070312 39.238281 23.097656 40.261719 23.035156 40.335938 Z M 23.035156 40.335938 " fill-opacity="1" fill-rule="nonzero"/><path fill="#f5e8da" d="M 29.175781 32.617188 L 28.839844 32.582031 C 28.851562 32.472656 28.714844 31.933594 28.664062 31.84375 C 28.613281 31.785156 28.179688 31.402344 27.859375 31.125 C 27.496094 30.808594 27.15625 30.511719 27.019531 30.371094 C 26.871094 30.300781 25.96875 30.488281 25.628906 30.554688 L 25.460938 30.589844 L 25.394531 30.261719 L 25.558594 30.226562 C 26.566406 30.023438 27.078125 29.957031 27.257812 30.136719 C 27.386719 30.265625 27.742188 30.574219 28.082031 30.871094 C 28.714844 31.425781 28.90625 31.597656 28.949219 31.667969 C 29.039062 31.8125 29.191406 32.429688 29.175781 32.617188 Z M 29.175781 32.617188 " fill-opacity="1" fill-rule="nonzero"/><path fill="#f5e8da" d="M 27.808594 33.425781 C 27.796875 33.390625 27.785156 33.304688 27.765625 33.203125 C 27.75 33.097656 27.726562 32.933594 27.703125 32.84375 C 27.652344 32.804688 27.597656 32.761719 27.539062 32.71875 C 27.25 32.492188 26.863281 32.1875 26.574219 32.035156 C 26.042969 32.140625 25.535156 32.265625 25 32.398438 L 24.90625 32.421875 L 24.824219 32.097656 L 24.917969 32.074219 C 25.476562 31.9375 26.007812 31.804688 26.566406 31.695312 L 26.621094 31.683594 L 26.671875 31.707031 C 27 31.867188 27.429688 32.207031 27.746094 32.453125 C 27.820312 32.511719 27.890625 32.566406 27.949219 32.609375 L 27.988281 32.640625 L 28.003906 32.683594 C 28.050781 32.835938 28.082031 32.992188 28.101562 33.152344 C 28.113281 33.234375 28.125 33.308594 28.132812 33.335938 Z M 27.808594 33.425781 " fill-opacity="1" fill-rule="nonzero"/><path fill="#f5e8da" d="M 26.121094 34.027344 C 26.109375 33.941406 26.109375 33.871094 26.105469 33.800781 C 26.101562 33.644531 26.085938 33.492188 26.054688 33.34375 C 26.015625 33.347656 25.972656 33.351562 25.925781 33.355469 C 25.683594 33.386719 25.4375 33.398438 25.191406 33.394531 L 25.207031 33.058594 C 25.433594 33.0625 25.664062 33.050781 25.890625 33.023438 C 26.003906 33.011719 26.105469 33 26.1875 32.996094 L 26.328125 32.992188 L 26.359375 33.128906 C 26.40625 33.347656 26.433594 33.566406 26.441406 33.785156 C 26.445312 33.851562 26.445312 33.914062 26.453125 33.992188 Z M 26.121094 34.027344 " fill-opacity="1" fill-rule="nonzero"/><path fill="#f5e8da" d="M 27.683594 33.753906 L 27.351562 33.703125 C 27.375 33.546875 27.425781 32.746094 27.382812 32.589844 L 27.710938 32.507812 C 27.773438 32.757812 27.703125 33.640625 27.683594 33.753906 Z M 27.683594 33.753906 " fill-opacity="1" fill-rule="nonzero"/><path fill="#f5e8da" d="M 23.722656 40.710938 C 23.128906 40.710938 22.132812 40.023438 21.34375 39.324219 C 20.351562 38.445312 19.503906 37.304688 19.851562 36.734375 C 19.933594 36.597656 20.132812 36.464844 20.605469 36.625 L 20.496094 36.941406 C 20.257812 36.863281 20.152344 36.886719 20.136719 36.910156 C 19.988281 37.152344 20.402344 38.042969 21.566406 39.074219 C 22.824219 40.191406 23.695312 40.492188 23.832031 40.34375 C 23.890625 40.28125 23.859375 40.015625 23.542969 39.527344 L 23.824219 39.34375 C 24.203125 39.921875 24.289062 40.347656 24.078125 40.574219 C 23.980469 40.671875 23.863281 40.71875 23.722656 40.710938 Z M 23.722656 40.710938 " fill-opacity="1" fill-rule="nonzero"/><path fill="#f5e8da" d="M 23.40625 42.109375 C 23.179688 42.109375 22.863281 41.996094 22.457031 41.765625 C 21.894531 41.449219 21.230469 40.949219 20.582031 40.351562 C 19.929688 39.757812 19.375 39.136719 19.015625 38.605469 C 18.59375 37.988281 18.488281 37.578125 18.695312 37.359375 C 18.832031 37.210938 19.074219 37.195312 19.414062 37.3125 L 19.300781 37.628906 C 19.054688 37.542969 18.957031 37.570312 18.945312 37.585938 C 18.917969 37.613281 18.898438 37.839844 19.292969 38.417969 C 19.640625 38.929688 20.179688 39.527344 20.808594 40.105469 C 21.441406 40.6875 22.082031 41.171875 22.625 41.472656 C 23.234375 41.820312 23.457031 41.78125 23.484375 41.753906 C 23.507812 41.730469 23.53125 41.527344 23.195312 41.011719 L 23.476562 40.828125 C 23.84375 41.394531 23.929688 41.773438 23.734375 41.980469 C 23.644531 42.074219 23.535156 42.113281 23.40625 42.109375 Z M 23.40625 42.109375 " fill-opacity="1" fill-rule="nonzero"/><path fill="#f5e8da" d="M 18.789062 37.90625 L 19.867188 36.710938 L 20.117188 36.933594 L 19.039062 38.128906 Z M 18.789062 37.90625 " fill-opacity="1" fill-rule="nonzero"/><path fill="#f5e8da" d="M 22.644531 41.570312 L 23.835938 40.34375 L 24.078125 40.574219 L 22.886719 41.804688 Z M 22.644531 41.570312 " fill-opacity="1" fill-rule="nonzero"/><path fill="#f5e8da" d="M 16.597656 39.679688 L 18.636719 37.433594 L 18.886719 37.65625 L 16.847656 39.902344 Z M 16.597656 39.679688 " fill-opacity="1" fill-rule="nonzero"/><g clip-path="url(#27e2af87ff)"><path fill="#f5e8da" d="M 21.5 43.976562 L 23.539062 41.730469 L 23.789062 41.957031 L 21.75 44.203125 Z M 21.5 43.976562 " fill-opacity="1" fill-rule="nonzero"/></g><path fill="#f5e8da" d="M 22.519531 41.109375 C 22.4375 41.109375 22.355469 41.089844 22.277344 41.058594 C 22.027344 40.949219 21.898438 40.71875 21.984375 40.527344 C 22.0625 40.34375 22.332031 40.28125 22.570312 40.386719 C 22.820312 40.496094 22.949219 40.726562 22.867188 40.914062 C 22.8125 41.035156 22.683594 41.109375 22.519531 41.109375 Z M 22.304688 40.667969 C 22.332031 40.707031 22.367188 40.734375 22.410156 40.75 C 22.453125 40.769531 22.496094 40.777344 22.542969 40.773438 C 22.515625 40.738281 22.480469 40.710938 22.4375 40.691406 C 22.394531 40.675781 22.351562 40.667969 22.304688 40.667969 Z M 22.304688 40.667969 " fill-opacity="1" fill-rule="nonzero"/><path fill="#f5e8da" d="M 33.132812 24.515625 L 33.128906 24.515625 C 32.992188 24.511719 32.925781 24.441406 32.925781 24.308594 C 32.945312 23.652344 32.96875 23.058594 33.039062 22.109375 C 33.046875 21.976562 33.121094 21.914062 33.257812 21.921875 C 33.394531 21.933594 33.457031 22.003906 33.449219 22.140625 C 33.378906 23.085938 33.355469 23.652344 33.335938 24.316406 C 33.335938 24.449219 33.265625 24.515625 33.132812 24.515625 Z M 33.132812 24.515625 " fill-opacity="1" fill-rule="nonzero"/><path fill="#f5e8da" d="M 34.234375 22.398438 C 34.230469 22.398438 34.226562 22.398438 34.222656 22.398438 C 34.011719 22.386719 33.769531 22.363281 33.519531 22.34375 C 33.070312 22.304688 32.601562 22.261719 32.21875 22.261719 C 32.078125 22.265625 32.007812 22.195312 32.007812 22.058594 C 32.007812 21.921875 32.078125 21.851562 32.21875 21.855469 C 32.621094 21.855469 33.09375 21.894531 33.554688 21.9375 C 33.800781 21.957031 34.039062 21.980469 34.246094 21.992188 C 34.378906 22 34.441406 22.070312 34.4375 22.199219 C 34.433594 22.332031 34.367188 22.398438 34.234375 22.398438 Z M 34.234375 22.398438 " fill-opacity="1" fill-rule="nonzero"/><path fill="#f5e8da" d="M 41.296875 29.570312 C 41.222656 29.570312 41.179688 29.535156 41.164062 29.460938 C 41.113281 29.234375 41.0625 28.972656 41.007812 28.699219 C 40.953125 28.417969 40.898438 28.128906 40.839844 27.855469 C 40.71875 28.140625 40.59375 28.410156 40.472656 28.671875 C 40.359375 28.914062 40.253906 29.148438 40.160156 29.375 C 40.136719 29.4375 40.089844 29.464844 40.023438 29.457031 C 39.957031 29.453125 39.917969 29.421875 39.902344 29.355469 C 39.753906 28.8125 39.574219 28.226562 39.398438 27.703125 C 39.226562 28.292969 39.003906 29.078125 38.972656 29.261719 C 38.957031 29.351562 38.90625 29.386719 38.816406 29.371094 C 38.726562 29.355469 38.6875 29.304688 38.703125 29.214844 C 38.75 28.933594 39.15625 27.542969 39.253906 27.214844 C 39.273438 27.152344 39.316406 27.121094 39.382812 27.121094 C 39.449219 27.117188 39.492188 27.148438 39.515625 27.210938 C 39.699219 27.722656 39.894531 28.328125 40.0625 28.914062 C 40.113281 28.800781 40.167969 28.679688 40.222656 28.558594 C 40.402344 28.175781 40.585938 27.777344 40.746094 27.347656 C 40.769531 27.285156 40.816406 27.257812 40.882812 27.257812 C 40.949219 27.261719 40.992188 27.296875 41.007812 27.363281 C 41.101562 27.757812 41.191406 28.210938 41.277344 28.648438 C 41.332031 28.917969 41.382812 29.179688 41.429688 29.40625 C 41.449219 29.492188 41.414062 29.546875 41.324219 29.566406 C 41.316406 29.570312 41.304688 29.570312 41.296875 29.570312 Z M 41.296875 29.570312 " fill-opacity="1" fill-rule="nonzero"/><path fill="#f5e8da" d="M 40.523438 23.828125 C 40.515625 23.828125 40.507812 23.824219 40.5 23.824219 C 40.105469 23.777344 39.757812 23.792969 39.386719 23.808594 C 39.210938 23.816406 39.03125 23.824219 38.851562 23.828125 C 38.71875 23.828125 38.652344 23.761719 38.644531 23.632812 C 38.621094 23.171875 38.628906 22.496094 38.636719 21.894531 C 38.640625 21.628906 38.644531 21.378906 38.644531 21.175781 C 38.644531 21.050781 38.707031 20.980469 38.832031 20.972656 C 39.375 20.929688 39.90625 20.960938 40.417969 20.996094 L 40.570312 21.003906 C 40.707031 21.011719 40.773438 21.085938 40.765625 21.222656 C 40.753906 21.355469 40.679688 21.417969 40.546875 21.410156 L 40.394531 21.402344 C 39.949219 21.367188 39.5 21.355469 39.054688 21.367188 C 39.050781 21.527344 39.050781 21.710938 39.046875 21.902344 C 39.039062 22.410156 39.03125 22.980469 39.046875 23.414062 C 39.15625 23.410156 39.261719 23.40625 39.367188 23.402344 C 39.738281 23.386719 40.121094 23.371094 40.550781 23.417969 C 40.675781 23.433594 40.738281 23.503906 40.730469 23.632812 C 40.722656 23.761719 40.652344 23.824219 40.523438 23.824219 Z M 40.523438 23.828125 " fill-opacity="1" fill-rule="nonzero"/><path fill="#f5e8da" d="M 40.457031 22.671875 C 40.453125 22.671875 40.449219 22.671875 40.445312 22.671875 C 39.734375 22.636719 39.328125 22.636719 38.816406 22.636719 C 38.675781 22.636719 38.605469 22.570312 38.605469 22.433594 C 38.605469 22.292969 38.675781 22.226562 38.816406 22.226562 C 39.332031 22.226562 39.742188 22.226562 40.464844 22.261719 C 40.597656 22.269531 40.664062 22.339844 40.660156 22.472656 C 40.660156 22.605469 40.589844 22.671875 40.457031 22.671875 Z M 40.457031 22.671875 " fill-opacity="1" fill-rule="nonzero"/><path fill="#f5e8da" d="M 34.09375 30.308594 C 34.03125 30.308594 33.992188 30.28125 33.96875 30.226562 C 33.910156 30.09375 33.824219 29.851562 33.726562 29.570312 C 33.578125 29.148438 33.398438 28.640625 33.226562 28.242188 C 33.117188 28.519531 33.003906 28.855469 32.890625 29.179688 C 32.761719 29.558594 32.640625 29.914062 32.535156 30.15625 C 32.496094 30.242188 32.4375 30.265625 32.355469 30.230469 C 32.269531 30.191406 32.246094 30.132812 32.28125 30.050781 C 32.382812 29.816406 32.503906 29.464844 32.632812 29.089844 C 32.789062 28.640625 32.945312 28.175781 33.097656 27.839844 C 33.121094 27.789062 33.164062 27.761719 33.21875 27.761719 L 33.222656 27.761719 C 33.28125 27.761719 33.320312 27.785156 33.34375 27.839844 C 33.558594 28.273438 33.792969 28.941406 33.984375 29.480469 C 34.082031 29.757812 34.167969 29.996094 34.21875 30.121094 C 34.238281 30.164062 34.234375 30.207031 34.207031 30.25 C 34.179688 30.289062 34.140625 30.308594 34.09375 30.308594 Z M 34.09375 30.308594 " fill-opacity="1" fill-rule="nonzero"/><path fill="#f5e8da" d="M 34.121094 29.457031 C 33.90625 29.457031 33.683594 29.457031 33.464844 29.453125 C 33.035156 29.453125 32.632812 29.449219 32.328125 29.457031 L 32.324219 29.457031 C 32.234375 29.457031 32.1875 29.414062 32.1875 29.324219 C 32.183594 29.234375 32.230469 29.1875 32.320312 29.1875 C 32.628906 29.175781 33.035156 29.179688 33.464844 29.183594 C 33.683594 29.183594 33.90625 29.1875 34.121094 29.1875 C 34.214844 29.183594 34.261719 29.230469 34.261719 29.320312 C 34.261719 29.414062 34.214844 29.460938 34.121094 29.457031 Z M 34.121094 29.457031 " fill-opacity="1" fill-rule="nonzero"/></svg>