<svg xmlns="http://www.w3.org/2000/svg" xmlns:xlink="http://www.w3.org/1999/xlink" width="100" zoomAndPan="magnify" viewBox="0 0 75 52.499999" height="70" preserveAspectRatio="xMidYMid meet" version="1.0"><defs><clipPath id="2cb99eabfe"><path d="M 48 24 L 55.539062 24 L 55.539062 37 L 48 37 Z M 48 24 " clip-rule="nonzero"/></clipPath><clipPath id="8370f72f10"><path d="M 19.132812 27 L 55.539062 27 L 55.539062 41 L 19.132812 41 Z M 19.132812 27 " clip-rule="nonzero"/></clipPath><clipPath id="4296879418"><path d="M 19.132812 40 L 55.539062 40 L 55.539062 43 L 19.132812 43 Z M 19.132812 40 " clip-rule="nonzero"/></clipPath><clipPath id="a6184e5b74"><path d="M 19.132812 24 L 27 24 L 27 37 L 19.132812 37 Z M 19.132812 24 " clip-rule="nonzero"/></clipPath><clipPath id="42ea5e3218"><path d="M 27 8.839844 L 35 8.839844 L 35 17 L 27 17 Z M 27 8.839844 " clip-rule="nonzero"/></clipPath></defs><g clip-path="url(#2cb99eabfe)"><path fill="#f5e8da" d="M 49.34375 25.785156 C 49.179688 25.785156 49.023438 25.773438 48.867188 25.757812 C 48.566406 26.285156 48.460938 26.894531 48.570312 27.492188 L 48.761719 28.566406 L 53.695312 36.644531 C 54.875 36.011719 55.515625 34.695312 55.273438 33.351562 L 53.9375 25.96875 C 53.800781 25.210938 53.253906 24.609375 52.53125 24.382812 C 51.734375 25.242188 50.601562 25.785156 49.34375 25.785156 Z M 49.34375 25.785156 " fill-opacity="1" fill-rule="nonzero"/></g><path fill="#f5e8da" d="M 47.175781 29.179688 L 42.1875 29.179688 C 42.367188 29.566406 42.648438 30.207031 43.101562 31.253906 L 48.089844 31.253906 C 47.519531 29.9375 47.277344 29.398438 47.175781 29.179688 Z M 47.175781 29.179688 " fill-opacity="1" fill-rule="nonzero"/><path fill="#f5e8da" d="M 32.070312 38.214844 L 42.570312 38.214844 L 42.570312 38.988281 L 32.070312 38.988281 Z M 32.070312 38.214844 " fill-opacity="1" fill-rule="nonzero"/><g clip-path="url(#8370f72f10)"><path fill="#f5e8da" d="M 43.167969 40.375 L 55.273438 40.375 L 48.222656 28.828125 L 47.589844 27.789062 L 34.652344 27.789062 C 34.628906 27.929688 34.585938 28.070312 34.523438 28.207031 C 34.328125 28.632812 33.957031 28.953125 33.507812 29.089844 C 33.351562 29.140625 33.191406 29.164062 33.03125 29.164062 C 32.351562 29.164062 31.714844 28.738281 31.46875 28.0625 C 31.433594 27.972656 31.40625 27.878906 31.371094 27.789062 L 27.054688 27.789062 L 26.417969 28.828125 L 19.371094 40.375 L 31.476562 40.375 L 31.476562 37.90625 C 31.476562 37.902344 31.476562 37.902344 31.476562 37.898438 C 31.476562 37.871094 31.480469 37.84375 31.492188 37.820312 L 31.496094 37.804688 C 31.496094 37.796875 31.5 37.789062 31.503906 37.78125 L 32.980469 33.351562 C 33.023438 33.230469 33.136719 33.148438 33.265625 33.148438 L 41.378906 33.148438 C 41.507812 33.148438 41.621094 33.230469 41.660156 33.351562 L 43.140625 37.78125 C 43.144531 37.789062 43.144531 37.796875 43.148438 37.804688 L 43.152344 37.820312 C 43.160156 37.84375 43.164062 37.871094 43.167969 37.898438 C 43.167969 37.902344 43.167969 37.902344 43.167969 37.90625 Z M 30.476562 38.078125 L 28.875 38.925781 C 28.871094 38.929688 28.863281 38.929688 28.859375 38.933594 C 28.851562 38.9375 28.84375 38.9375 28.839844 38.941406 C 28.804688 38.953125 28.769531 38.960938 28.734375 38.960938 L 24.707031 38.960938 C 24.074219 38.960938 23.5625 38.445312 23.5625 37.8125 C 23.5625 37.179688 24.074219 36.664062 24.707031 36.664062 L 28.734375 36.664062 C 28.738281 36.664062 28.742188 36.664062 28.746094 36.664062 C 28.765625 36.664062 28.785156 36.671875 28.804688 36.675781 C 28.824219 36.679688 28.84375 36.683594 28.863281 36.691406 C 28.867188 36.695312 28.871094 36.695312 28.875 36.695312 L 30.476562 37.546875 C 30.574219 37.597656 30.636719 37.699219 30.636719 37.8125 C 30.636719 37.921875 30.574219 38.023438 30.476562 38.078125 Z M 32.671875 30.21875 C 32.671875 30.28125 32.652344 30.339844 32.621094 30.386719 C 32.578125 30.472656 32.375 30.902344 31.464844 33.007812 C 31.464844 33.007812 31.464844 33.007812 31.464844 33.011719 C 31.449219 33.042969 31.429688 33.070312 31.40625 33.09375 C 31.398438 33.101562 31.390625 33.105469 31.386719 33.113281 C 31.375 33.121094 31.367188 33.132812 31.355469 33.140625 C 30.339844 33.816406 30.21875 35.832031 30.21875 35.855469 C 30.207031 36.011719 30.078125 36.136719 29.917969 36.136719 L 24.28125 36.136719 C 24.199219 36.136719 24.121094 36.105469 24.0625 36.042969 C 24.007812 35.984375 23.976562 35.902344 23.980469 35.820312 C 23.988281 35.730469 24.113281 33.570312 25.3125 32.695312 C 26.515625 29.917969 26.515625 29.917969 26.734375 29.917969 L 32.375 29.917969 C 32.539062 29.917969 32.671875 30.050781 32.671875 30.214844 C 32.671875 30.214844 32.671875 30.214844 32.671875 30.21875 Z M 51.394531 37.957031 C 51.492188 38.25 51.46875 38.5625 51.332031 38.835938 C 51.132812 39.238281 50.726562 39.46875 50.308594 39.46875 C 50.136719 39.46875 49.960938 39.429688 49.796875 39.347656 L 46.195312 37.535156 C 46.191406 37.535156 46.191406 37.535156 46.191406 37.535156 C 46.148438 37.511719 46.117188 37.484375 46.09375 37.449219 C 46.089844 37.449219 46.085938 37.445312 46.085938 37.441406 L 45.03125 35.960938 C 44.964844 35.871094 44.957031 35.753906 45.007812 35.652344 C 45.054688 35.554688 45.15625 35.492188 45.265625 35.488281 L 47.078125 35.449219 C 47.082031 35.449219 47.089844 35.453125 47.09375 35.453125 C 47.113281 35.453125 47.128906 35.457031 47.148438 35.460938 C 47.167969 35.464844 47.1875 35.46875 47.203125 35.476562 C 47.210938 35.480469 47.214844 35.476562 47.21875 35.480469 L 50.820312 37.292969 C 51.09375 37.429688 51.296875 37.664062 51.394531 37.957031 Z M 42.742188 31.800781 C 42.730469 31.792969 42.71875 31.785156 42.710938 31.773438 C 42.703125 31.769531 42.695312 31.761719 42.6875 31.753906 C 42.664062 31.730469 42.644531 31.703125 42.632812 31.671875 C 42.632812 31.671875 42.632812 31.671875 42.632812 31.667969 C 42.632812 31.667969 42.632812 31.667969 42.628906 31.667969 C 41.71875 29.566406 41.519531 29.132812 41.476562 29.050781 C 41.441406 29 41.421875 28.941406 41.421875 28.878906 C 41.421875 28.714844 41.554688 28.578125 41.71875 28.578125 L 47.359375 28.578125 C 47.578125 28.578125 47.582031 28.578125 48.785156 31.355469 C 49.980469 32.234375 50.109375 34.390625 50.113281 34.484375 C 50.117188 34.566406 50.085938 34.644531 50.03125 34.707031 C 49.976562 34.765625 49.898438 34.800781 49.816406 34.800781 L 44.175781 34.800781 C 44.015625 34.800781 43.886719 34.675781 43.878906 34.515625 C 43.875 34.496094 43.757812 32.476562 42.742188 31.800781 Z M 42.742188 31.800781 " fill-opacity="1" fill-rule="nonzero"/></g><path fill="#f5e8da" d="M 49.484375 34.199219 C 49.410156 33.617188 49.164062 32.390625 48.445312 31.851562 L 43.632812 31.851562 C 44.199219 32.617188 44.386719 33.691406 44.449219 34.199219 Z M 49.484375 34.199219 " fill-opacity="1" fill-rule="nonzero"/><path fill="#f5e8da" d="M 24.160156 37.8125 C 24.160156 38.117188 24.40625 38.363281 24.707031 38.363281 L 28.4375 38.363281 L 28.4375 37.261719 L 24.707031 37.261719 C 24.402344 37.261719 24.160156 37.507812 24.160156 37.8125 Z M 24.160156 37.8125 " fill-opacity="1" fill-rule="nonzero"/><path fill="#f5e8da" d="M 24.609375 35.539062 L 29.648438 35.539062 C 29.707031 35.03125 29.894531 33.957031 30.460938 33.191406 L 25.648438 33.191406 C 24.980469 33.695312 24.695312 34.859375 24.609375 35.539062 Z M 24.609375 35.539062 " fill-opacity="1" fill-rule="nonzero"/><path fill="#f5e8da" d="M 46.28125 36.691406 L 46.597656 36.058594 L 45.84375 36.074219 Z M 46.28125 36.691406 " fill-opacity="1" fill-rule="nonzero"/><path fill="#f5e8da" d="M 46.726562 37.136719 L 50.0625 38.8125 C 50.335938 38.949219 50.664062 38.839844 50.800781 38.566406 C 50.863281 38.4375 50.875 38.285156 50.828125 38.148438 C 50.78125 38.007812 50.6875 37.894531 50.554688 37.828125 L 47.21875 36.148438 Z M 46.726562 37.136719 " fill-opacity="1" fill-rule="nonzero"/><path fill="#f5e8da" d="M 26.007812 32.589844 L 30.996094 32.589844 C 31.449219 31.542969 31.726562 30.902344 31.90625 30.515625 L 26.917969 30.515625 C 26.816406 30.734375 26.578125 31.277344 26.007812 32.589844 Z M 26.007812 32.589844 " fill-opacity="1" fill-rule="nonzero"/><path fill="#f5e8da" d="M 29.664062 21.398438 C 29.664062 23.4375 28.269531 25.152344 26.390625 25.640625 C 26.632812 26.144531 26.742188 26.699219 26.703125 27.257812 C 26.753906 27.214844 26.816406 27.191406 26.886719 27.191406 L 29.859375 27.191406 C 29.804688 25.417969 29.949219 23.738281 30.296875 22.164062 C 30.296875 22.160156 30.296875 22.160156 30.296875 22.160156 C 30.515625 21.1875 30.804688 20.257812 31.171875 19.375 C 31.238281 19.222656 31.410156 19.148438 31.5625 19.214844 C 31.714844 19.277344 31.785156 19.453125 31.722656 19.605469 C 31.367188 20.460938 31.085938 21.363281 30.878906 22.300781 C 30.949219 24.109375 31.335938 25.976562 32.027344 27.855469 C 32.222656 28.390625 32.796875 28.683594 33.335938 28.519531 C 33.625 28.429688 33.855469 28.230469 33.984375 27.953125 C 34.113281 27.675781 34.117188 27.355469 33.996094 27.074219 C 33.632812 26.222656 33.371094 25.3125 33.164062 24.390625 C 33.164062 24.386719 33.164062 24.386719 33.164062 24.386719 C 32.882812 23.132812 32.707031 21.851562 32.542969 20.664062 C 32.328125 19.074219 32.140625 17.6875 31.753906 16.996094 C 31.449219 17.0625 31.132812 17.101562 30.808594 17.101562 C 29.351562 17.101562 28.0625 16.378906 27.269531 15.273438 C 26.152344 15.660156 25.414062 16.238281 25.03125 17.03125 C 25.121094 17.023438 25.207031 17.015625 25.300781 17.015625 C 27.707031 17.015625 29.664062 18.980469 29.664062 21.398438 Z M 29.664062 21.398438 " fill-opacity="1" fill-rule="nonzero"/><path fill="#f5e8da" d="M 32.070312 39.585938 L 42.570312 39.585938 L 42.570312 40.367188 L 32.070312 40.367188 Z M 32.070312 39.585938 " fill-opacity="1" fill-rule="nonzero"/><g clip-path="url(#4296879418)"><path fill="#f5e8da" d="M 19.132812 40.972656 L 55.507812 40.972656 L 55.507812 42.921875 L 19.132812 42.921875 Z M 19.132812 40.972656 " fill-opacity="1" fill-rule="nonzero"/></g><g clip-path="url(#a6184e5b74)"><path fill="#f5e8da" d="M 20.945312 36.644531 L 25.878906 28.566406 L 26.074219 27.492188 C 26.183594 26.894531 26.074219 26.28125 25.777344 25.757812 C 25.621094 25.773438 25.460938 25.785156 25.300781 25.785156 C 24.039062 25.785156 22.90625 25.242188 22.109375 24.382812 C 21.386719 24.609375 20.84375 25.210938 20.707031 25.96875 L 19.371094 33.351562 C 19.125 34.695312 19.769531 36.011719 20.945312 36.644531 Z M 20.945312 36.644531 " fill-opacity="1" fill-rule="nonzero"/></g><g clip-path="url(#42ea5e3218)"><path fill="#f5e8da" d="M 30.808594 16.5 C 32.886719 16.5 34.578125 14.804688 34.578125 12.714844 C 34.578125 10.628906 32.886719 8.929688 30.808594 8.929688 C 28.730469 8.929688 27.039062 10.628906 27.039062 12.714844 C 27.039062 14.804688 28.730469 16.5 30.808594 16.5 Z M 30.808594 16.5 " fill-opacity="1" fill-rule="nonzero"/></g><path fill="#f5e8da" d="M 25.300781 25.183594 C 27.378906 25.183594 29.070312 23.488281 29.070312 21.398438 C 29.070312 19.3125 27.378906 17.613281 25.300781 17.613281 C 23.222656 17.613281 21.53125 19.3125 21.53125 21.398438 C 21.53125 23.488281 23.222656 25.183594 25.300781 25.183594 Z M 25.300781 25.183594 " fill-opacity="1" fill-rule="nonzero"/><path fill="#f5e8da" d="M 33.746094 24.253906 C 33.945312 25.148438 34.199219 26.027344 34.542969 26.839844 C 34.59375 26.953125 34.628906 27.070312 34.652344 27.191406 L 42.957031 27.191406 L 42.152344 18.855469 L 34.066406 18.855469 Z M 33.746094 24.253906 " fill-opacity="1" fill-rule="nonzero"/><path fill="#f5e8da" d="M 29.035156 38.164062 L 29.699219 37.8125 L 29.035156 37.457031 Z M 29.035156 38.164062 " fill-opacity="1" fill-rule="nonzero"/><path fill="#f5e8da" d="M 33.480469 33.746094 L 32.191406 37.605469 L 42.453125 37.605469 L 41.164062 33.746094 Z M 33.480469 33.746094 " fill-opacity="1" fill-rule="nonzero"/><path fill="#f5e8da" d="M 49.34375 25.183594 C 51.421875 25.183594 53.109375 23.488281 53.109375 21.398438 C 53.109375 19.3125 51.421875 17.613281 49.34375 17.613281 C 47.265625 17.613281 45.574219 19.3125 45.574219 21.398438 C 45.574219 23.488281 47.265625 25.183594 49.34375 25.183594 Z M 49.34375 25.183594 " fill-opacity="1" fill-rule="nonzero"/></svg>