<svg xmlns="http://www.w3.org/2000/svg" xmlns:xlink="http://www.w3.org/1999/xlink" width="100" zoomAndPan="magnify" viewBox="0 0 75 52.499999" height="70" preserveAspectRatio="xMidYMid meet" version="1.0"><defs><clipPath id="2f9a270763"><path d="M 29 8.046875 L 54.527344 8.046875 L 54.527344 27 L 29 27 Z M 29 8.046875 " clip-rule="nonzero"/></clipPath><clipPath id="37b260a344"><path d="M 20.351562 15 L 36 15 L 36 43.707031 L 20.351562 43.707031 Z M 20.351562 15 " clip-rule="nonzero"/></clipPath></defs><g clip-path="url(#2f9a270763)"><path fill="#000000" d="M 30.152344 8.539062 L 54.015625 8.539062 L 54.015625 25.523438 L 30.152344 25.523438 L 30.152344 22.484375 L 29.660156 22.558594 L 29.660156 26.011719 L 54.507812 26.011719 L 54.507812 8.046875 L 29.660156 8.046875 L 29.660156 19.585938 L 30.152344 19.511719 Z M 30.152344 8.539062 " fill-opacity="1" fill-rule="nonzero"/></g><path fill="#000000" d="M 49.597656 11.875 C 49.601562 11.875 49.605469 11.875 49.605469 11.875 C 49.632812 11.871094 49.652344 11.863281 49.671875 11.851562 L 49.753906 13.125 C 49.761719 13.230469 49.851562 13.308594 49.953125 13.300781 C 49.996094 13.300781 50.03125 13.285156 50.0625 13.257812 C 50.09375 13.285156 50.128906 13.300781 50.171875 13.300781 C 50.273438 13.308594 50.363281 13.230469 50.371094 13.125 L 50.453125 11.851562 C 50.472656 11.863281 50.492188 11.871094 50.519531 11.875 C 50.519531 11.875 50.523438 11.875 50.527344 11.875 C 50.589844 11.875 50.644531 11.824219 50.648438 11.761719 C 50.710938 10.773438 50.488281 10.539062 50.441406 10.5 C 50.421875 10.484375 50.394531 10.472656 50.371094 10.472656 C 50.367188 10.472656 50.359375 10.472656 50.355469 10.472656 L 49.769531 10.472656 C 49.765625 10.472656 49.761719 10.472656 49.757812 10.472656 C 49.730469 10.472656 49.703125 10.484375 49.683594 10.5 C 49.636719 10.539062 49.414062 10.773438 49.476562 11.761719 C 49.480469 11.824219 49.535156 11.875 49.597656 11.875 Z M 49.597656 11.875 " fill-opacity="1" fill-rule="nonzero"/><path fill="#000000" d="M 50.40625 10.042969 C 50.40625 10.140625 50.371094 10.21875 50.304688 10.285156 C 50.238281 10.351562 50.15625 10.386719 50.0625 10.386719 C 49.96875 10.386719 49.886719 10.351562 49.820312 10.285156 C 49.753906 10.21875 49.71875 10.140625 49.71875 10.042969 C 49.71875 9.949219 49.753906 9.871094 49.820312 9.804688 C 49.886719 9.734375 49.96875 9.703125 50.0625 9.703125 C 50.15625 9.703125 50.238281 9.734375 50.304688 9.804688 C 50.371094 9.871094 50.40625 9.949219 50.40625 10.042969 Z M 50.40625 10.042969 " fill-opacity="1" fill-rule="nonzero"/><path fill="#000000" d="M 51.253906 11.875 C 51.253906 11.875 51.257812 11.875 51.261719 11.875 C 51.285156 11.871094 51.308594 11.863281 51.324219 11.851562 L 51.410156 13.125 C 51.414062 13.230469 51.503906 13.308594 51.609375 13.300781 C 51.648438 13.300781 51.6875 13.285156 51.714844 13.257812 C 51.746094 13.285156 51.785156 13.300781 51.824219 13.300781 C 51.929688 13.308594 52.019531 13.230469 52.023438 13.125 L 52.109375 11.851562 C 52.125 11.863281 52.148438 11.871094 52.171875 11.875 C 52.175781 11.875 52.175781 11.875 52.179688 11.875 C 52.242188 11.875 52.296875 11.824219 52.300781 11.761719 C 52.367188 10.773438 52.140625 10.539062 52.097656 10.5 C 52.074219 10.484375 52.050781 10.472656 52.023438 10.472656 C 52.019531 10.472656 52.015625 10.472656 52.011719 10.472656 L 51.421875 10.472656 C 51.417969 10.472656 51.414062 10.472656 51.410156 10.472656 C 51.382812 10.472656 51.359375 10.484375 51.335938 10.5 C 51.289062 10.539062 51.066406 10.773438 51.132812 11.761719 C 51.136719 11.824219 51.1875 11.875 51.253906 11.875 Z M 51.253906 11.875 " fill-opacity="1" fill-rule="nonzero"/><path fill="#000000" d="M 51.714844 10.386719 C 51.90625 10.386719 52.058594 10.234375 52.058594 10.042969 C 52.058594 9.855469 51.90625 9.703125 51.714844 9.703125 C 51.527344 9.703125 51.375 9.855469 51.375 10.042969 C 51.375 10.234375 51.527344 10.386719 51.714844 10.386719 Z M 51.714844 10.386719 " fill-opacity="1" fill-rule="nonzero"/><path fill="#000000" d="M 40.09375 16.167969 C 40.046875 16.222656 40.003906 16.277344 39.960938 16.335938 L 39.546875 16.101562 L 39.324219 16.488281 L 39.734375 16.726562 C 39.707031 16.792969 39.679688 16.859375 39.652344 16.925781 L 39.191406 16.800781 L 39.074219 17.238281 L 39.535156 17.359375 C 39.523438 17.429688 39.515625 17.5 39.507812 17.574219 L 39.03125 17.574219 L 39.03125 18.023438 L 39.507812 18.023438 C 39.515625 18.09375 39.523438 18.167969 39.535156 18.234375 L 39.074219 18.359375 L 39.191406 18.792969 L 39.652344 18.671875 C 39.679688 18.738281 39.707031 18.804688 39.734375 18.867188 L 39.324219 19.105469 L 39.546875 19.496094 L 39.960938 19.257812 C 40.003906 19.316406 40.046875 19.375 40.09375 19.429688 L 39.753906 19.765625 L 40.074219 20.085938 L 40.410156 19.75 C 40.464844 19.792969 40.523438 19.835938 40.582031 19.878906 L 40.34375 20.289062 L 40.734375 20.515625 L 40.976562 20.101562 C 41.039062 20.132812 41.105469 20.160156 41.171875 20.183594 L 41.050781 20.644531 L 41.484375 20.761719 L 41.609375 20.300781 C 41.679688 20.3125 41.75 20.324219 41.824219 20.332031 L 41.824219 20.804688 L 42.273438 20.804688 L 42.273438 20.332031 C 42.347656 20.324219 42.417969 20.3125 42.488281 20.300781 L 42.613281 20.761719 L 43.046875 20.644531 L 42.925781 20.183594 C 42.992188 20.160156 43.058594 20.132812 43.125 20.101562 L 43.363281 20.515625 L 43.753906 20.289062 L 43.515625 19.878906 C 43.574219 19.835938 43.632812 19.792969 43.6875 19.75 L 44.023438 20.085938 L 44.34375 19.765625 L 44.003906 19.429688 C 44.050781 19.375 44.09375 19.316406 44.136719 19.257812 L 44.550781 19.496094 L 44.773438 19.105469 L 44.363281 18.867188 C 44.390625 18.804688 44.417969 18.738281 44.445312 18.671875 L 44.90625 18.792969 L 45.023438 18.359375 L 44.5625 18.234375 C 44.574219 18.167969 44.582031 18.09375 44.589844 18.023438 L 45.066406 18.023438 L 45.066406 17.574219 L 44.589844 17.574219 C 44.582031 17.5 44.574219 17.429688 44.5625 17.359375 L 45.023438 17.238281 L 44.90625 16.800781 L 44.445312 16.925781 C 44.417969 16.859375 44.390625 16.792969 44.363281 16.726562 L 44.773438 16.488281 L 44.550781 16.101562 L 44.136719 16.335938 C 44.09375 16.277344 44.050781 16.222656 44.003906 16.167969 L 44.34375 15.832031 L 44.023438 15.511719 L 43.6875 15.847656 C 43.632812 15.800781 43.574219 15.757812 43.515625 15.71875 L 43.753906 15.308594 L 43.363281 15.082031 L 43.125 15.492188 C 43.058594 15.464844 42.992188 15.4375 42.925781 15.410156 L 43.046875 14.953125 L 42.613281 14.835938 L 42.488281 15.296875 C 42.417969 15.28125 42.347656 15.273438 42.273438 15.265625 L 42.273438 14.792969 L 41.824219 14.792969 L 41.824219 15.265625 C 41.75 15.273438 41.679688 15.28125 41.609375 15.296875 L 41.484375 14.835938 L 41.050781 14.953125 L 41.171875 15.410156 C 41.105469 15.4375 41.039062 15.464844 40.976562 15.492188 L 40.734375 15.082031 L 40.34375 15.308594 L 40.582031 15.71875 C 40.523438 15.757812 40.464844 15.800781 40.410156 15.847656 L 40.074219 15.511719 L 39.753906 15.832031 Z M 42.050781 15.773438 C 43.171875 15.773438 44.082031 16.679688 44.082031 17.796875 C 44.082031 18.917969 43.171875 19.824219 42.050781 19.824219 C 40.925781 19.824219 40.015625 18.917969 40.015625 17.796875 C 40.015625 16.679688 40.925781 15.773438 42.050781 15.773438 Z M 42.050781 15.773438 " fill-opacity="1" fill-rule="nonzero"/><path fill="#000000" d="M 41.53125 16.804688 C 41.53125 17.089844 41.761719 17.320312 42.050781 17.320312 C 42.335938 17.320312 42.566406 17.089844 42.566406 16.804688 C 42.566406 16.519531 42.335938 16.289062 42.050781 16.289062 C 41.761719 16.289062 41.53125 16.519531 41.53125 16.804688 Z M 41.53125 16.804688 " fill-opacity="1" fill-rule="nonzero"/><path fill="#000000" d="M 42.566406 18.792969 C 42.566406 18.933594 42.515625 19.054688 42.414062 19.15625 C 42.3125 19.257812 42.191406 19.308594 42.050781 19.308594 C 41.90625 19.308594 41.785156 19.257812 41.683594 19.15625 C 41.582031 19.054688 41.53125 18.933594 41.53125 18.792969 C 41.53125 18.648438 41.582031 18.527344 41.683594 18.425781 C 41.785156 18.324219 41.90625 18.273438 42.050781 18.273438 C 42.191406 18.273438 42.3125 18.324219 42.414062 18.425781 C 42.515625 18.527344 42.566406 18.648438 42.566406 18.792969 Z M 42.566406 18.792969 " fill-opacity="1" fill-rule="nonzero"/><path fill="#000000" d="M 41.570312 17.796875 C 41.570312 17.511719 41.339844 17.28125 41.050781 17.28125 C 40.765625 17.28125 40.535156 17.511719 40.535156 17.796875 C 40.535156 18.082031 40.765625 18.316406 41.050781 18.316406 C 41.339844 18.316406 41.570312 18.082031 41.570312 17.796875 Z M 41.570312 17.796875 " fill-opacity="1" fill-rule="nonzero"/><path fill="#000000" d="M 42.527344 17.796875 C 42.527344 18.082031 42.757812 18.316406 43.046875 18.316406 C 43.332031 18.316406 43.5625 18.082031 43.5625 17.796875 C 43.5625 17.511719 43.332031 17.28125 43.046875 17.28125 C 42.757812 17.28125 42.527344 17.511719 42.527344 17.796875 Z M 42.527344 17.796875 " fill-opacity="1" fill-rule="nonzero"/><path fill="#000000" d="M 46.25 18.652344 L 46.601562 18.652344 L 46.601562 20.566406 L 46.25 20.566406 Z M 46.25 18.652344 " fill-opacity="1" fill-rule="nonzero"/><path fill="#000000" d="M 46.921875 17.386719 L 47.277344 17.386719 L 47.277344 20.566406 L 46.921875 20.566406 Z M 46.921875 17.386719 " fill-opacity="1" fill-rule="nonzero"/><path fill="#000000" d="M 47.597656 17.945312 L 47.949219 17.945312 L 47.949219 20.566406 L 47.597656 20.566406 Z M 47.597656 17.945312 " fill-opacity="1" fill-rule="nonzero"/><path fill="#000000" d="M 48.269531 17.386719 L 48.625 17.386719 L 48.625 20.566406 L 48.269531 20.566406 Z M 48.269531 17.386719 " fill-opacity="1" fill-rule="nonzero"/><path fill="#000000" d="M 48.941406 18.359375 L 49.296875 18.359375 L 49.296875 20.566406 L 48.941406 20.566406 Z M 48.941406 18.359375 " fill-opacity="1" fill-rule="nonzero"/><path fill="#000000" d="M 45.90625 20.800781 L 49.640625 20.800781 L 49.640625 20.917969 L 45.90625 20.917969 Z M 45.90625 20.800781 " fill-opacity="1" fill-rule="nonzero"/><path fill="#000000" d="M 44.503906 14.511719 L 44.75 14.53125 C 44.757812 14.425781 44.953125 12.089844 47.605469 11.8125 L 47.425781 12.21875 L 48.726562 11.6875 L 47.4375 11.132812 L 47.617188 11.566406 C 44.71875 11.851562 44.507812 14.484375 44.503906 14.511719 Z M 44.503906 14.511719 " fill-opacity="1" fill-rule="nonzero"/><path fill="#000000" d="M 38.847656 14.109375 L 39.863281 14.773438 L 39.199219 13.761719 C 39.933594 12.851562 39.878906 11.515625 39.03125 10.671875 C 38.125 9.765625 36.652344 9.765625 35.746094 10.671875 C 34.839844 11.574219 34.839844 13.042969 35.746094 13.945312 C 36.59375 14.789062 37.933594 14.84375 38.847656 14.109375 Z M 38.207031 11.6875 L 38.4375 11.6875 L 38.4375 13.136719 L 38.207031 13.136719 Z M 37.765625 11.050781 L 37.996094 11.050781 L 37.996094 13.136719 L 37.765625 13.136719 Z M 37.320312 11.417969 L 37.554688 11.417969 L 37.554688 13.136719 L 37.320312 13.136719 Z M 36.878906 11.050781 L 37.113281 11.050781 L 37.113281 13.136719 L 36.878906 13.136719 Z M 36.4375 11.882812 L 36.671875 11.882812 L 36.671875 13.136719 L 36.4375 13.136719 Z M 36.210938 13.292969 L 38.664062 13.292969 L 38.664062 13.367188 L 36.210938 13.367188 Z M 36.210938 13.292969 " fill-opacity="1" fill-rule="nonzero"/><path fill="#000000" d="M 31.976562 24.542969 C 32.183594 24.542969 32.351562 24.375 32.351562 24.167969 C 32.351562 24.09375 32.328125 24.023438 32.289062 23.960938 L 33.023438 23.285156 C 33.085938 23.335938 33.167969 23.363281 33.253906 23.363281 C 33.339844 23.363281 33.417969 23.335938 33.480469 23.285156 L 34.214844 23.960938 C 34.175781 24.023438 34.152344 24.09375 34.152344 24.167969 C 34.152344 24.375 34.320312 24.542969 34.527344 24.542969 C 34.714844 24.542969 34.867188 24.40625 34.898438 24.230469 L 35.433594 24.230469 C 35.464844 24.40625 35.617188 24.542969 35.804688 24.542969 C 36.011719 24.542969 36.179688 24.375 36.179688 24.167969 C 36.179688 24.09375 36.15625 24.019531 36.117188 23.960938 L 36.851562 23.277344 C 36.914062 23.328125 36.992188 23.359375 37.078125 23.359375 C 37.285156 23.359375 37.453125 23.191406 37.453125 22.984375 C 37.453125 22.777344 37.285156 22.609375 37.078125 22.609375 C 36.871094 22.609375 36.703125 22.777344 36.703125 22.984375 C 36.703125 23.058594 36.726562 23.132812 36.765625 23.191406 L 36.03125 23.875 C 35.96875 23.824219 35.890625 23.792969 35.804688 23.792969 C 35.617188 23.792969 35.464844 23.929688 35.433594 24.105469 L 34.898438 24.105469 C 34.867188 23.929688 34.714844 23.792969 34.527344 23.792969 C 34.441406 23.792969 34.363281 23.824219 34.300781 23.875 L 33.566406 23.195312 C 33.605469 23.136719 33.628906 23.066406 33.628906 22.992188 C 33.628906 22.785156 33.460938 22.617188 33.253906 22.617188 C 33.046875 22.617188 32.878906 22.785156 32.878906 22.992188 C 32.878906 23.066406 32.902344 23.136719 32.941406 23.195312 L 32.207031 23.875 C 32.140625 23.824219 32.0625 23.792969 31.976562 23.792969 C 31.769531 23.792969 31.601562 23.960938 31.601562 24.167969 C 31.601562 24.375 31.769531 24.542969 31.976562 24.542969 Z M 32.230469 24.167969 C 32.230469 24.308594 32.117188 24.417969 31.976562 24.417969 C 31.839844 24.417969 31.726562 24.308594 31.726562 24.167969 C 31.726562 24.03125 31.839844 23.917969 31.976562 23.917969 C 32.117188 23.917969 32.230469 24.03125 32.230469 24.167969 Z M 33 22.992188 C 33 22.851562 33.113281 22.738281 33.253906 22.738281 C 33.390625 22.738281 33.503906 22.851562 33.503906 22.992188 C 33.503906 23.128906 33.390625 23.242188 33.253906 23.242188 C 33.113281 23.242188 33 23.128906 33 22.992188 Z M 34.527344 23.917969 C 34.667969 23.917969 34.78125 24.03125 34.78125 24.167969 C 34.78125 24.308594 34.667969 24.417969 34.527344 24.417969 C 34.390625 24.417969 34.277344 24.308594 34.277344 24.167969 C 34.277344 24.03125 34.390625 23.917969 34.527344 23.917969 Z M 35.550781 24.167969 C 35.550781 24.03125 35.664062 23.917969 35.804688 23.917969 C 35.941406 23.917969 36.054688 24.03125 36.054688 24.167969 C 36.054688 24.308594 35.941406 24.417969 35.804688 24.417969 C 35.664062 24.417969 35.550781 24.308594 35.550781 24.167969 Z M 36.828125 22.984375 C 36.828125 22.84375 36.941406 22.734375 37.078125 22.734375 C 37.21875 22.734375 37.332031 22.84375 37.332031 22.984375 C 37.332031 23.121094 37.21875 23.234375 37.078125 23.234375 C 36.941406 23.234375 36.828125 23.121094 36.828125 22.984375 Z M 36.828125 22.984375 " fill-opacity="1" fill-rule="nonzero"/><path fill="#000000" d="M 52.144531 21.328125 C 52.230469 21.035156 52.28125 20.667969 52.28125 20.273438 C 52.28125 19.304688 51.597656 18.515625 51.597656 18.515625 C 51.597656 18.515625 50.910156 19.304688 50.910156 20.273438 C 50.910156 20.667969 50.960938 21.035156 51.050781 21.328125 L 50.859375 21.328125 L 50.546875 22.433594 L 51.421875 22.433594 L 51.421875 21.96875 C 51.460938 21.996094 51.5 22.011719 51.542969 22.019531 L 51.542969 22.507812 L 51.648438 22.507812 L 51.648438 22.019531 C 51.691406 22.011719 51.730469 21.996094 51.769531 21.96875 L 51.769531 22.433594 L 52.644531 22.433594 L 52.335938 21.328125 Z M 51.597656 20.59375 C 51.382812 20.59375 51.207031 20.417969 51.207031 20.203125 C 51.207031 19.988281 51.382812 19.816406 51.597656 19.816406 C 51.8125 19.816406 51.988281 19.988281 51.988281 20.203125 C 51.988281 20.417969 51.8125 20.59375 51.597656 20.59375 Z M 51.597656 20.59375 " fill-opacity="1" fill-rule="nonzero"/><path fill="#000000" d="M 51.914062 22.609375 C 51.914062 22.609375 51.914062 22.832031 51.914062 22.941406 C 51.914062 23.050781 51.808594 23.265625 51.597656 23.433594 C 51.382812 23.265625 51.28125 23.050781 51.28125 22.941406 C 51.28125 22.832031 51.28125 22.609375 51.28125 22.609375 C 51.28125 22.609375 50.984375 22.773438 50.984375 23.019531 C 50.984375 23.261719 51.597656 24.292969 51.597656 24.292969 C 51.597656 24.292969 52.207031 23.261719 52.207031 23.019531 C 52.207031 22.773438 51.914062 22.609375 51.914062 22.609375 Z M 51.914062 22.609375 " fill-opacity="1" fill-rule="nonzero"/><path fill="#000000" d="M 51.765625 20.203125 C 51.765625 20.316406 51.707031 20.371094 51.597656 20.371094 C 51.484375 20.371094 51.429688 20.316406 51.429688 20.203125 C 51.429688 20.09375 51.484375 20.035156 51.597656 20.035156 C 51.707031 20.035156 51.765625 20.09375 51.765625 20.203125 Z M 51.765625 20.203125 " fill-opacity="1" fill-rule="nonzero"/><path fill="#000000" d="M 49.808594 23.128906 C 49.734375 23.128906 49.664062 23.152344 49.609375 23.195312 L 48.347656 22.242188 L 46.863281 22.242188 L 46.863281 22.425781 L 48.285156 22.425781 L 49.496094 23.34375 C 49.480469 23.378906 49.472656 23.421875 49.472656 23.464844 C 49.472656 23.648438 49.625 23.800781 49.808594 23.800781 C 49.996094 23.800781 50.148438 23.648438 50.148438 23.464844 C 50.148438 23.277344 49.996094 23.128906 49.808594 23.128906 Z M 49.808594 23.128906 " fill-opacity="1" fill-rule="nonzero"/><path fill="#000000" d="M 44.132812 22.113281 L 46.585938 22.113281 L 46.585938 22.542969 L 44.132812 22.542969 Z M 44.132812 22.113281 " fill-opacity="1" fill-rule="nonzero"/><path fill="#000000" d="M 33.953125 9.46875 C 33.765625 9.472656 33.558594 9.484375 33.480469 9.472656 C 33.292969 9.445312 32.511719 9.4375 32.398438 9.453125 C 32.28125 9.472656 31.796875 9.515625 31.726562 9.5 C 31.644531 9.472656 31.304688 9.492188 31.113281 9.503906 L 31.125 9.6875 C 31.347656 9.671875 31.621094 9.664062 31.667969 9.675781 C 31.78125 9.710938 32.375 9.644531 32.429688 9.636719 C 32.511719 9.621094 33.277344 9.628906 33.453125 9.652344 C 33.546875 9.667969 33.746094 9.660156 33.960938 9.652344 C 34.105469 9.644531 34.308594 9.636719 34.347656 9.644531 L 34.390625 9.46875 C 34.332031 9.453125 34.191406 9.457031 33.953125 9.46875 Z M 33.953125 9.46875 " fill-opacity="1" fill-rule="nonzero"/><path fill="#000000" d="M 31.667969 10.152344 C 31.78125 10.1875 32.375 10.121094 32.429688 10.113281 C 32.511719 10.097656 33.277344 10.105469 33.453125 10.128906 C 33.546875 10.144531 33.746094 10.136719 33.960938 10.125 C 34.105469 10.121094 34.308594 10.113281 34.347656 10.121094 L 34.390625 9.945312 C 34.332031 9.929688 34.191406 9.933594 33.953125 9.941406 C 33.765625 9.949219 33.558594 9.960938 33.480469 9.949219 C 33.292969 9.921875 32.511719 9.914062 32.398438 9.929688 C 32.28125 9.949219 31.792969 9.992188 31.726562 9.976562 C 31.644531 9.949219 31.304688 9.96875 31.113281 9.980469 L 31.125 10.164062 C 31.347656 10.148438 31.621094 10.140625 31.667969 10.152344 Z M 31.667969 10.152344 " fill-opacity="1" fill-rule="nonzero"/><path fill="#000000" d="M 31.667969 10.992188 C 31.78125 11.027344 32.375 10.960938 32.429688 10.953125 C 32.511719 10.9375 33.277344 10.941406 33.453125 10.96875 C 33.546875 10.984375 33.746094 10.976562 33.960938 10.964844 C 34.105469 10.960938 34.308594 10.953125 34.347656 10.960938 L 34.390625 10.78125 C 34.332031 10.769531 34.191406 10.773438 33.953125 10.78125 C 33.765625 10.789062 33.558594 10.796875 33.480469 10.785156 C 33.292969 10.757812 32.511719 10.75 32.398438 10.769531 C 32.28125 10.789062 31.792969 10.832031 31.726562 10.816406 C 31.644531 10.789062 31.304688 10.808594 31.113281 10.820312 L 31.125 11.003906 C 31.347656 10.988281 31.621094 10.980469 31.667969 10.992188 Z M 31.667969 10.992188 " fill-opacity="1" fill-rule="nonzero"/><path fill="#000000" d="M 33.953125 11.257812 C 33.765625 11.265625 33.558594 11.273438 33.480469 11.261719 C 33.292969 11.234375 32.511719 11.226562 32.398438 11.246094 C 32.28125 11.265625 31.796875 11.304688 31.726562 11.292969 C 31.644531 11.265625 31.304688 11.28125 31.113281 11.296875 L 31.125 11.480469 C 31.347656 11.464844 31.621094 11.457031 31.667969 11.464844 C 31.78125 11.503906 32.375 11.4375 32.429688 11.425781 C 32.511719 11.414062 33.277344 11.417969 33.453125 11.445312 C 33.546875 11.460938 33.746094 11.449219 33.960938 11.441406 C 34.105469 11.4375 34.308594 11.429688 34.347656 11.4375 L 34.390625 11.257812 C 34.332031 11.246094 34.191406 11.25 33.953125 11.257812 Z M 33.953125 11.257812 " fill-opacity="1" fill-rule="nonzero"/><path fill="#000000" d="M 41.535156 9.640625 C 41.714844 9.667969 42.878906 9.613281 43.058594 9.597656 C 43.265625 9.582031 44.894531 9.589844 45.246094 9.617188 C 45.433594 9.628906 45.867188 9.621094 46.285156 9.613281 C 46.65625 9.605469 47.042969 9.597656 47.140625 9.609375 L 47.160156 9.425781 C 47.050781 9.414062 46.695312 9.421875 46.28125 9.429688 C 45.886719 9.4375 45.4375 9.445312 45.261719 9.433594 C 44.894531 9.40625 43.265625 9.398438 43.042969 9.414062 C 42.808594 9.433594 41.707031 9.480469 41.5625 9.460938 C 41.398438 9.433594 40.4375 9.464844 40.328125 9.464844 L 40.332031 9.648438 C 40.753906 9.636719 41.421875 9.621094 41.535156 9.640625 Z M 41.535156 9.640625 " fill-opacity="1" fill-rule="nonzero"/><path fill="#000000" d="M 41.535156 10.117188 C 41.714844 10.144531 42.878906 10.089844 43.058594 10.074219 C 43.265625 10.058594 44.894531 10.066406 45.246094 10.09375 C 45.433594 10.105469 45.867188 10.097656 46.285156 10.089844 C 46.65625 10.082031 47.042969 10.074219 47.140625 10.085938 L 47.160156 9.902344 C 47.050781 9.890625 46.695312 9.898438 46.28125 9.90625 C 45.867188 9.914062 45.4375 9.921875 45.261719 9.910156 C 44.894531 9.882812 43.265625 9.875 43.042969 9.890625 C 42.808594 9.910156 41.707031 9.957031 41.5625 9.9375 C 41.398438 9.910156 40.4375 9.941406 40.328125 9.941406 L 40.332031 10.125 C 40.753906 10.113281 41.421875 10.097656 41.535156 10.117188 Z M 41.535156 10.117188 " fill-opacity="1" fill-rule="nonzero"/><path fill="#000000" d="M 40.882812 10.953125 C 40.996094 10.992188 41.585938 10.921875 41.644531 10.914062 C 41.722656 10.898438 42.492188 10.90625 42.664062 10.929688 C 42.761719 10.945312 42.960938 10.9375 43.171875 10.929688 C 43.320312 10.921875 43.519531 10.914062 43.558594 10.921875 L 43.605469 10.746094 C 43.546875 10.730469 43.40625 10.734375 43.164062 10.746094 C 42.980469 10.753906 42.769531 10.761719 42.691406 10.75 C 42.507812 10.722656 41.726562 10.714844 41.613281 10.734375 C 41.492188 10.753906 41.007812 10.792969 40.941406 10.777344 C 40.859375 10.75 40.519531 10.769531 40.324219 10.78125 L 40.335938 10.964844 C 40.5625 10.949219 40.835938 10.941406 40.882812 10.953125 Z M 40.882812 10.953125 " fill-opacity="1" fill-rule="nonzero"/><path fill="#000000" d="M 40.882812 11.429688 C 40.996094 11.464844 41.589844 11.398438 41.644531 11.390625 C 41.726562 11.375 42.492188 11.382812 42.664062 11.40625 C 42.761719 11.421875 42.960938 11.414062 43.171875 11.40625 C 43.320312 11.398438 43.519531 11.390625 43.558594 11.398438 L 43.605469 11.222656 C 43.546875 11.207031 43.40625 11.210938 43.164062 11.222656 C 42.980469 11.230469 42.769531 11.238281 42.691406 11.226562 C 42.507812 11.199219 41.726562 11.191406 41.613281 11.207031 C 41.492188 11.230469 41.007812 11.269531 40.941406 11.253906 C 40.859375 11.226562 40.519531 11.246094 40.324219 11.257812 L 40.335938 11.441406 C 40.5625 11.425781 40.835938 11.417969 40.882812 11.429688 Z M 40.882812 11.429688 " fill-opacity="1" fill-rule="nonzero"/><g clip-path="url(#37b260a344)"><path fill="#000000" d="M 20.796875 27.59375 C 20.964844 27.714844 21.171875 27.78125 21.375 27.78125 C 21.472656 27.78125 21.570312 27.765625 21.664062 27.738281 L 21.996094 27.636719 L 21.746094 24.367188 L 22.054688 24.367188 L 22.425781 29.214844 L 22.371094 42.066406 C 22.367188 42.90625 23.042969 43.585938 23.882812 43.589844 C 24.722656 43.59375 25.40625 42.917969 25.410156 42.082031 L 25.460938 30.886719 L 26.28125 30.824219 L 28.121094 42.3125 C 28.253906 43.140625 29.03125 43.703125 29.859375 43.570312 C 30.6875 43.4375 31.253906 42.664062 31.121094 41.835938 L 29.09375 29.164062 L 28.726562 24.335938 L 28.601562 22.714844 L 28.566406 22.226562 L 32.136719 21.691406 C 32.378906 21.65625 32.597656 21.53125 32.753906 21.339844 L 35.625 17.820312 C 35.96875 17.398438 35.90625 16.78125 35.484375 16.441406 C 35.46875 16.429688 35.453125 16.417969 35.4375 16.40625 L 35.910156 15.316406 L 35.539062 15.15625 L 35.066406 16.242188 C 34.714844 16.171875 34.339844 16.289062 34.101562 16.582031 L 31.46875 19.808594 L 27.238281 20.445312 C 27.222656 20.445312 27.210938 20.449219 27.199219 20.453125 L 26.207031 20.527344 L 22.730469 20.792969 C 22.652344 20.800781 22.578125 20.816406 22.507812 20.839844 C 22.277344 20.902344 21.96875 21.042969 21.660156 21.355469 C 20.777344 22.25 20.363281 24.035156 20.394531 26.8125 C 20.394531 27.121094 20.546875 27.410156 20.796875 27.59375 Z M 20.796875 27.59375 " fill-opacity="1" fill-rule="nonzero"/></g><path fill="#000000" d="M 27.488281 16.398438 C 27.589844 16.75 27.621094 17.109375 27.582031 17.472656 C 27.539062 17.835938 27.429688 18.175781 27.253906 18.496094 C 27.078125 18.816406 26.847656 19.089844 26.558594 19.320312 C 26.273438 19.546875 25.957031 19.714844 25.601562 19.816406 C 25.25 19.917969 24.890625 19.949219 24.527344 19.910156 C 24.164062 19.867188 23.820312 19.761719 23.5 19.585938 C 23.175781 19.40625 22.902344 19.175781 22.671875 18.890625 C 22.445312 18.605469 22.277344 18.289062 22.175781 17.9375 C 22.074219 17.585938 22.042969 17.230469 22.082031 16.867188 C 22.121094 16.503906 22.230469 16.160156 22.40625 15.839844 C 22.582031 15.519531 22.816406 15.246094 23.101562 15.019531 C 23.386719 14.789062 23.707031 14.625 24.058594 14.523438 C 24.410156 14.417969 24.769531 14.390625 25.132812 14.429688 C 25.5 14.46875 25.839844 14.578125 26.164062 14.753906 C 26.484375 14.929688 26.761719 15.160156 26.988281 15.445312 C 27.21875 15.730469 27.382812 16.046875 27.488281 16.398438 Z M 27.488281 16.398438 " fill-opacity="1" fill-rule="nonzero"/><path fill="#000000" d="M 49.492188 15.757812 C 49.492188 16.578125 50.160156 17.246094 50.988281 17.246094 C 51.8125 17.246094 52.484375 16.578125 52.484375 15.757812 C 52.484375 14.933594 51.8125 14.265625 50.988281 14.265625 C 50.160156 14.265625 49.492188 14.933594 49.492188 15.757812 Z M 50.988281 14.550781 C 51.652344 14.550781 52.199219 15.089844 52.199219 15.757812 C 52.199219 16.039062 52.101562 16.296875 51.9375 16.503906 L 50.238281 14.808594 C 50.445312 14.644531 50.703125 14.550781 50.988281 14.550781 Z M 51.734375 16.703125 C 51.527344 16.867188 51.269531 16.964844 50.988281 16.964844 C 50.320312 16.964844 49.773438 16.421875 49.773438 15.757812 C 49.773438 15.472656 49.871094 15.214844 50.035156 15.007812 Z M 51.734375 16.703125 " fill-opacity="1" fill-rule="nonzero"/><path fill="#000000" d="M 35.761719 19.894531 C 35.871094 19.929688 36.464844 19.863281 36.519531 19.855469 C 36.601562 19.839844 37.371094 19.847656 37.542969 19.871094 C 37.636719 19.886719 37.839844 19.878906 38.050781 19.871094 C 38.199219 19.863281 38.398438 19.855469 38.4375 19.863281 L 38.484375 19.6875 C 38.421875 19.671875 38.285156 19.675781 38.042969 19.6875 C 37.859375 19.691406 37.648438 19.703125 37.570312 19.691406 C 37.402344 19.664062 36.613281 19.652344 36.492188 19.671875 C 36.371094 19.691406 35.886719 19.734375 35.820312 19.71875 C 35.738281 19.691406 35.398438 19.710938 35.203125 19.722656 L 35.214844 19.90625 C 35.441406 19.890625 35.714844 19.882812 35.761719 19.894531 Z M 35.761719 19.894531 " fill-opacity="1" fill-rule="nonzero"/><path fill="#000000" d="M 35.761719 20.371094 C 35.875 20.40625 36.464844 20.339844 36.519531 20.332031 C 36.601562 20.316406 37.371094 20.324219 37.542969 20.347656 C 37.636719 20.363281 37.839844 20.355469 38.050781 20.347656 C 38.199219 20.339844 38.398438 20.332031 38.4375 20.339844 L 38.484375 20.164062 C 38.421875 20.148438 38.285156 20.152344 38.042969 20.164062 C 37.859375 20.167969 37.648438 20.179688 37.570312 20.167969 C 37.386719 20.140625 36.601562 20.132812 36.492188 20.148438 C 36.371094 20.167969 35.886719 20.210938 35.816406 20.195312 C 35.738281 20.167969 35.398438 20.1875 35.203125 20.199219 L 35.214844 20.382812 C 35.441406 20.367188 35.714844 20.359375 35.761719 20.371094 Z M 35.761719 20.371094 " fill-opacity="1" fill-rule="nonzero"/><path fill="#000000" d="M 35.761719 21.210938 C 35.875 21.246094 36.464844 21.179688 36.519531 21.171875 C 36.601562 21.15625 37.371094 21.160156 37.542969 21.1875 C 37.636719 21.203125 37.839844 21.195312 38.050781 21.183594 C 38.199219 21.179688 38.398438 21.171875 38.4375 21.179688 L 38.484375 21 C 38.421875 20.988281 38.285156 20.992188 38.042969 21 C 37.859375 21.007812 37.648438 21.015625 37.570312 21.003906 C 37.386719 20.976562 36.601562 20.96875 36.492188 20.988281 C 36.371094 21.007812 35.886719 21.050781 35.816406 21.035156 C 35.738281 21.007812 35.398438 21.027344 35.203125 21.039062 L 35.214844 21.222656 C 35.441406 21.207031 35.714844 21.199219 35.761719 21.210938 Z M 35.761719 21.210938 " fill-opacity="1" fill-rule="nonzero"/><path fill="#000000" d="M 35.761719 21.6875 C 35.871094 21.722656 36.464844 21.65625 36.519531 21.648438 C 36.601562 21.632812 37.371094 21.636719 37.542969 21.664062 C 37.636719 21.679688 37.839844 21.671875 38.050781 21.660156 C 38.199219 21.65625 38.398438 21.648438 38.4375 21.65625 L 38.484375 21.476562 C 38.421875 21.464844 38.285156 21.46875 38.042969 21.476562 C 37.859375 21.484375 37.648438 21.492188 37.570312 21.480469 C 37.402344 21.457031 36.613281 21.445312 36.492188 21.464844 C 36.371094 21.484375 35.886719 21.527344 35.820312 21.511719 C 35.738281 21.484375 35.398438 21.503906 35.203125 21.515625 L 35.214844 21.699219 C 35.441406 21.683594 35.714844 21.675781 35.761719 21.6875 Z M 35.761719 21.6875 " fill-opacity="1" fill-rule="nonzero"/><path fill="#000000" d="M 32.222656 12.742188 L 31.804688 13.15625 L 31.386719 12.742188 L 31.238281 12.890625 L 31.65625 13.308594 L 31.238281 13.722656 L 31.386719 13.875 L 31.804688 13.457031 L 32.222656 13.875 L 32.375 13.722656 L 31.957031 13.308594 L 32.375 12.890625 Z M 32.222656 12.742188 " fill-opacity="1" fill-rule="nonzero"/><path fill="#000000" d="M 33.984375 12.742188 L 33.566406 13.15625 L 33.148438 12.742188 L 32.996094 12.890625 L 33.414062 13.308594 L 32.996094 13.722656 L 33.148438 13.875 L 33.566406 13.457031 L 33.984375 13.875 L 34.132812 13.722656 L 33.714844 13.308594 L 34.132812 12.890625 Z M 33.984375 12.742188 " fill-opacity="1" fill-rule="nonzero"/><path fill="#000000" d="M 41.5625 12.742188 L 41.144531 13.15625 L 40.726562 12.742188 L 40.574219 12.890625 L 40.992188 13.308594 L 40.574219 13.722656 L 40.726562 13.875 L 41.144531 13.457031 L 41.5625 13.875 L 41.710938 13.722656 L 41.292969 13.308594 L 41.710938 12.890625 Z M 41.5625 12.742188 " fill-opacity="1" fill-rule="nonzero"/><path fill="#000000" d="M 43.320312 12.742188 L 42.902344 13.15625 L 42.484375 12.742188 L 42.335938 12.890625 L 42.753906 13.308594 L 42.335938 13.722656 L 42.484375 13.875 L 42.902344 13.457031 L 43.320312 13.875 L 43.472656 13.722656 L 43.054688 13.308594 L 43.472656 12.890625 Z M 43.320312 12.742188 " fill-opacity="1" fill-rule="nonzero"/><path fill="#000000" d="M 46.625 15.09375 L 46.625 15.511719 C 46.761719 15.574219 46.957031 15.597656 47.136719 15.601562 L 47.136719 15.917969 L 47.339844 15.917969 L 47.339844 15.589844 C 47.65625 15.539062 47.839844 15.359375 47.839844 15.066406 C 47.839844 14.738281 47.582031 14.636719 47.339844 14.5625 L 47.339844 14.066406 C 47.386719 14.070312 47.429688 14.082031 47.457031 14.085938 C 47.5 14.097656 47.507812 14.117188 47.507812 14.164062 L 47.507812 14.332031 L 47.769531 14.3125 L 47.769531 13.90625 C 47.652344 13.855469 47.488281 13.820312 47.339844 13.8125 L 47.339844 13.570312 L 47.136719 13.570312 L 47.136719 13.820312 C 46.828125 13.859375 46.628906 14.042969 46.628906 14.320312 C 46.628906 14.65625 46.890625 14.753906 47.136719 14.816406 L 47.136719 15.34375 C 47.0625 15.34375 46.976562 15.335938 46.9375 15.324219 C 46.898438 15.308594 46.890625 15.289062 46.890625 15.246094 L 46.890625 15.074219 Z M 47.339844 14.882812 C 47.429688 14.925781 47.488281 14.988281 47.488281 15.09375 C 47.488281 15.21875 47.425781 15.285156 47.339844 15.316406 Z M 46.972656 14.285156 C 46.972656 14.167969 47.042969 14.109375 47.136719 14.082031 L 47.136719 14.496094 C 47.03125 14.453125 46.972656 14.394531 46.972656 14.285156 Z M 46.972656 14.285156 " fill-opacity="1" fill-rule="nonzero"/><path fill="#000000" d="M 40.191406 23.339844 L 40.386719 23.226562 L 40.226562 22.949219 L 40.027344 23.0625 C 40.003906 23.035156 39.976562 23.007812 39.949219 22.980469 L 40.0625 22.785156 L 39.78125 22.625 L 39.667969 22.820312 C 39.632812 22.808594 39.597656 22.796875 39.558594 22.789062 L 39.558594 22.5625 L 39.234375 22.5625 L 39.234375 22.789062 C 39.195312 22.796875 39.160156 22.808594 39.125 22.820312 L 39.011719 22.625 L 38.730469 22.785156 L 38.84375 22.980469 C 38.816406 23.007812 38.789062 23.035156 38.765625 23.0625 L 38.566406 22.949219 L 38.40625 23.226562 L 38.601562 23.339844 C 38.589844 23.375 38.578125 23.414062 38.570312 23.449219 L 38.34375 23.449219 L 38.34375 23.773438 L 38.570312 23.773438 C 38.578125 23.8125 38.589844 23.847656 38.601562 23.882812 L 38.40625 23.996094 L 38.566406 24.277344 L 38.765625 24.164062 C 38.789062 24.191406 38.816406 24.21875 38.84375 24.242188 L 38.730469 24.4375 L 39.011719 24.601562 L 39.125 24.402344 C 39.160156 24.414062 39.195312 24.425781 39.234375 24.433594 L 39.234375 24.660156 L 39.558594 24.660156 L 39.558594 24.433594 C 39.597656 24.425781 39.632812 24.414062 39.667969 24.402344 L 39.78125 24.601562 L 40.0625 24.4375 L 39.949219 24.242188 C 39.976562 24.21875 40.003906 24.191406 40.027344 24.164062 L 40.226562 24.277344 L 40.386719 23.996094 L 40.191406 23.882812 C 40.203125 23.847656 40.214844 23.8125 40.21875 23.773438 L 40.449219 23.773438 L 40.449219 23.449219 L 40.21875 23.449219 C 40.214844 23.414062 40.203125 23.375 40.191406 23.339844 Z M 39.394531 24.234375 C 39.050781 24.234375 38.773438 23.953125 38.773438 23.613281 C 38.773438 23.269531 39.050781 22.992188 39.394531 22.992188 C 39.742188 22.992188 40.019531 23.269531 40.019531 23.613281 C 40.019531 23.953125 39.742188 24.234375 39.394531 24.234375 Z M 39.394531 24.234375 " fill-opacity="1" fill-rule="nonzero"/><path fill="#000000" d="M 39.585938 23.613281 C 39.585938 23.738281 39.523438 23.800781 39.394531 23.800781 C 39.269531 23.800781 39.207031 23.738281 39.207031 23.613281 C 39.207031 23.484375 39.269531 23.421875 39.394531 23.421875 C 39.523438 23.421875 39.585938 23.484375 39.585938 23.613281 Z M 39.585938 23.613281 " fill-opacity="1" fill-rule="nonzero"/><path fill="#000000" d="M 42.84375 23.339844 L 43.039062 23.226562 L 42.878906 22.949219 L 42.679688 23.0625 C 42.65625 23.035156 42.628906 23.007812 42.601562 22.980469 L 42.714844 22.785156 L 42.433594 22.625 L 42.320312 22.820312 C 42.285156 22.808594 42.25 22.796875 42.210938 22.789062 L 42.210938 22.5625 L 41.886719 22.5625 L 41.886719 22.789062 C 41.847656 22.796875 41.8125 22.808594 41.777344 22.820312 L 41.664062 22.625 L 41.382812 22.785156 L 41.496094 22.980469 C 41.46875 23.007812 41.441406 23.03125 41.417969 23.0625 L 41.21875 22.949219 L 41.058594 23.226562 L 41.253906 23.339844 C 41.242188 23.375 41.230469 23.414062 41.226562 23.449219 L 40.996094 23.449219 L 40.996094 23.773438 L 41.226562 23.773438 C 41.230469 23.8125 41.242188 23.847656 41.253906 23.882812 L 41.058594 23.996094 L 41.21875 24.277344 L 41.417969 24.164062 C 41.441406 24.191406 41.46875 24.21875 41.496094 24.242188 L 41.382812 24.4375 L 41.664062 24.601562 L 41.777344 24.402344 C 41.8125 24.414062 41.847656 24.425781 41.886719 24.433594 L 41.886719 24.660156 L 42.210938 24.660156 L 42.210938 24.433594 C 42.25 24.425781 42.285156 24.414062 42.320312 24.402344 L 42.433594 24.601562 L 42.714844 24.4375 L 42.601562 24.242188 C 42.628906 24.21875 42.65625 24.191406 42.679688 24.160156 L 42.878906 24.277344 L 43.039062 23.996094 L 42.84375 23.882812 C 42.855469 23.847656 42.867188 23.8125 42.875 23.773438 L 43.101562 23.773438 L 43.101562 23.449219 L 42.875 23.449219 C 42.867188 23.414062 42.855469 23.375 42.84375 23.339844 Z M 42.050781 24.234375 C 41.703125 24.234375 41.425781 23.953125 41.425781 23.613281 C 41.425781 23.269531 41.703125 22.992188 42.050781 22.992188 C 42.394531 22.992188 42.671875 23.269531 42.671875 23.613281 C 42.671875 23.953125 42.394531 24.234375 42.050781 24.234375 Z M 42.050781 24.234375 " fill-opacity="1" fill-rule="nonzero"/><path fill="#000000" d="M 42.238281 23.613281 C 42.238281 23.507812 42.152344 23.421875 42.050781 23.421875 C 41.945312 23.421875 41.859375 23.507812 41.859375 23.613281 C 41.859375 23.714844 41.945312 23.800781 42.050781 23.800781 C 42.152344 23.800781 42.238281 23.714844 42.238281 23.613281 Z M 42.238281 23.613281 " fill-opacity="1" fill-rule="nonzero"/></svg>