<svg xmlns="http://www.w3.org/2000/svg" xmlns:xlink="http://www.w3.org/1999/xlink" width="100" zoomAndPan="magnify" viewBox="0 0 75 52.499999" height="70" preserveAspectRatio="xMidYMid meet" version="1.0"><defs><clipPath id="0b182e64f4"><path d="M 19.769531 8.882812 L 55.429688 8.882812 L 55.429688 43.058594 L 19.769531 43.058594 Z M 19.769531 8.882812 " clip-rule="nonzero"/></clipPath></defs><g clip-path="url(#0b182e64f4)"><path fill="#f5e8da" d="M 54.773438 19.3125 L 51.011719 19.3125 L 54.253906 13.167969 C 54.253906 13.167969 54.253906 13.167969 54.253906 13.164062 L 55.277344 11.222656 C 55.421875 10.949219 55.316406 10.605469 55.035156 10.460938 L 52.28125 9.03125 C 52 8.886719 51.65625 8.992188 51.511719 9.269531 L 46.214844 19.3125 L 28.484375 19.3125 L 28.484375 9.53125 C 28.484375 9.21875 28.226562 8.964844 27.914062 8.964844 L 24.128906 8.964844 C 22.949219 8.964844 21.871094 9.4375 21.085938 10.203125 L 21.050781 10.230469 C 20.261719 11.015625 19.773438 12.097656 19.773438 13.285156 L 19.773438 38.734375 C 19.773438 39.921875 20.261719 41 21.050781 41.785156 L 21.054688 41.785156 C 21.84375 42.570312 22.929688 43.054688 24.128906 43.054688 L 54.773438 43.054688 C 55.089844 43.054688 55.34375 42.800781 55.34375 42.488281 L 55.34375 19.878906 C 55.34375 19.566406 55.089844 19.3125 54.773438 19.3125 Z M 46.027344 25.65625 L 44.746094 26.648438 L 44.835938 25.039062 L 45.988281 25.636719 Z M 46.832031 24.800781 L 45.300781 24.003906 L 45.085938 23.890625 L 47.039062 20.183594 C 47.058594 20.15625 47.074219 20.125 47.085938 20.09375 L 51.230469 12.234375 L 52.980469 13.144531 L 49.585938 19.578125 C 49.570312 19.605469 49.554688 19.632812 49.542969 19.660156 Z M 52.257812 10.292969 L 54.003906 11.203125 L 53.507812 12.140625 L 51.761719 11.234375 Z M 20.917969 13.285156 C 20.917969 12.410156 21.277344 11.613281 21.859375 11.035156 L 21.886719 11.007812 C 22.464844 10.445312 23.257812 10.097656 24.128906 10.097656 L 27.339844 10.097656 L 27.339844 31.574219 L 24.128906 31.574219 C 22.929688 31.574219 21.84375 32.058594 21.054688 32.84375 L 20.917969 32.984375 Z M 54.203125 41.921875 L 24.128906 41.921875 C 23.246094 41.921875 22.441406 41.5625 21.859375 40.984375 C 21.277344 40.40625 20.917969 39.609375 20.917969 38.734375 L 20.917969 35.894531 C 20.917969 35.019531 21.277344 34.222656 21.859375 33.644531 C 22.441406 33.066406 23.246094 32.707031 24.128906 32.707031 L 27.914062 32.707031 C 28.226562 32.707031 28.484375 32.453125 28.484375 32.140625 L 28.484375 20.445312 L 45.617188 20.445312 L 43.8125 23.867188 C 43.808594 23.875 43.804688 23.882812 43.800781 23.890625 C 43.796875 23.898438 43.792969 23.910156 43.789062 23.921875 C 43.78125 23.933594 43.78125 23.945312 43.777344 23.953125 C 43.773438 23.960938 43.769531 23.96875 43.769531 23.976562 C 43.765625 23.992188 43.761719 24.007812 43.757812 24.023438 C 43.757812 24.023438 43.757812 24.027344 43.757812 24.03125 C 43.753906 24.054688 43.75 24.078125 43.746094 24.101562 L 43.535156 27.828125 C 43.519531 28.140625 43.761719 28.410156 44.074219 28.425781 C 44.230469 28.433594 44.371094 28.382812 44.480469 28.289062 L 47.425781 26.007812 C 47.425781 26.007812 47.429688 26.003906 47.429688 26 C 47.4375 25.996094 47.441406 25.992188 47.449219 25.988281 C 47.457031 25.980469 47.464844 25.972656 47.476562 25.964844 C 47.480469 25.960938 47.484375 25.953125 47.488281 25.953125 C 47.496094 25.941406 47.503906 25.933594 47.515625 25.921875 C 47.515625 25.917969 47.519531 25.917969 47.519531 25.914062 C 47.53125 25.898438 47.539062 25.886719 47.546875 25.875 C 47.546875 25.871094 47.550781 25.871094 47.550781 25.871094 C 47.558594 25.855469 47.570312 25.839844 47.578125 25.824219 L 50.414062 20.445312 L 54.203125 20.445312 Z M 44.558594 30.011719 C 44.242188 30.011719 43.984375 30.265625 43.984375 30.578125 L 43.984375 32.925781 C 43.195312 33.046875 42.488281 33.417969 41.945312 33.953125 L 41.945312 33.957031 C 41.277344 34.621094 40.867188 35.535156 40.867188 36.546875 C 40.867188 37.539062 41.265625 38.441406 41.914062 39.105469 L 41.949219 39.136719 C 42.617188 39.800781 43.539062 40.210938 44.558594 40.210938 C 45.5625 40.210938 46.46875 39.8125 47.136719 39.167969 L 47.171875 39.136719 C 47.710938 38.601562 48.085938 37.898438 48.207031 37.113281 L 50.570312 37.113281 C 50.886719 37.113281 51.144531 36.859375 51.144531 36.546875 L 51.144531 30.582031 C 51.144531 30.265625 50.886719 30.011719 50.570312 30.011719 Z M 45.128906 34.078125 C 45.605469 34.1875 46.027344 34.425781 46.359375 34.753906 C 46.691406 35.085938 46.933594 35.507812 47.042969 35.976562 L 45.128906 35.976562 Z M 46.359375 38.335938 L 46.335938 38.363281 C 45.875 38.804688 45.25 39.074219 44.558594 39.074219 C 43.851562 39.074219 43.214844 38.792969 42.753906 38.335938 L 42.726562 38.308594 C 42.28125 37.855469 42.007812 37.230469 42.007812 36.546875 C 42.007812 35.847656 42.292969 35.214844 42.753906 34.757812 C 43.085938 34.425781 43.511719 34.1875 43.984375 34.082031 L 43.984375 36.546875 C 43.984375 36.859375 44.242188 37.113281 44.558594 37.113281 L 47.039062 37.113281 C 46.933594 37.582031 46.691406 38.003906 46.359375 38.335938 Z M 49.996094 35.976562 L 48.207031 35.976562 C 48.082031 35.191406 47.710938 34.492188 47.167969 33.953125 L 47.164062 33.953125 C 46.625 33.417969 45.917969 33.046875 45.128906 32.925781 L 45.128906 31.148438 L 49.996094 31.148438 Z M 29.820312 24.230469 C 29.820312 23.917969 30.074219 23.664062 30.390625 23.664062 L 37.621094 23.664062 C 37.9375 23.664062 38.195312 23.917969 38.195312 24.230469 C 38.195312 24.542969 37.9375 24.796875 37.621094 24.796875 L 30.390625 24.796875 C 30.074219 24.796875 29.820312 24.542969 29.820312 24.230469 Z M 29.820312 29.503906 C 29.820312 29.191406 30.074219 28.9375 30.390625 28.9375 L 40.4375 28.9375 C 40.753906 28.9375 41.011719 29.191406 41.011719 29.503906 C 41.011719 29.816406 40.753906 30.070312 40.4375 30.070312 L 30.390625 30.070312 C 30.074219 30.070312 29.820312 29.816406 29.820312 29.503906 Z M 29.820312 26.867188 C 29.820312 26.554688 30.074219 26.300781 30.390625 26.300781 L 37.621094 26.300781 C 37.9375 26.300781 38.195312 26.554688 38.195312 26.867188 C 38.195312 27.179688 37.9375 27.433594 37.621094 27.433594 L 30.390625 27.433594 C 30.074219 27.433594 29.820312 27.179688 29.820312 26.867188 Z M 41.007812 32.140625 C 41.007812 32.453125 40.753906 32.707031 40.4375 32.707031 L 30.390625 32.707031 C 30.074219 32.707031 29.820312 32.453125 29.820312 32.140625 C 29.820312 31.828125 30.074219 31.574219 30.390625 31.574219 L 40.4375 31.574219 C 40.753906 31.574219 41.007812 31.828125 41.007812 32.140625 Z M 26.785156 35.476562 L 23.917969 35.476562 C 23.601562 35.476562 23.347656 35.730469 23.347656 36.042969 L 23.347656 38.964844 C 23.347656 39.277344 23.601562 39.53125 23.917969 39.53125 L 26.785156 39.53125 C 27.101562 39.53125 27.355469 39.277344 27.355469 38.964844 L 27.355469 36.042969 C 27.355469 35.730469 27.101562 35.476562 26.785156 35.476562 Z M 26.214844 38.398438 L 24.488281 38.398438 L 24.488281 36.613281 L 26.214844 36.613281 Z M 32.519531 35.476562 L 29.652344 35.476562 C 29.335938 35.476562 29.078125 35.730469 29.078125 36.042969 L 29.078125 38.964844 C 29.078125 39.277344 29.335938 39.53125 29.652344 39.53125 L 32.519531 39.53125 C 32.832031 39.53125 33.089844 39.277344 33.089844 38.964844 L 33.089844 36.042969 C 33.089844 35.730469 32.832031 35.476562 32.519531 35.476562 Z M 31.945312 38.398438 L 30.222656 38.398438 L 30.222656 36.613281 L 31.945312 36.613281 Z M 38.25 35.476562 L 35.382812 35.476562 C 35.070312 35.476562 34.8125 35.730469 34.8125 36.042969 L 34.8125 38.964844 C 34.8125 39.277344 35.070312 39.53125 35.382812 39.53125 L 38.25 39.53125 C 38.566406 39.53125 38.824219 39.277344 38.824219 38.964844 L 38.824219 36.042969 C 38.824219 35.730469 38.566406 35.476562 38.25 35.476562 Z M 37.679688 38.398438 L 35.957031 38.398438 L 35.957031 36.613281 L 37.679688 36.613281 Z M 37.679688 38.398438 " fill-opacity="1" fill-rule="nonzero"/></g></svg>