<svg xmlns="http://www.w3.org/2000/svg" xmlns:xlink="http://www.w3.org/1999/xlink" width="100" zoomAndPan="magnify" viewBox="0 0 75 52.499999" height="70" preserveAspectRatio="xMidYMid meet" version="1.0"><defs><clipPath id="f847ed5f66"><path d="M 11.667969 9 L 63.671875 9 L 63.671875 43.402344 L 11.667969 43.402344 Z M 11.667969 9 " clip-rule="nonzero"/></clipPath></defs><g clip-path="url(#f847ed5f66)"><path fill="#f5e8da" d="M 63.308594 14.683594 C 62.125 14.210938 60.992188 13.824219 59.863281 13.5 L 59.863281 12.183594 C 59.863281 11.957031 59.726562 11.75 59.515625 11.660156 C 52.269531 8.542969 44.921875 8.515625 37.671875 11.566406 C 30.421875 8.515625 23.074219 8.542969 15.824219 11.660156 C 15.613281 11.75 15.476562 11.957031 15.476562 12.183594 L 15.476562 13.5 C 14.347656 13.824219 13.214844 14.210938 12.035156 14.683594 C 11.8125 14.769531 11.671875 14.980469 11.671875 15.210938 L 11.671875 42.824219 C 11.671875 43.027344 11.777344 43.214844 11.953125 43.316406 C 12.128906 43.421875 12.347656 43.421875 12.527344 43.324219 C 20.777344 38.808594 29.140625 38.808594 37.390625 43.324219 C 37.476562 43.371094 37.574219 43.398438 37.671875 43.398438 C 37.765625 43.398438 37.949219 43.328125 37.949219 43.324219 C 46.199219 38.808594 54.5625 38.808594 62.8125 43.324219 C 62.898438 43.371094 62.996094 43.398438 63.09375 43.398438 C 63.195312 43.398438 63.296875 43.371094 63.386719 43.316406 C 63.5625 43.214844 63.671875 43.027344 63.671875 42.824219 L 63.671875 15.210938 C 63.671875 14.980469 63.527344 14.769531 63.308594 14.683594 Z M 58.707031 12.5625 L 58.707031 37.347656 C 55.3125 35.996094 51.894531 35.320312 48.480469 35.320312 C 45.0625 35.320312 41.644531 35.996094 38.25 37.347656 L 38.25 12.5625 C 45.039062 9.742188 51.917969 9.742188 58.707031 12.5625 Z M 16.632812 12.5625 C 23.425781 9.742188 30.300781 9.742188 37.09375 12.5625 L 37.09375 37.347656 C 33.695312 35.996094 30.28125 35.320312 26.863281 35.320312 C 23.445312 35.320312 20.03125 35.996094 16.632812 37.347656 Z M 12.828125 41.871094 L 12.828125 15.601562 C 13.730469 15.253906 14.605469 14.960938 15.476562 14.703125 L 15.476562 38.207031 C 15.476562 38.398438 15.574219 38.578125 15.738281 38.683594 C 15.902344 38.789062 16.105469 38.808594 16.285156 38.730469 C 23.1875 35.761719 30.1875 35.71875 37.09375 38.589844 L 37.09375 41.871094 C 29.039062 37.757812 20.882812 37.757812 12.828125 41.871094 Z M 62.515625 41.871094 C 54.460938 37.757812 46.304688 37.757812 38.25 41.871094 L 38.25 38.589844 C 45.15625 35.722656 52.152344 35.761719 59.054688 38.730469 C 59.128906 38.761719 59.210938 38.777344 59.285156 38.777344 C 59.398438 38.777344 59.507812 38.746094 59.605469 38.683594 C 59.765625 38.578125 59.863281 38.398438 59.863281 38.207031 L 59.863281 14.703125 C 60.734375 14.960938 61.609375 15.253906 62.515625 15.601562 Z M 62.515625 41.871094 " fill-opacity="1" fill-rule="nonzero"/></g><path fill="#f5e8da" d="M 32.398438 32.363281 L 32.585938 30.703125 C 32.652344 30.105469 32.351562 29.53125 31.816406 29.242188 L 30.960938 28.78125 L 30.863281 28.03125 C 30.789062 27.4375 30.503906 26.882812 30.066406 26.472656 L 29.253906 25.707031 L 29.054688 22.898438 C 29.722656 22.765625 30.226562 22.1875 30.226562 21.488281 C 30.226562 20.882812 29.84375 20.367188 29.308594 20.15625 C 29.722656 19.628906 29.96875 18.972656 29.96875 18.273438 C 29.96875 16.578125 28.574219 15.199219 26.863281 15.199219 C 25.148438 15.199219 23.753906 16.578125 23.753906 18.273438 C 23.753906 18.972656 24.003906 19.628906 24.417969 20.15625 C 23.882812 20.367188 23.5 20.882812 23.5 21.488281 C 23.5 22.1875 24.003906 22.765625 24.667969 22.898438 L 24.46875 25.707031 L 23.660156 26.472656 C 23.222656 26.882812 22.9375 27.4375 22.863281 28.03125 L 22.765625 28.78125 L 21.910156 29.242188 C 21.375 29.53125 21.074219 30.105469 21.140625 30.703125 L 21.328125 32.359375 C 21.363281 32.652344 21.609375 32.871094 21.902344 32.871094 L 31.824219 32.871094 C 32.117188 32.871094 32.363281 32.652344 32.398438 32.359375 Z M 25.824219 22.925781 L 27.898438 22.925781 L 28.074219 25.398438 L 25.652344 25.398438 L 25.828125 22.925781 Z M 26.863281 16.339844 C 27.9375 16.339844 28.816406 17.207031 28.816406 18.273438 C 28.816406 19.050781 28.339844 19.753906 27.621094 20.050781 L 26.105469 20.050781 C 25.386719 19.753906 24.910156 19.050781 24.910156 18.273438 C 24.910156 17.207031 25.785156 16.339844 26.863281 16.339844 Z M 24.949219 21.195312 L 28.777344 21.195312 C 28.9375 21.195312 29.070312 21.328125 29.070312 21.488281 C 29.070312 21.648438 28.9375 21.78125 28.777344 21.78125 L 24.949219 21.78125 C 24.789062 21.78125 24.65625 21.648438 24.65625 21.488281 C 24.65625 21.328125 24.789062 21.195312 24.949219 21.195312 Z M 24.007812 28.171875 C 24.050781 27.839844 24.210938 27.53125 24.453125 27.300781 L 25.261719 26.542969 L 28.464844 26.542969 L 29.269531 27.300781 C 29.515625 27.53125 29.675781 27.839844 29.714844 28.171875 L 29.765625 28.570312 L 23.957031 28.570312 Z M 31.304688 31.726562 L 22.421875 31.726562 L 22.289062 30.574219 C 22.273438 30.441406 22.34375 30.3125 22.464844 30.246094 L 23.449219 29.714844 L 30.277344 29.714844 L 31.261719 30.246094 C 31.382812 30.3125 31.453125 30.441406 31.4375 30.574219 Z M 31.304688 31.726562 " fill-opacity="1" fill-rule="nonzero"/><path fill="#f5e8da" d="M 46.765625 16.464844 C 49.316406 16.285156 51.90625 16.511719 54.460938 17.132812 C 54.507812 17.144531 54.554688 17.148438 54.601562 17.148438 C 54.859375 17.148438 55.097656 16.976562 55.160156 16.714844 C 55.238281 16.410156 55.050781 16.097656 54.738281 16.023438 C 52.066406 15.371094 49.355469 15.136719 46.683594 15.320312 C 46.367188 15.34375 46.125 15.617188 46.148438 15.933594 C 46.171875 16.25 46.453125 16.480469 46.765625 16.464844 Z M 46.765625 16.464844 " fill-opacity="1" fill-rule="nonzero"/><path fill="#f5e8da" d="M 42.355469 17.148438 C 42.402344 17.148438 42.449219 17.144531 42.496094 17.132812 C 43.390625 16.914062 44.296875 16.742188 45.191406 16.625 C 45.507812 16.582031 45.730469 16.292969 45.683594 15.980469 C 45.644531 15.667969 45.351562 15.445312 45.035156 15.492188 C 44.101562 15.617188 43.152344 15.796875 42.21875 16.023438 C 41.910156 16.097656 41.71875 16.410156 41.796875 16.714844 C 41.859375 16.976562 42.097656 17.152344 42.355469 17.152344 Z M 42.355469 17.148438 " fill-opacity="1" fill-rule="nonzero"/><path fill="#f5e8da" d="M 46.765625 18.972656 C 49.316406 18.792969 51.90625 19.019531 54.460938 19.644531 C 54.507812 19.652344 54.554688 19.660156 54.601562 19.660156 C 54.859375 19.660156 55.097656 19.484375 55.160156 19.222656 C 55.238281 18.917969 55.050781 18.605469 54.738281 18.53125 C 52.066406 17.878906 49.355469 17.644531 46.683594 17.832031 C 46.367188 17.855469 46.125 18.128906 46.148438 18.441406 C 46.171875 18.757812 46.453125 18.988281 46.765625 18.972656 Z M 46.765625 18.972656 " fill-opacity="1" fill-rule="nonzero"/><path fill="#f5e8da" d="M 42.355469 19.660156 C 42.402344 19.660156 42.449219 19.652344 42.496094 19.644531 C 43.390625 19.425781 44.296875 19.253906 45.191406 19.132812 C 45.507812 19.089844 45.730469 18.800781 45.683594 18.488281 C 45.644531 18.175781 45.351562 17.957031 45.035156 18 C 44.101562 18.125 43.15625 18.304688 42.21875 18.53125 C 41.910156 18.605469 41.71875 18.917969 41.796875 19.222656 C 41.859375 19.484375 42.097656 19.660156 42.355469 19.660156 Z M 42.355469 19.660156 " fill-opacity="1" fill-rule="nonzero"/><path fill="#f5e8da" d="M 46.765625 21.480469 C 49.316406 21.304688 51.90625 21.527344 54.460938 22.152344 C 54.507812 22.164062 54.554688 22.167969 54.601562 22.167969 C 54.859375 22.167969 55.097656 21.996094 55.160156 21.734375 C 55.238281 21.425781 55.050781 21.117188 54.738281 21.042969 C 52.066406 20.390625 49.355469 20.152344 46.683594 20.339844 C 46.367188 20.363281 46.125 20.636719 46.148438 20.953125 C 46.171875 21.265625 46.453125 21.5 46.765625 21.480469 Z M 46.765625 21.480469 " fill-opacity="1" fill-rule="nonzero"/><path fill="#f5e8da" d="M 42.355469 22.167969 C 42.402344 22.167969 42.449219 22.164062 42.496094 22.152344 C 43.386719 21.933594 44.296875 21.761719 45.191406 21.644531 C 45.507812 21.601562 45.730469 21.3125 45.683594 21 C 45.644531 20.6875 45.351562 20.464844 45.035156 20.507812 C 44.097656 20.632812 43.152344 20.8125 42.21875 21.042969 C 41.910156 21.117188 41.71875 21.425781 41.796875 21.734375 C 41.859375 21.996094 42.097656 22.167969 42.355469 22.167969 Z M 42.355469 22.167969 " fill-opacity="1" fill-rule="nonzero"/><path fill="#f5e8da" d="M 42.355469 24.679688 C 42.402344 24.679688 42.449219 24.671875 42.496094 24.660156 C 43.390625 24.441406 44.296875 24.269531 45.191406 24.152344 C 45.507812 24.109375 45.730469 23.820312 45.683594 23.507812 C 45.644531 23.195312 45.351562 22.972656 45.035156 23.019531 C 44.101562 23.144531 43.15625 23.320312 42.21875 23.550781 C 41.910156 23.625 41.71875 23.9375 41.796875 24.242188 C 41.859375 24.503906 42.097656 24.679688 42.355469 24.679688 Z M 42.355469 24.679688 " fill-opacity="1" fill-rule="nonzero"/></svg>